<?xml version="1.0" standalone="no"?>
<!DOCTYPE svg PUBLIC "-//W3C//DTD SVG 1.1//EN" "http://www.w3.org/Graphics/SVG/1.1/DTD/svg11.dtd" >
<svg xmlns="http://www.w3.org/2000/svg" xmlns:xlink="http://www.w3.org/1999/xlink" version="1.1">
<metadata>
Created by FontForge 20170731 at Thu Oct 22 01:44:15 2020
 By Aleksey,,,
Copyright (c) 1999-2020 SIL International
</metadata>
<defs>
<font id="NuosuSIL-Regular" horiz-adv-x="1600" >
  <font-face 
    font-family="Nuosu SIL"
    font-weight="400"
    font-stretch="normal"
    units-per-em="2048"
    panose-1="2 0 0 0 0 0 0 0 0 0"
    ascent="1638"
    descent="-410"
    x-height="954"
    cap-height="1410"
    bbox="-887 -549 2214 2150"
    underline-thickness="20"
    underline-position="-153"
    unicode-range="U+0020-FFFD"
  />
<missing-glyph horiz-adv-x="1080" 
d="M100 0v1443h880v-1443h-880zM150 1393v-1343h780v1343h-780z" />
    <glyph glyph-name=".notdef" horiz-adv-x="1080" 
d="M100 0v1443h880v-1443h-880zM150 1393v-1343h780v1343h-780z" />
    <glyph glyph-name=".null" horiz-adv-x="0" 
 />
    <glyph glyph-name="nonmarkingreturn" horiz-adv-x="520" 
 />
    <glyph glyph-name="space" unicode=" " horiz-adv-x="520" 
 />
    <glyph glyph-name="exclam" unicode="!" horiz-adv-x="709" 
d="M473 1287v0q0 80 -38 122q-34 34 -77 34q-55 0 -88 -39q-34 -39 -34 -107q0 -4 9 -79l90 -845h40l94 845q2 19 3 36t1 33zM469 89v0q0 48 -36 80q-32 31 -78 31q-48 0 -77 -28q-40 -34 -40 -83q0 -58 41 -90q36 -30 76 -30q46 0 81 35q33 33 33 85z" />
    <glyph glyph-name="quotedbl" unicode="&#x22;" horiz-adv-x="869" 
d="M729 1333v0q0 49 -28 78q-28 32 -76 32q-106 0 -106 -125q0 -21 5.5 -65.5t18.5 -112.5l56 -303h50l59 303q21 120 21 193zM349 1330v0q0 50 -30 83q-30 30 -77 30q-103 0 -103 -125q0 -51 23 -174l57 -307h43l58 306q29 154 29 187z" />
    <glyph glyph-name="numbersign" unicode="#" horiz-adv-x="1067" 
d="M1030 445v86h-268l75 357h193v82h-179l99 473h-86l-102 -473h-350l93 473h-85l-94 -473h-289v-82h269l-74 -357h-195v-86h179l-97 -476h88l99 476h352l-95 -476h85l96 476h286zM748 888l-73 -357h-355l73 357h355z" />
    <glyph glyph-name="dollar" unicode="$" horiz-adv-x="1067" 
d="M957 350v0q0 136 -90 232q-34 37 -114.5 100.5t-207.5 154.5v529q278 -29 303 -335h42v312q-71 27 -121.5 45.5t-80.5 28.5q-37 8 -73.5 13t-69.5 6v96h-66v-96q-137 -9 -237 -83q-132 -93 -132 -256q0 -144 96 -246q67 -71 273 -205v-607q-304 27 -323 310h-46v-296
q168 -73 369 -84v-131h66v131q167 10 287 111q125 108 125 270zM479 881v0q-207 130 -207 282q0 170 207 203v-485zM791 299v0q0 -123 -94 -199q-74 -55 -152 -61v562q69 -49 114.5 -85t67.5 -61q64 -72 64 -156z" />
    <glyph glyph-name="percent" unicode="%" horiz-adv-x="1842" 
d="M1682 529v0q0 91 -60 160q-68 76 -168 76q-176 0 -320 -163q-143 -159 -143 -340q0 -293 270 -293q150 0 279 154q142 169 142 406zM1386 1447h-102q-109 -145 -320 -147q-98 -3 -179 57q-79 60 -163 60q-177 0 -319 -166q-143 -164 -143 -340q0 -293 255 -293
q150 0 288 158q148 172 148 378q0 17 -9 59q-3 20 -5 34t-2 21q41 -15 106 -15q133 0 264 55l-746 -1339h103zM1626 516v0q0 -149 -95 -304q-106 -178 -245 -178q-133 0 -133 149q0 158 95 328q106 184 231 184q67 0 110 -57q37 -52 37 -122zM795 1185v0q0 -172 -97 -326
q-107 -168 -243 -168q-133 0 -133 158q0 195 126 362q107 145 181 145q20 0 57 -28q25 -16 47.5 -27.5t44.5 -17.5q8 -49 12.5 -73.5z" />
    <glyph glyph-name="ampersand" unicode="&#x26;" horiz-adv-x="1659" 
d="M1587 255l-40 25q-36 -153 -190 -153q-139 0 -312 195q62 80 114.5 158t94.5 155q85 154 135 193q34 29 130 41v39h-438v-39q43 0 70 -35q27 -36 27 -82q0 -151 -181 -369q-74 99 -143.5 206.5t-134.5 224.5q79 41 134 75t87 62q122 107 122 237q0 105 -72 178
q-79 77 -209 77q-145 0 -246 -82q-117 -96 -117 -263q0 -117 87 -309q-434 -230 -434 -510q0 -126 95 -213q105 -99 279 -99q146 0 280 74q69 38 174 129q188 -203 367 -203q144 0 233 104q66 78 88 184zM941 1193v0q0 -193 -256 -309q-89 192 -89 297q0 58 36 110
q49 79 149 79q65 0 113 -50q47 -50 47 -127zM845 230v0q-164 -136 -293 -136q-122 0 -196 89q-67 81 -67 190q0 207 249 345q44 -82 73 -135t43 -78q19 -32 66.5 -101t124.5 -174z" />
    <glyph glyph-name="quotesingle" unicode="'" horiz-adv-x="385" 
d="M297 1333v0q0 41 -28 77q-31 33 -83 33q-97 0 -97 -125q0 -49 21 -174l56 -307h47l56 306q14 78 21 126t7 64z" />
    <glyph glyph-name="parenleft" unicode="(" horiz-adv-x="709" 
d="M661 -458v40q-374 230 -374 957q0 346 101 576q96 228 273 322v43q-254 -118 -415 -385q-157 -262 -157 -583q0 -316 156 -582q155 -264 416 -388z" />
    <glyph glyph-name="parenright" unicode=")" horiz-adv-x="709" 
d="M623 509v0q0 315 -151 576q-154 261 -425 395v-41q237 -153 323 -465q55 -192 55 -492q0 -700 -378 -900v-40q256 114 415 381q161 269 161 586z" />
    <glyph glyph-name="asterisk" unicode="*" horiz-adv-x="1065" 
d="M917 1221v0q0 32 -25 55q-25 21 -58 21q-48 0 -139 -86q-62 -58 -97 -90t-42 -37q2 15 11 51.5t25 94.5q13 45 20 81t7 63q0 39 -21 72q-22 34 -59 34q-90 0 -90 -110q0 -39 29 -136q16 -55 25.5 -92.5t11.5 -57.5q-34 33 -67.5 65.5t-68.5 64.5q-95 86 -149 86
q-78 0 -78 -76q0 -55 70 -90q20 -10 55.5 -22.5t85.5 -24.5q104 -25 129 -39q-52 -15 -102.5 -28t-100.5 -30q-137 -44 -137 -121q0 -31 25 -52q25 -22 59 -22q48 0 143 89l137 128q-2 -13 -40 -143q-27 -91 -27 -145q0 -38 21 -73q22 -33 59 -33q90 0 90 110q0 47 -31 139
q-32 89 -32 144q34 -32 67 -64t66 -63q87 -86 148 -86q77 0 77 76q0 73 -133 114q-49 17 -99.5 30.5t-100.5 29.5q50 13 100.5 26.5t99.5 28.5q136 42 136 118z" />
    <glyph glyph-name="plus" unicode="+" horiz-adv-x="2051" 
d="M1640 552v127h-552v551h-127v-551h-551v-127h551v-552h127v552h552z" />
    <glyph glyph-name="comma" unicode="," horiz-adv-x="533" 
d="M425 -10v0q0 97 -57 162q-52 55 -118 55q-55 0 -96 -34q-40 -37 -40 -87q0 -117 112 -117q17 0 44 15q32 16 46 16q23 0 23 -41q0 -96 -73 -175q-63 -67 -152 -93v-47q311 106 311 346z" />
    <glyph glyph-name="hyphen" unicode="-" horiz-adv-x="709" 
d="M623 398v158h-537v-158h537z" />
    <glyph glyph-name="period" unicode="." horiz-adv-x="533" 
d="M382 89v0q0 49 -35 81q-33 33 -81 33q-49 0 -82 -33q-32 -32 -32 -81q0 -51 31 -85q32 -35 83 -35q48 0 83 35q33 36 33 85z" />
    <glyph glyph-name="slash" unicode="/" horiz-adv-x="592" 
d="M596 1480h-81l-514 -1511h88z" />
    <glyph glyph-name="zero" unicode="0" horiz-adv-x="1065" 
d="M990 718v0q0 324 -138 529q-129 194 -314 194q-192 0 -322 -203q-140 -213 -140 -542q0 -291 121 -497q129 -223 329 -223q217 0 345 228q119 212 119 514zM786 765v0q0 -724 -255 -724q-118 0 -182 158q-69 165 -69 473q0 383 85 564q65 138 170 138q121 0 187 -163
q64 -159 64 -446z" />
    <glyph glyph-name="one" unicode="1" horiz-adv-x="1065" 
d="M805 0v39q-123 0 -153 38q-23 33 -23 173v1191h-37l-342 -168l15 -33q65 31 108 31q62 0 77 -76q5 -16 6.5 -62.5t1.5 -121.5v-761q0 -138 -26 -173q-29 -38 -157 -38v-39h530z" />
    <glyph glyph-name="two" unicode="2" horiz-adv-x="1065" 
d="M978 270h-38q-59 -82 -131 -101q-19 -5 -62 -8.5t-109 -3.5h-369q25 23 105.5 108.5t216.5 232.5q301 326 301 572q0 164 -127 273q-117 98 -277 98q-202 0 -309 -151q-73 -100 -90 -246h35q83 237 311 237q92 0 171 -63q108 -85 108 -244q0 -174 -151 -388
q-96 -137 -243 -287q-41 -42 -109.5 -107t-163.5 -153v-39h831z" />
    <glyph glyph-name="three" unicode="3" horiz-adv-x="1065" 
d="M889 468v0q0 272 -261 369q190 165 190 317q0 90 -62 173q-87 114 -266 114q-165 0 -271 -117q-51 -57 -110 -181l34 -18q109 172 272 172q84 0 148 -50q83 -65 83 -187q0 -164 -141 -258q-89 -60 -180 -70v-33q118 -1 206 -38q205 -88 205 -321q0 -117 -82 -197
q-85 -77 -182 -77q-76 0 -166 48q-88 48 -136 48q-32 0 -57 -22q-24 -20 -24 -51q0 -113 243 -113q258 0 407 136q150 137 150 356z" />
    <glyph glyph-name="four" unicode="4" horiz-adv-x="1065" 
d="M990 373v148h-186v920h-115l-656 -936v-132h599v-373h172v373h186zM632 521h-496l496 700v-700z" />
    <glyph glyph-name="five" unicode="5" horiz-adv-x="1065" 
d="M925 1410h-505l-270 -546q294 -10 461 -149q155 -128 155 -317q0 -133 -91 -225q-91 -91 -213 -91q-73 0 -153 54q-83 53 -125 53q-81 0 -81 -76q0 -60 61 -99q65 -38 181 -38q200 0 366 134q191 155 191 399q0 260 -238 413q-164 106 -338 123l94 189h425z" />
    <glyph glyph-name="six" unicode="6" horiz-adv-x="1065" 
d="M984 476v0q0 210 -132 326q-100 90 -224 90q-150 0 -302 -106q65 269 232 435q165 168 397 182v38h-60q-274 0 -512 -223q-290 -274 -290 -665q0 -240 123 -406q126 -171 319 -171q195 0 329 157q120 146 120 343zM798 363v0q0 -153 -70 -244q-64 -82 -162 -86
q-124 -4 -206 151q-71 139 -71 302q0 68 20 225q145 91 217 91q135 0 208 -138q64 -123 64 -301z" />
    <glyph glyph-name="seven" unicode="7" horiz-adv-x="1065" 
d="M968 1374v36h-752l-139 -332l32 -10q52 90 84 115q75 57 225 57h387l-422 -1271h115z" />
    <glyph glyph-name="eight" unicode="8" horiz-adv-x="1065" 
d="M942 335v0q0 140 -114 267q-30 35 -82 80t-125 102q128 78 191 141q100 99 100 210q0 98 -74 185q-103 121 -305 121q-160 0 -271 -90q-116 -94 -116 -246q0 -128 90 -234q20 -24 64 -64t110 -98q-283 -196 -283 -387q0 -131 105 -233q114 -113 301 -113q219 0 328 131
q81 98 81 228zM762 1148v0q0 -106 -54 -187q-29 -39 -135 -139q-163 130 -204 176q-72 83 -72 176q0 95 69 150q70 56 169 56q227 0 227 -232zM795 250v0q0 -101 -70 -158q-71 -59 -177 -59q-113 0 -188 77q-73 81 -73 216q0 197 172 346q55 -46 109.5 -91t106.5 -93
q62 -59 91 -120t29 -118z" />
    <glyph glyph-name="nine" unicode="9" horiz-adv-x="1065" 
d="M974 859v0q0 222 -117 394q-128 188 -332 188q-177 0 -306 -141q-133 -148 -133 -365q0 -170 93 -289q101 -131 266 -131q135 0 296 106q-62 -250 -243 -447q-147 -159 -385 -165v-40h59q310 0 564 278q238 265 238 612zM776 912v0q0 -33 -4.5 -86.5t-15.5 -129.5
q-23 -29 -94 -57q-73 -30 -133 -30q-116 0 -187 120q-72 123 -72 315q0 153 69 243q59 82 161 87q105 3 185 -116q91 -131 91 -346z" />
    <glyph glyph-name="colon" unicode=":" horiz-adv-x="595" 
d="M415 867v0q0 48 -35 83q-35 32 -81 32q-48 0 -83 -32q-33 -33 -33 -83q0 -47 34 -81q36 -34 82 -34q44 0 80 33q36 34 36 82zM415 89v0q0 49 -37 83q-37 31 -81 31q-43 0 -80 -31t-37 -83q0 -51 36 -86q34 -34 81 -34t81 34q37 35 37 86z" />
    <glyph glyph-name="semicolon" unicode=";" horiz-adv-x="595" 
d="M440 869v0q0 48 -32 82q-36 33 -82 33q-47 0 -83 -33q-34 -33 -34 -82q0 -48 36 -81q32 -33 81 -33q46 0 80 31q34 34 34 83zM488 -10v0q0 100 -58 162q-51 55 -117 55q-56 0 -94 -34q-40 -34 -40 -87q0 -117 110 -117q16 0 46 15q29 16 44 16q23 0 23 -41
q0 -95 -72 -175q-67 -68 -151 -93v-47q309 107 309 346z" />
    <glyph glyph-name="less" unicode="&#x3c;" horiz-adv-x="2051" 
d="M1640 80v127l-1099 408l1099 407v128l-1230 -471v-127z" />
    <glyph glyph-name="equal" unicode="=" horiz-adv-x="2051" 
d="M1640 738v127h-1230v-127h1230zM1640 365v127h-1230v-127h1230z" />
    <glyph glyph-name="greater" unicode="&#x3e;" horiz-adv-x="2051" 
d="M1640 552v127l-1230 471v-128l1099 -407l-1099 -408v-127z" />
    <glyph glyph-name="question" unicode="?" horiz-adv-x="947" 
d="M861 1115v0q0 153 -109 241q-109 87 -280 87q-177 0 -279 -90q-97 -84 -97 -209q0 -88 47 -133q34 -31 69 -31q29 0 57 24q26 26 26 66q0 26 -33 85q-32 61 -32 93q0 52 52 95t144 43q95 0 162 -66q80 -77 80 -222q0 -144 -97 -309q-131 -214 -142 -457h44q8 133 62 230
q18 31 59 83.5t105 125.5q162 182 162 344zM573 89v0q0 50 -34 83q-33 32 -80 32q-46 0 -83 -32q-36 -34 -36 -83q0 -54 36 -86q35 -32 83 -32q46 0 79 32q35 31 35 86z" />
    <glyph glyph-name="at" unicode="@" horiz-adv-x="1963" 
d="M1910 179h-58q-93 -215 -253 -358q-241 -217 -584 -217q-391 0 -615 259q-201 231 -201 572q0 431 266 715q260 277 626 277q285 0 475 -170q199 -178 199 -471q0 -294 -158 -499q-136 -180 -280 -180q-34 0 -57 22t-23 55q0 51 97 398l120 416l-163 -24l-33 -115
q-30 145 -180 145q-182 0 -374 -238q-198 -241 -198 -493q0 -109 56 -174q54 -66 132 -66q163 0 409 294q-7 -46 -11.5 -82t-4.5 -61q0 -151 157 -151q243 0 409 213q166 214 166 520q0 338 -220 531q-204 183 -525 183q-379 0 -662 -256q-322 -291 -322 -761
q0 -360 227 -625q258 -300 681 -300q380 0 648 246q198 184 254 395zM1173 535v0q-58 -145 -162 -256q-116 -122 -212 -122q-42 0 -77 37q-41 44 -41 112q0 155 133 390q145 259 287 259q129 0 129 -170q0 -35 -2.5 -64t-14 -71t-40.5 -115z" />
    <glyph glyph-name="A" unicode="A" horiz-adv-x="1532" 
d="M1514 0v39q-87 6 -133 45q-23 22 -50.5 68t-57.5 118l-489 1173h-38l-496 -1163q-27 -63 -50.5 -107t-45.5 -69q-52 -59 -138 -65v-39h446v39q-165 15 -165 93q0 33 35 115l97 226h546l85 -203q41 -97 41 -141q0 -88 -141 -90v-39h554zM947 549h-485l246 572z" />
    <glyph glyph-name="B" unicode="B" horiz-adv-x="1386" 
d="M1304 386v0q0 274 -320 336q125 39 193 125q63 80 63 187q0 376 -594 376h-609v-36h52q80 0 120 -46q28 -29 28 -165v-913q0 -119 -21 -154q-38 -57 -127 -57h-52v-39h664q331 0 462 103q141 110 141 283zM1021 1044v0q0 -282 -383 -282q-69 0 -119 4t-80 10v544
q80 21 189 21q189 0 297 -88q96 -81 96 -209zM1064 369v0q0 -132 -99 -212q-106 -83 -286 -83q-57 0 -117 7t-123 22v578q47 10 184 10q211 0 327 -89q114 -90 114 -233z" />
    <glyph glyph-name="C" unicode="C" horiz-adv-x="1423" 
d="M1347 330l-31 23q-121 -172 -229 -236q-99 -57 -245 -57q-243 0 -383 159q-146 167 -146 463q0 170 36 299.5t106 219.5q131 169 357 169q351 0 471 -406h33l-33 479h-36q-25 -99 -87 -99l-29.5 12.5t-89.5 37.5q-117 49 -246 49q-319 0 -522 -225q-197 -220 -197 -533
q0 -302 180 -502q194 -216 506 -216q379 0 585 363z" />
    <glyph glyph-name="D" unicode="D" horiz-adv-x="1540" 
d="M1457 714v0q0 341 -217 530q-185 166 -629 166h-574v-36h53q76 0 122 -46q25 -32 25 -165v-913q0 -115 -21 -154q-37 -57 -126 -57h-53v-39h631q388 0 599 209q190 189 190 505zM1221 704v0q0 -291 -159 -462q-158 -173 -401 -171q-74 0 -222 32v1198q56 17 109.5 24.5
t103.5 7.5q252 0 410 -170q159 -169 159 -459z" />
    <glyph glyph-name="E" unicode="E" horiz-adv-x="1301" 
d="M1254 355h-43q-101 -179 -167 -226q-76 -53 -242 -53h-239q-87 0 -108 46q-10 20 -10 111v466h310q132 0 176 -50q31 -35 47 -159h39v490h-39q-16 -121 -47 -156q-43 -48 -176 -48h-310v558h389q166 0 220 -68q18 -24 53 -163h41l-17 307h-1085v-36h48q84 0 125 -44
q27 -28 27 -163v-917q0 -143 -40 -177t-112 -34h-48v-39h1085z" />
    <glyph glyph-name="F" unicode="F" horiz-adv-x="1185" 
d="M1098 1103l-14 307h-1050v-36h52q74 0 121 -47q29 -31 29 -164v-913q0 -128 -24 -160q-42 -51 -126 -51h-52v-39h605v39h-51q-85 0 -129 54q-23 23 -23 157v444h258q101 0 143 -48q41 -47 41 -153h39v479h-39q-16 -108 -54 -151q-40 -40 -130 -40h-258v553h312
q149 0 216 -51q58 -46 98 -180h36z" />
    <glyph glyph-name="G" unicode="G" horiz-adv-x="1540" 
d="M1509 732v37h-545v-37q115 -4 150 -41q34 -37 34 -166v-408q-127 -78 -291 -78q-236 0 -391 194q-155 195 -153 496q3 285 137 458q144 184 392 184q344 0 468 -373h34l-34 445h-39q-10 -90 -51 -90l-129 46q-126 44 -269 44q-343 0 -557 -250q-191 -221 -191 -508
q0 -309 206 -509q218 -209 575 -209q274 0 496 127v431q0 121 23 151q28 56 110 56h25z" />
    <glyph glyph-name="H" unicode="H" horiz-adv-x="1540" 
d="M1497 0v39h-51q-90 0 -128 51q-24 32 -24 160v913q0 45 1 73t2 40q6 29 27 52q44 46 122 46h51v36h-605v-36h50q76 0 122 -46q31 -31 31 -165v-407h-659v407q0 127 33 165q41 46 122 46h51v36h-605v-36h52q82 0 120 -47q28 -36 28 -164v-913q0 -132 -24 -160
q-40 -51 -124 -51h-52v-39h605v39h-51q-87 0 -128 50q-27 32 -27 161v431h659v-431q0 -123 -27 -160q-39 -51 -126 -51h-50v-39h605z" />
    <glyph glyph-name="I" unicode="I" horiz-adv-x="709" 
d="M658 0v39h-52q-40 0 -75 17q-38 15 -52 33q-24 36 -24 161v913q0 124 27 160q39 51 124 51h52v36h-605v-36h51q85 0 128 -54q23 -28 23 -157v-913q0 -129 -25 -160q-42 -51 -126 -51h-51v-39h605z" />
    <glyph glyph-name="J" unicode="J" horiz-adv-x="831" 
d="M817 1374v36h-604v-36h49q21 0 41 -5t40 -13q42 -18 53 -40q20 -35 20 -153v-964q0 -158 -77 -158q-39 0 -79 98q-41 97 -110 97q-104 0 -104 -109q0 -66 54 -113q56 -47 155 -47q137 0 228 90q132 129 132 415v691q0 129 24 160q45 51 126 51h52z" />
    <glyph glyph-name="K" unicode="K" horiz-adv-x="1540" 
d="M1559 0v39q-102 11 -182 51q-45 24 -99.5 67.5t-119.5 107.5l-520 519l214 214q236 236 239 238q42 40 106 80q93 58 177 58v36h-522v-36h33q95 0 95 -60q0 -34 -26 -74q-41 -58 -134 -155.5t-239 -233.5q-58 -54 -94 -86.5t-51 -45.5v444q0 134 39 173q38 38 113 38h50
v36h-601v-36h49q35 0 71 -16q38 -14 52 -30q27 -30 27 -165v-913q0 -133 -23 -160q-40 -51 -127 -51h-49v-39h601v39h-50q-90 0 -126 51q-26 35 -26 160v332l62 61l424 -421q84 -83 79 -118q-9 -65 -116 -65v-39h674z" />
    <glyph glyph-name="L" unicode="L" horiz-adv-x="1301" 
d="M1258 383l-37 6q-70 -164 -157 -237q-69 -62 -299 -62h-144q-98 0 -133 29q-43 36 -43 147v929q0 109 57 148q45 28 150 28v39h-613v-39q105 0 150 -28q57 -37 57 -148v-979q0 -110 -57 -149q-45 -28 -150 -28v-39h1096z" />
    <glyph glyph-name="M" unicode="M" horiz-adv-x="1896" 
d="M1852 0v39h-50q-84 0 -120 43q-32 35 -32 164v921q0 116 23 153q41 54 129 54h50v36h-401l-504 -1103l-512 1103h-398v-36q100 0 152 -40q44 -34 44 -167v-921q0 -119 -20 -152q-40 -55 -127 -55h-49v-39h489v39h-48q-83 0 -122 43q-30 36 -30 164v941l545 -1187h36
l544 1187v-941q0 -120 -22 -152q-39 -55 -129 -55h-50v-39h602z" />
    <glyph glyph-name="N" unicode="N" horiz-adv-x="1540" 
d="M1509 1374v36h-491v-36h47q82 0 123 -46q30 -30 30 -161v-814l-862 1057h-343v-36q104 0 171 -63q17 -21 33.5 -42.5t32.5 -42.5v-980q0 -122 -24 -152q-34 -55 -127 -55h-50v-39h492v39h-49q-87 0 -123 43q-29 34 -29 164v867l933 -1136h37v1190q0 120 23 153
q35 54 127 54h49z" />
    <glyph glyph-name="O" unicode="O" horiz-adv-x="1540" 
d="M1456 714v0q0 314 -198 522q-196 207 -477 207q-302 0 -504 -209q-203 -209 -203 -525q0 -327 201 -537q196 -205 487 -205q294 0 495 213q199 216 199 534zM1220 686v0q-3 -321 -129 -489q-120 -158 -330 -156q-213 3 -332 189q-116 181 -116 485t117 482
q119 174 328 173q466 -5 462 -684z" />
    <glyph glyph-name="P" unicode="P" horiz-adv-x="1185" 
d="M1111 1021v0q0 179 -161 302q-118 87 -398 87h-515v-36h52q83 0 120 -46q27 -33 27 -165v-913q0 -119 -20 -154q-37 -57 -127 -57h-52v-39h602v39h-53q-83 0 -118 47q-32 32 -32 164v392q72 -5 117.5 -7.5t64.5 -2.5q493 -1 493 389zM874 1001v0q-3 -133 -79 -217
q-75 -85 -189 -85q-41 0 -84 3.5t-86 8.5v597q95 20 137 20q145 0 226 -100q76 -92 75 -227z" />
    <glyph glyph-name="Q" unicode="Q" horiz-adv-x="1540" 
d="M1457 705q0 320 -197 529t-484 209q-300 0 -500 -209q-202 -210 -202 -526q0 -545 507 -722q71 -79 165.5 -146.5t210.5 -124.5q126 -61 249.5 -94.5t243.5 -38.5v35q-312 23 -510 369q232 70 376 267q141 195 141 452zM1220 679q0 -302 -120 -472q-120 -171 -338 -168
q-213 2 -333 187q-116 179 -116 482q0 315 119 487q121 171 330 171q219 0 339 -185q119 -182 119 -502z" />
    <glyph glyph-name="R" unicode="R" horiz-adv-x="1423" 
d="M1441 0v39q-120 12 -193 61q-76 52 -167 180l-290 406q347 80 347 364q0 118 -73 207q-67 83 -181 120q-99 33 -335 33h-512v-36h53q76 0 122 -46q25 -32 25 -165v-913q0 -122 -20 -154q-37 -57 -127 -57h-53v-39h605v39h-56q-83 0 -118 47q-32 34 -32 164v411
q36 -7 150 0l478 -661h377zM904 1034v0q0 -140 -100 -222q-108 -87 -308 -87h-60v589q111 19 165 19q137 -3 220 -85q83 -80 83 -214z" />
    <glyph glyph-name="S" unicode="S" horiz-adv-x="1185" 
d="M1072 360v0q0 179 -151 294q-42 32 -109.5 73t-162.5 91q-105 57 -175 101t-105 78q-70 65 -70 147q0 89 73 153q71 64 176 64q155 0 263 -107q109 -105 129 -299h38v488h-38q-23 -80 -69 -80q-14 0 -123 40q-104 40 -203 40q-185 0 -298 -109q-111 -106 -111 -262
q0 -133 80 -221q79 -92 329 -233q203 -115 263 -169q77 -71 77 -170q0 -95 -76 -160q-81 -70 -204 -70q-163 0 -273 93q-124 106 -148 308h-37v-483h37q14 82 63 82q20 0 143 -40q125 -42 238 -42q190 0 319 115q125 116 125 278z" />
    <glyph glyph-name="T" unicode="T" horiz-adv-x="1297" 
d="M1248 1081l-12 329h-1170l-15 -329h48q12 144 87 199q50 44 192 44h167v-1078q0 -119 -20 -152q-40 -55 -127 -55h-52v-39h599v39h-50q-84 0 -120 43q-29 32 -29 164v1078h199q126 0 193 -70q52 -52 66 -173h44z" />
    <glyph glyph-name="U" unicode="U" horiz-adv-x="1540" 
d="M1517 1374v36h-500v-36h53q81 0 121 -46q29 -32 29 -165v-572q0 -315 -99 -408q-133 -127 -337 -127q-235 0 -319 176q-49 107 -49 313v618q0 115 27 155q34 56 105 56h53v36h-570v-36h32q99 0 130 -60q23 -40 23 -151v-554q0 -286 59 -405q120 -237 494 -237
q153 0 252 37q45 17 87.5 48t82.5 71q123 126 123 458v573q0 60 6.5 96t16.5 51q51 73 127 73h53z" />
    <glyph glyph-name="V" unicode="V" horiz-adv-x="1540" 
d="M1513 1374v36h-435v-36q113 -21 140 -66q10 -18 10 -40q0 -40 -50 -161l-331 -820l-361 828q-47 109 -47 161q0 27 11 47q30 39 145 51v36h-576v-36q86 -7 134 -44q44 -36 92 -145l526 -1218h38l492 1204q42 101 99 156q36 35 113 47z" />
    <glyph glyph-name="W" unicode="W" horiz-adv-x="2013" 
d="M1995 1374v36h-421v-36q155 0 155 -97q0 -47 -44 -170l-268 -780l-273 770q-46 129 -46 184q0 93 113 93h37v36h-549v-36q70 0 118 -37q45 -39 104 -189q12 -32 24.5 -68.5t24.5 -77.5l-234 -675l-277 794q-44 126 -44 169q0 18 10 37q24 47 100 47h24v36h-520v-36
q90 0 127 -46q26 -18 86 -188l419 -1173h38l319 902l320 -902h43l392 1140q23 65 40 108t27 65q54 94 155 94z" />
    <glyph glyph-name="X" unicode="X" horiz-adv-x="1540" 
d="M1513 0v39q-95 6 -156 57t-184 234l-304 454l284 356q53 66 91 109.5t62 61.5q65 57 175 63v36h-501v-36q109 -1 141 -41q13 -14 13 -36q0 -37 -66 -123l-250 -317l-217 324q-49 73 -49 110q0 29 33 55q33 27 111 28v36h-650v-36q110 -6 184 -58q41 -29 88 -82.5
t100 -130.5l278 -408l-333 -422q-181 -228 -349 -234v-39h502v39q-134 3 -134 80q0 42 63 123l297 379l238 -362q70 -107 70 -140q0 -16 -16 -42q-28 -38 -126 -38v-39h605z" />
    <glyph glyph-name="Y" unicode="Y" horiz-adv-x="1540" 
d="M1509 1374v36h-492v-36q93 0 126 -50q17 -29 17 -53q0 -46 -63 -146l-279 -434l-293 453q-63 97 -63 137q0 47 44 72q38 21 86 21h31v36h-604v-36q68 0 143 -58q14 -10 27 -24.5t28 -34.5q7 -10 21.5 -31.5t36.5 -54.5l386 -590v-335q0 -118 -22 -152q-40 -55 -127 -55
h-49v-39h599v39h-45q-88 0 -125 43q-31 35 -31 164v353l343 535q69 109 104 147q84 93 173 93h28z" />
    <glyph glyph-name="Z" unicode="Z" horiz-adv-x="1301" 
d="M1243 373l-33 6q-26 -78 -53 -132.5t-56 -84.5q-76 -76 -223 -76h-579l927 1324h-1043l-29 -352h39q29 170 86 220q58 50 203 50h449l-902 -1289v-39h1148z" />
    <glyph glyph-name="bracketleft" unicode="[" horiz-adv-x="709" 
d="M632 -422v82h-305v1703h305v80h-460v-1865h460z" />
    <glyph glyph-name="backslash" unicode="\" horiz-adv-x="592" 
d="M601 -31l-508 1511h-92l514 -1511h86z" />
    <glyph glyph-name="bracketright" unicode="]" horiz-adv-x="709" 
d="M538 -425v1868h-458v-80h302v-1703h-302v-85h458z" />
    <glyph glyph-name="asciicircum" unicode="^" horiz-adv-x="2051" 
d="M1560 20l-472 1230h-127l-471 -1230h128l407 1100l408 -1100h127z" />
    <glyph glyph-name="underscore" unicode="_" horiz-adv-x="1025" 
d="M1025 -240v76h-1025v-76h1025z" />
    <glyph glyph-name="grave" unicode="`" horiz-adv-x="799" 
d="M486 1084l-296 297q-67 70 -124 70q-66 0 -66 -80q0 -34 93 -91l307 -196h86z" />
    <glyph glyph-name="a" unicode="a" horiz-adv-x="947" 
d="M945 137v60q-83 -84 -113 -84q-37 0 -46 51q-3 22 -4 63t-1 103v326q0 168 -56 236q-70 88 -263 88q-140 0 -243 -63q-106 -68 -106 -175q0 -100 87 -100q90 0 87 99l-2 61q3 50 42 83q36 33 102 33q92 0 134 -57q43 -58 43 -190v-39q-317 -110 -434 -210
q-96 -81 -96 -196q0 -111 63 -177q62 -68 164 -68q71 0 127 29q43 23 176 127q0 -156 112 -156q110 0 227 156zM606 204v0q-131 -106 -208 -104q-63 3 -103 52q-43 47 -43 123q0 78 57 135q75 72 297 161v-367z" />
    <glyph glyph-name="b" unicode="b" horiz-adv-x="1065" 
d="M992 515v0q0 212 -108 342q-102 123 -256 123q-162 0 -301 -191v691h-48l-288 -114l15 -38q86 27 116 2q21 -17 25 -53q7 -43 7 -199v-985q181 -124 346 -124q200 0 347 157q145 155 145 389zM812 455v0q0 -192 -83 -305q-76 -103 -176 -103q-119 0 -226 105v572
q117 110 216 110q114 0 191 -102q78 -102 78 -277z" />
    <glyph glyph-name="c" unicode="c" horiz-adv-x="947" 
d="M875 363l-28 15q-102 -242 -295 -242q-145 0 -230 130q-80 122 -80 300q0 149 67 249q70 97 183 97q136 0 146 -124t114 -124q99 0 99 88q0 103 -115 170q-100 58 -210 58q-188 0 -319 -139q-136 -145 -136 -365q0 -228 118 -367q116 -140 289 -140q142 0 256 111
q116 111 141 283z" />
    <glyph glyph-name="d" unicode="d" horiz-adv-x="1065" 
d="M1074 89l-12 35q-82 -30 -115 -2q-24 17 -28 57q-1 21 -3 70.5t-2 128.5v1102h-47l-286 -114l14 -38q85 28 113 2q22 -22 26 -54q7 -45 7 -198v-176q-83 80 -208 80q-208 -1 -343 -180q-120 -160 -120 -366q0 -197 116 -333q116 -134 276 -134q144 0 279 138v-138h45z
M741 180q-90 -94 -185 -94q-115 1 -197 103q-97 118 -97 332q0 180 77 293q73 108 182 104q98 -5 161 -84q59 -72 59 -162v-492z" />
    <glyph glyph-name="e" unicode="e" horiz-adv-x="947" 
d="M885 349l-33 20q-87 -230 -279 -227q-144 2 -243 120q-104 126 -104 333h659q0 177 -101 283q-104 104 -263 104q-195 0 -321 -138q-123 -141 -123 -379q0 -218 122 -358q121 -138 294 -138q156 0 268 120q103 110 124 260zM668 654h-442q10 117 80 187q67 67 156 67
q71 0 129 -49q77 -68 77 -205z" />
    <glyph glyph-name="f" unicode="f" horiz-adv-x="709" 
d="M927 1301v0q0 70 -85 125q-86 54 -178 54q-121 0 -224 -70q-175 -118 -175 -393v-63h-188v-76h188v-626q0 -144 -40 -178q-41 -35 -98 -35h-43v-39h574v39h-86q-68 0 -103 45q-30 30 -30 168v626h246v76h-246v67q0 110 6.5 183t16.5 107q26 92 120 92q78 0 144 -95
q69 -93 116 -93q32 0 59 29q26 31 26 57z" />
    <glyph glyph-name="g" unicode="g" horiz-adv-x="1065" 
d="M1027 869q0 38 -15 42q-10 1 -24 2t-31 -1q-27 -2 -49.5 -3t-40.5 -1q-30 0 -70.5 8.5t-90.5 27.5q-97 36 -185 36q-173 0 -276 -102q-103 -100 -103 -240q0 -92 47 -170q47 -80 133 -119q-166 -142 -166 -226q0 -52 99 -114q-192 -192 -192 -272q0 -74 130 -136
q134 -63 289 -63q219 0 382 116q151 110 151 257q0 219 -333 226q-115 4 -187 7t-102 6q-59 6 -80 22q-18 18 -18 40q0 58 78 115q35 -9 71.5 -14.5t74.5 -5.5q169 0 276 96q100 93 99 226q0 115 -57 190h123q46 0 55 9q12 9 12 41zM709 602q0 -243 -178 -243q-97 0 -153 89
q-56 88 -56 234q0 124 53 189q50 60 127 60q98 0 152 -90q55 -89 55 -239zM940 -127q0 -81 -91 -142q-103 -66 -276 -66q-157 0 -260 43q-100 44 -100 109q0 72 99 183q111 -10 201.5 -15t158.5 -8q123 -4 165 -14q103 -21 103 -90z" />
    <glyph glyph-name="h" unicode="h" horiz-adv-x="1065" 
d="M1055 0v39q-92 0 -120 37q-23 30 -23 118v358q0 98 -8 169.5t-25 115.5q-53 143 -215 143q-184 0 -315 -196v696h-50l-286 -114l16 -38q19 9 38 12.5t37 3.5q70 0 70 -143v-1007q0 -88 -24 -118q-30 -37 -121 -37v-39h471v39q-100 0 -130 32q-21 29 -21 123v524
q119 137 236 137q109 0 139 -104q14 -49 14 -199v-358q0 -95 -30 -125q-33 -30 -123 -30v-39h470z" />
    <glyph glyph-name="i" unicode="i" horiz-adv-x="592" 
d="M418 1277v0q0 43 -30 74q-30 30 -75 30q-42 0 -74 -30q-32 -26 -32 -74q0 -46 30 -76q33 -30 76 -30q46 0 76 30q29 29 29 76zM545 0v39q-90 0 -117 30q-28 29 -28 125v786h-45l-289 -115l14 -37q49 17 74 17q72 0 72 -140v-511q0 -94 -29 -125q-27 -30 -117 -30v-39h465
z" />
    <glyph glyph-name="j" unicode="j" horiz-adv-x="592" 
d="M416 1277v0q0 44 -33 74q-31 33 -74 33q-42 0 -74 -33q-32 -29 -32 -74q0 -46 30 -76q33 -30 76 -30q46 0 77 32q30 32 30 74zM400 20v960h-45l-289 -115l11 -37q84 30 117 3q32 -27 32 -250v-680q0 -142 -10 -188q-21 -91 -87 -91q-37 0 -83 46q-69 66 -123 66
q-36 0 -62 -26q-25 -25 -25 -64q3 -38 45 -69q54 -37 142 -37q171 0 270 117q107 126 107 365z" />
    <glyph glyph-name="k" unicode="k" horiz-adv-x="1065" 
d="M1078 0v39q-77 0 -90 8q-59 34 -77 52q-18 16 -55 60t-94 114l-250 312l250 223q72 63 123 84q57 25 145 29v33h-415v-33q74 -6 74 -54q0 -31 -98 -115l-241 -203v931h-48l-288 -114l20 -38q20 9 37.5 12.5t31.5 3.5q26 0 41 -14q17 -14 23 -54q5 -43 5 -199v-868
q0 -111 -28 -140q-27 -30 -130 -30v-39h488v39q-101 0 -129 35q-23 26 -23 142v310l292 -369q48 -59 37 -94q-10 -24 -64 -24v-39h463z" />
    <glyph glyph-name="l" unicode="l" horiz-adv-x="592" 
d="M548 0v39q-99 0 -126 35q-29 38 -29 142v1264h-44l-288 -114l19 -38q70 27 110 2q18 -15 23 -50q6 -48 6 -199v-865q0 -107 -27 -142q-28 -35 -112 -35v-39h468z" />
    <glyph glyph-name="m" unicode="m" horiz-adv-x="1659" 
d="M1650 0v39q-87 0 -114 34q-29 33 -29 143v412q0 352 -253 352q-84 0 -153 -39q-79 -45 -180 -162q-45 201 -242 201q-80 0 -144 -38q-77 -41 -186 -163v201h-46l-289 -115l17 -37q46 17 72 17q53 0 66 -69q5 -37 5 -195v-365q0 -115 -27 -146q-26 -31 -116 -31v-39h471
v39q-97 0 -124 30q-29 28 -29 147v512q122 131 243 131q163 0 163 -231v-412q0 -106 -17 -134q-28 -43 -139 -43v-39h484v39q-104 0 -132 37q-23 33 -23 140v512q131 129 246 129q159 0 159 -229v-412q0 -107 -22 -139q-26 -38 -133 -38v-39h472z" />
    <glyph glyph-name="n" unicode="n" horiz-adv-x="1065" 
d="M1062 0v39q-99 0 -127 43q-21 32 -21 134v407q0 357 -250 357q-153 0 -319 -199v199h-43l-292 -115l17 -37q76 31 112 3q31 -28 31 -260v-355q0 -114 -27 -145q-26 -32 -116 -32v-39h473v39q-105 0 -135 41q-20 29 -20 136v502q121 134 246 134q83 0 115 -57
q35 -61 35 -190v-389q0 -112 -26 -146q-26 -31 -130 -31v-39h477z" />
    <glyph glyph-name="o" unicode="o" horiz-adv-x="1065" 
d="M992 493v0q0 210 -128 348q-132 139 -331 139q-206 0 -339 -161q-123 -149 -123 -351t129 -351q130 -148 323 -148q218 0 352 170q117 150 117 354zM798 415v0q0 -369 -232 -369q-135 0 -220 151q-81 144 -81 356q0 190 77 285q61 76 158 76q135 0 216 -142
q82 -139 82 -357z" />
    <glyph glyph-name="p" unicode="p" horiz-adv-x="1065" 
d="M994 512v0q0 202 -100 335q-101 133 -256 133q-176 0 -308 -225v223h-38l-298 -119l12 -35q74 30 113 4q26 -19 31 -47q4 -20 4 -109v-902q0 -123 -25 -152q-27 -33 -142 -36v-40h505v40q-109 3 -137 39q-25 31 -25 146v289q99 -87 228 -87q191 0 316 160
q120 155 120 383zM828 415v0q0 -173 -76 -279q-75 -103 -199 -103q-86 0 -143 44q-56 48 -70 107q-10 40 -10 152v358q80 87 113 114q54 44 110 44q122 0 193 -104q82 -115 82 -333z" />
    <glyph glyph-name="q" unicode="q" horiz-adv-x="1065" 
d="M1070 -458v40q-99 0 -128 32q-28 33 -28 140v1226h-36q-38 -22 -68.5 -38.5t-51.5 -27.5q-64 66 -196 66q-211 0 -352 -153q-140 -153 -140 -392q0 -213 113 -342q103 -124 243 -124q151 0 315 197v-412q0 -113 -30 -143q-29 -29 -126 -29v-40h485zM741 230v0
q-100 -113 -206 -113q-123 0 -203 99q-86 106 -86 295q0 190 84 298q75 99 199 99q212 0 212 -229v-449z" />
    <glyph glyph-name="r" unicode="r" horiz-adv-x="729" 
d="M725 865v0q0 49 -39 82q-36 33 -95 33q-129 0 -246 -214v214h-42l-294 -115l10 -37q68 30 120 3q31 -38 31 -246v-369q0 -116 -28 -147q-28 -30 -123 -30v-39h493v39q-97 0 -134 47q-33 39 -33 136v459q86 161 138 161q23 0 66 -37q45 -36 83 -36q37 0 66 29q27 30 27 67
z" />
    <glyph glyph-name="s" unicode="s" horiz-adv-x="831" 
d="M755 240v0q0 181 -220 285l-153 71q-160 75 -156 199q5 126 184 126q195 0 258 -265h36v324h-36q-18 -38 -47 -38q-4 0 -25.5 5.5t-57.5 13.5q-73 19 -123 19q-147 0 -229 -72q-82 -71 -82 -183q0 -89 53 -154q53 -67 203 -143q150 -79 196 -129q46 -53 45 -125
q-3 -57 -46 -100q-44 -41 -119 -41q-106 0 -181 74q-83 79 -112 219h-34v-340h34q21 47 37 47q20 -3 113 -34q84 -30 143 -30q127 0 223 81q96 82 96 190z" />
    <glyph glyph-name="t" unicode="t" horiz-adv-x="592" 
d="M595 174h-42q-39 -89 -117 -85q-94 1 -94 157v635h224v73h-224v313h-30q-65 -146 -119 -212q-94 -109 -177 -141v-33h153v-659q0 -253 187 -253q70 0 134 50q71 55 105 155z" />
    <glyph glyph-name="u" unicode="u" horiz-adv-x="1065" 
d="M1068 89l-14 35q-39 -15 -84 -15q-63 0 -63 143v702h-329v-40q88 -3 117 -26q37 -31 37 -113v-542q-134 -134 -239 -134q-157 0 -157 217v638h-336v-40q96 0 129 -29q33 -28 33 -119v-426q0 -371 246 -371q70 0 140 41q35 20 80.5 61t103.5 101v-203h47z" />
    <glyph glyph-name="v" unicode="v" horiz-adv-x="1065" 
d="M1048 914v40h-312v-40q84 0 101 -25q18 -28 -18 -113l-223 -546l-221 525q-20 48 -20 83q0 76 81 76h32v40h-452v-40q56 -8 73 -16q57 -36 94 -122l342 -807h43l339 820q27 69 63 105q23 17 78 20z" />
    <glyph glyph-name="w" unicode="w" horiz-adv-x="1540" 
d="M1522 914v40h-302v-40q100 0 100 -53q0 -32 -23 -90l-199 -525l-217 548q-10 17 -10 37q0 41 24 60q24 18 106 23v40h-456v-40q66 -3 87 -16q43 -28 64 -86l55 -141l-206 -448l-205 548q-8 23 -11.5 42.5t-3.5 35.5q0 32 17 46q15 16 73 19v40h-402v-40q64 -10 94 -40
q14 -13 28 -39t29 -64l308 -802h39l275 612l239 -612h43l318 825q43 110 136 120z" />
    <glyph glyph-name="x" unicode="x" horiz-adv-x="1065" 
d="M1041 0v39q-75 3 -99 27q-31 32 -62 70t-62 81l-237 341l128 176q79 107 122 141q45 36 109 39v40h-322v-40q76 0 76 -49q0 -15 -13 -34l-142 -206l-136 213q-5 9 -5 26q0 55 80 50v40h-449v-40q72 -5 107 -29q44 -31 119 -139l180 -263l-202 -266q-40 -53 -68.5 -88.5
t-48.5 -52.5q-40 -36 -79 -37v-39h312v39q-94 3 -94 61q0 25 15 46l208 276l197 -290q10 -17 10 -33q0 -60 -94 -60v-39h450z" />
    <glyph glyph-name="y" unicode="y" horiz-adv-x="1065" 
d="M1054 914v40h-310v-40q72 0 88 -22q28 -41 -13 -113l-213 -527l-231 480q-35 72 -35 113q0 69 95 69h23v40h-445v-40q63 -4 114 -63q23 -27 56 -95l342 -717l-67 -166q-65 -158 -145 -158q-5 0 -61 19q-28 8 -49 13.5t-34 5.5q-108 0 -108 -95q0 -50 41 -84
q42 -36 101 -36q92 0 180 76q87 74 142 206l387 951q37 86 68 117q26 22 74 26z" />
    <glyph glyph-name="z" unicode="z" horiz-adv-x="947" 
d="M912 914v40h-799l-6 -265h40q15 149 83 178q41 14 133 14h313l-633 -842v-39h841l11 292h-36q-15 -121 -37 -160q-12 -24 -53 -43q-37 -19 -148 -19h-348z" />
    <glyph glyph-name="braceleft" unicode="{" horiz-adv-x="1018" 
d="M805 -459v37q-232 56 -232 275q0 25 6.5 60t16.5 81q23 91 23 143q0 268 -284 374q284 105 284 368q0 25 -5.5 61.5t-17.5 83.5q-10 48 -16.5 83.5t-6.5 60.5q0 216 232 275v37q-153 -17 -266 -124q-121 -117 -121 -261q0 -62 24 -176q12 -56 17.5 -95.5t5.5 -62.5
q0 -90 -82 -156q-72 -60 -156 -67v-55q44 -4 82.5 -21.5t73.5 -46.5q82 -69 82 -159q0 -22 -5.5 -59.5t-17.5 -90.5q-24 -108 -24 -166q0 -150 117 -267q115 -115 270 -132z" />
    <glyph glyph-name="bar" unicode="|" horiz-adv-x="426" 
d="M256 -462v1942h-87v-1942h87z" />
    <glyph glyph-name="braceright" unicode="}" horiz-adv-x="1018" 
d="M791 483v55q-84 7 -156 67q-82 67 -82 156q0 23 6.5 62.5t18.5 95.5q23 117 23 176q0 145 -122 261q-113 107 -266 124v-37q232 -58 232 -275q0 -52 -23 -144q-22 -99 -22 -145q0 -263 285 -368q-285 -106 -285 -374q0 -25 6 -60.5t16 -82.5q23 -88 23 -141
q0 -220 -232 -275v-37q156 17 270 132q118 115 118 267q0 56 -23 166q-12 53 -18.5 90.5t-6.5 59.5q0 88 82 159q35 29 74 46.5t82 21.5z" />
    <glyph glyph-name="asciitilde" unicode="~" horiz-adv-x="1160" 
d="M1120 656l-60 78q-93 -185 -223 -185q-51 0 -238 79q-186 80 -263 80q-101 0 -180 -79q-53 -53 -115 -167l58 -76q59 97 90 130q60 66 137 66q71 0 245 -77q173 -76 256 -76q170 0 293 227z" />
    <glyph glyph-name="uni00A0" unicode="&#xa0;" horiz-adv-x="520" 
 />
    <glyph glyph-name="exclamdown" unicode="&#xa1;" horiz-adv-x="709" 
d="M471 895q0 -55 -38 -83.5t-79 -28.5q-40 0 -77 30t-37 82q0 50 34 85t80 35q35 0 76 -28.5t41 -91.5zM473 -313q0 -70 -35 -108t-86 -38q-38 0 -77 35t-39 121q0 12 0.5 30.5t3.5 40.5l93 842h42l90 -842q8 -67 8 -81z" />
    <glyph glyph-name="cent" unicode="&#xa2;" horiz-adv-x="1066" 
d="M905 377l29 -16q-18 -114 -77 -202.5t-143 -139t-177 -50.5q-40 0 -76 8.5t-70 22.5q-16 -48 -32 -93t-38 -104l-71 -196h-75l157 426q-89 62 -145 175t-56 267q0 151 62 264.5t165.5 176.5t227.5 63q23 0 44 -1.5t42 -6.5l147 408h74l-154 -427q42 -16 78 -47
q93 -72 93 -153q0 -36 -24 -62t-74 -26q-21 0 -46.5 7t-45 32.5t-24.5 82.5q0 20 -6 33l-231 -637q32 -22 70 -34.5t81 -12.5q87 0 160 47t135 195zM301 565q0 -96 25.5 -183t76.5 -146q1 0 23.5 60.5t53.5 146.5l87 239q22 59 38.5 105.5t35.5 102.5q-18 10 -39 16t-51 6
q-118 0 -184 -99.5t-66 -247.5z" />
    <glyph glyph-name="sterling" unicode="&#xa3;" horiz-adv-x="1066" 
d="M1017 315q-9 -79 -45 -157.5t-99.5 -130t-155.5 -51.5q-65 0 -113.5 19t-99.5 56.5t-125 91.5q-13 -27 -39 -66.5t-64.5 -70t-91.5 -30.5q-67 0 -94 42t-27 91q0 67 30.5 101.5t70.5 47t68 12.5q33 0 54.5 -2.5t35.5 -5.5q8 80 0 189t-19 235h-202v99h202q-4 79 -9 129.5
t-5 77.5q0 155 60 254t150 147t178 48q80 0 139 -31t91 -80t32 -102q0 -31 -25 -59t-55 -28q-33 0 -58 29t-25 93q0 47 -29.5 83.5t-96.5 36.5q-82 0 -135.5 -63t-53.5 -230q0 -34 3 -82.5t7 -96t7.5 -82.5t4.5 -44h269v-99h-269q0 -24 1 -89t-11.5 -156.5t-52.5 -196.5
q101 -34 182.5 -60t155.5 -26q83 0 127.5 29.5t64.5 69t27 69.5zM310 177q-10 8 -32.5 18.5t-56.5 10.5q-49 0 -74 -25.5t-25 -63.5q0 -43 21.5 -61.5t49.5 -18.5q41 0 71 38t46 102z" />
    <glyph glyph-name="currency" unicode="&#xa4;" 
d="M1433 711l-242 241q53 64 78 142t25 160q0 83 -28 165.5t-78 144.5l245 244l-84 84l-249 -249q-60 52 -137.5 79t-157.5 27q-82 0 -163 -26.5t-144 -76.5l-246 246l-85 -84l246 -246q-55 -61 -81 -145t-26 -164q0 -82 25.5 -159.5t77.5 -141.5l-242 -241l85 -85l241 242
q65 -55 144.5 -82.5t167.5 -27.5q80 0 159.5 27.5t142.5 82.5l242 -242zM1161 1254v0q0 -98 -47.5 -180.5t-128 -132.5t-180.5 -50t-183.5 48.5t-133 130.5t-49.5 183q0 102 49 184t132 130.5t185 48.5q98 0 179 -50t129 -132t48 -180z" />
    <glyph glyph-name="yen" unicode="&#xa5;" horiz-adv-x="1066" 
d="M1045 367h-424v-114q0 -58 3.5 -102t22.5 -67q19 -22 52 -32t58 -10h42v-42h-537v42h35q35 0 68.5 8.5t56.5 35.5q17 19 18.5 66.5t1.5 100.5v114h-423v75h423v150l-14 37h-409v76h374l-221 517q-19 44 -38 74t-39 44q-18 16 -41 23t-52 9v38h461v-38q-37 -2 -59.5 -7
t-44.5 -19q-34 -22 -23 -48.5t20 -52.5l222 -540l221 525q11 26 20 63t-20 57q-19 13 -41.5 17t-52.5 5v38h361v-38q-64 0 -93 -26q-20 -17 -42 -50.5t-45 -84.5l-227 -506h386v-76h-416l-8 -19v-168h424v-75z" />
    <glyph glyph-name="brokenbar" unicode="&#xa6;" horiz-adv-x="707" 
d="M405 688h-104v820h104v-820zM405 -406h-104v819h104v-819z" />
    <glyph glyph-name="section" unicode="&#xa7;" horiz-adv-x="1066" 
d="M903 500q0 -96 -40.5 -166.5t-94 -117t-94.5 -71.5q24 -26 53.5 -62.5t51.5 -86t22 -115.5q0 -89 -41 -156t-108.5 -104t-147.5 -37q-59 0 -118.5 26.5t-99.5 79t-40 128.5q0 47 26 69.5t54 22.5q47 0 63.5 -34.5t16.5 -54.5q0 -22 -10 -58t-10 -58q0 -40 41.5 -60
t84.5 -20q48 0 89.5 26t67 65.5t25.5 79.5q0 67 -34.5 120.5t-83.5 96t-95 75.5q-148 108 -233.5 210t-85.5 226q0 95 41 165t95 117t93 71q-21 26 -51.5 64.5t-54 90.5t-23.5 116q0 101 50.5 166t120 96t124.5 31q68 0 128 -27.5t98 -79t38 -123.5q0 -43 -23.5 -69
t-58.5 -26q-37 0 -59.5 26.5t-22.5 54.5q0 15 7.5 45t7.5 54q0 43 -29.5 71.5t-85.5 28.5q-85 0 -132.5 -55.5t-47.5 -126.5q0 -89 55.5 -148t130.5 -116q51 -39 110 -85.5t111.5 -101.5t85.5 -120.5t33 -142.5zM752 546q-27 44 -75.5 89.5t-101 87.5t-94 74t-55.5 47
q-52 -30 -99.5 -82.5t-60 -124t39.5 -158.5q41 -68 105.5 -121.5t127.5 -98t100 -86.5q53 35 100.5 88t58.5 124.5t-46 160.5z" />
    <glyph glyph-name="dieresis" unicode="&#xa8;" horiz-adv-x="637" 
d="M637 1277q0 -43 -31.5 -75t-75.5 -32q-43 0 -74.5 33t-31.5 74q0 40 33 73t73 33q44 0 75.5 -31.5t31.5 -74.5zM211 1277q0 -43 -31.5 -75t-75.5 -32q-41 0 -72.5 33t-31.5 74q0 40 32 73t72 33q44 0 75.5 -31.5t31.5 -74.5z" />
    <glyph glyph-name="copyright" unicode="&#xa9;" horiz-adv-x="1619" 
d="M1549 705q0 -156 -57.5 -290t-159.5 -235t-235.5 -157t-286.5 -56t-286.5 55.5t-235.5 155t-159.5 234t-57.5 293.5q0 173 63 309.5t169 232t238 146t269 50.5q156 0 290.5 -56.5t235 -157.5t157 -235t56.5 -289zM1484 705q0 142 -52.5 264.5t-145.5 214.5t-215 143.5
t-261 51.5q-124 0 -244 -46.5t-217 -134.5t-154.5 -212.5t-57.5 -280.5q0 -145 53.5 -268t146.5 -213.5t215 -140.5t258 -50q134 0 255.5 49.5t215.5 139.5t148.5 213t54.5 270zM1212 446q-72 -103 -170 -156.5t-229 -53.5q-130 0 -239.5 58.5t-175.5 162.5t-66 241
q0 154 73.5 262t192 164.5t252.5 56.5q67 0 110.5 -12t72 -24t48.5 -12q30 0 38 16.5t14 31.5h42l19 -291h-38q-10 30 -30 71t-56 80.5t-92 65.5t-138 26q-158 0 -247 -110.5t-89 -292.5q0 -218 95.5 -323.5t250.5 -105.5q206 0 325 168z" />
    <glyph glyph-name="ordfeminine" unicode="&#xaa;" horiz-adv-x="679" 
d="M677 920q-85 -93 -163 -93q-32 0 -56 19.5t-24 73.5q-60 -39 -94.5 -59t-60.5 -27t-62 -7q-73 0 -118.5 40.5t-45.5 105.5q0 42 27.5 80t109.5 77.5t244 86.5v22q0 83 -31.5 117t-97.5 34q-46 0 -73 -20.5t-30 -50.5l2 -36q2 -28 -16 -43.5t-45 -15.5q-63 0 -63 59
q0 67 76 104.5t174 37.5q99 0 148 -23.5t65 -67t16 -102.5v-196q0 -40 0.5 -65.5t3.5 -33.5q3 -32 33 -32q12 0 26.5 8.5t54.5 42.5v-36zM664 680h-603v45h603v-45zM434 962v219q-116 -38 -170 -68.5t-69.5 -57t-15.5 -54.5q0 -42 31 -72t74 -32q29 -1 66.5 16.5t83.5 48.5z
" />
    <glyph glyph-name="guillemotleft" unicode="&#xab;" horiz-adv-x="1066" 
d="M998 -8h-59l-411 491l411 488h59l-255 -488zM526 -8h-57l-403 491l403 488h57l-254 -488z" />
    <glyph glyph-name="logicalnot" unicode="&#xac;" horiz-adv-x="1573" 
d="M1420 621v542h-1266v-141h1124v-401h142z" />
    <glyph glyph-name="uni00AD" unicode="&#xad;" horiz-adv-x="709" 
d="M623 398v158h-537v-158h537z" />
    <glyph glyph-name="registered" unicode="&#xae;" horiz-adv-x="1619" 
d="M1549 705q0 -156 -57.5 -290t-159.5 -235t-235.5 -157t-286.5 -56t-286.5 55.5t-235.5 155t-159.5 234t-57.5 293.5q0 173 63 309.5t169 232t238 146t269 50.5q156 0 290.5 -56.5t235 -157.5t157 -235t56.5 -289zM1484 705q0 142 -52.5 264.5t-145.5 214.5t-215 143.5
t-261 51.5q-124 0 -244 -46.5t-217 -134.5t-154.5 -212.5t-57.5 -280.5q0 -145 53.5 -268t146.5 -213.5t215 -140.5t258 -50q134 0 255.5 49.5t215.5 139.5t148.5 213t54.5 270zM1226 260h-194l-304 420h-81v-322q0 -17 10.5 -29.5t21.5 -20.5q19 -13 91 -13v-35h-382v35
q26 0 51 3.5t40 23.5q13 15 15 44.5t2 69.5v543v63t-2 30q-4 10 -10.5 19.5t-17.5 16.5q-18 13 -65 13v38h402q149 0 229 -69t80 -164q0 -78 -40 -125t-93.5 -71.5t-94.5 -35.5l215 -309q21 -31 38 -48t33 -29q19 -10 56 -13v-35zM946 914q0 79 -56.5 138.5t-154.5 59.5
q-40 0 -88 -13v-374q34 0 84 4t99.5 21.5t82.5 56t33 107.5z" />
    <glyph glyph-name="macron" unicode="&#xaf;" horiz-adv-x="668" 
d="M668 1170h-668v115h668v-115z" />
    <glyph glyph-name="degree" unicode="&#xb0;" 
d="M1057 1786v0q0 72 -34.5 130.5t-93 93.5t-130.5 35q-71 0 -129.5 -35t-93 -93.5t-34.5 -130.5q0 -71 34.5 -129.5t93 -93t129.5 -34.5q72 0 130.5 34.5t93 93t34.5 129.5zM964 1786v0q0 -68 -48 -115.5t-117 -47.5q-68 0 -115.5 47.5t-47.5 115.5q0 69 47.5 117t115.5 48
q69 0 117 -48t48 -117z" />
    <glyph glyph-name="plusminus" unicode="&#xb1;" horiz-adv-x="2049" 
d="M1639 733h-552v-368h-125v368h-552v128h552v369h125v-369h552v-128zM1639 0h-1229v126h1229v-126z" />
    <glyph glyph-name="uni00B2" unicode="&#xb2;" horiz-adv-x="737" 
d="M676 961l-69 -155h-575v22q125 98 216 176.5t143 140.5q102 125 102 223q0 70 -35.5 108.5t-81.5 54t-77 15.5q-67 0 -111 -25.5t-68 -58t-33 -55.5h-26q5 28 18.5 67t43.5 76.5t81.5 62.5t132.5 25q70 0 134 -26t105 -74t41 -115q0 -64 -35.5 -126t-84 -114.5
t-89.5 -88.5q-88 -82 -144 -131t-78 -66h256q74 0 110.5 5t56 19t42.5 40h25z" />
    <glyph glyph-name="uni00B3" unicode="&#xb3;" horiz-adv-x="737" 
d="M615 1076v0q0 -125 -103.5 -204.5t-282.5 -79.5q-81 0 -116 12.5t-43.5 28t-8.5 24.5q0 18 17 30t40 12q36 0 64.5 -13.5t61 -27.5t81.5 -14q65 0 124 43.5t59 115.5q0 65 -28.5 104.5t-71 61t-85 30.5t-71 10l-28.5 1v18q14 2 49.5 10.5t76 29.5t69.5 57t29 93
q0 53 -27 82.5t-64.5 42t-70.5 12.5q-114 0 -188 -101l-23 11q14 26 42 67t81 73.5t141 32.5q95 0 143.5 -32.5t66 -72.5t17.5 -61q0 -90 -132 -183q32 -10 74.5 -34t74.5 -67t32 -112z" />
    <glyph glyph-name="acute" unicode="&#xb4;" horiz-adv-x="730" 
d="M730 1383q0 -31 -26 -56.5t-60 -47.5l-308 -196h-85l295 298q28 28 61.5 48.5t67.5 20.5q17 0 36 -22.5t19 -44.5z" />
    <glyph glyph-name="mu" unicode="&#xb5;" horiz-adv-x="1207" 
d="M1127 215q-10 -132 -68.5 -189t-138.5 -57q-61 0 -105 41.5t-58 157.5q-88 -101 -166.5 -150t-160.5 -49q-23 0 -73.5 13t-88.5 77v-49q0 -65 12.5 -130.5t24.5 -123.5t12 -100q0 -51 -30 -84t-68 -33q-35 0 -63 32t-28 81q0 48 10 85.5t23.5 88.5t23.5 138t10 235v751
h170v-553q0 -151 18 -204q12 -39 46 -67.5t83 -28.5q119 0 245 141v712h173v-676q0 -92 9.5 -131.5t25.5 -48t34 -8.5q33 0 52.5 27t33.5 102h42z" />
    <glyph glyph-name="paragraph" unicode="&#xb6;" 
d="M1353 1682v65h-588q-95 0 -190 -21.5t-173.5 -71.5t-125.5 -136t-47 -215q0 -140 50 -228t133 -135.5t184.5 -66t204.5 -21.5v-1244h86v2074h220v-2074h90v2074h156z" />
    <glyph glyph-name="periodcentered" unicode="&#xb7;" 
d="M798 1193v0q-90 0 -157 -65q-66 -65 -66 -160q0 -94 66 -157q65 -66 157 -66q95 0 160 66q66 63 66 157q0 95 -66 160q-67 65 -160 65z" />
    <glyph glyph-name="cedilla" unicode="&#xb8;" horiz-adv-x="446" 
d="M447 -280q0 -57 -40.5 -97t-103.5 -61t-130 -21q-43 0 -88 10t-85 23l32 68q27 -11 65.5 -19t65.5 -8q124 0 124 90q0 37 -21.5 58t-56.5 24q-25 2 -49.5 -1t-45.5 -9l-18 12l101 237h76l-66 -165q29 6 62 6q68 0 123 -35t55 -112z" />
    <glyph glyph-name="uni00B9" unicode="&#xb9;" horiz-adv-x="737" 
d="M558 806h-368v22q61 0 87.5 9.5t32.5 35.5t6 77v440q0 53 -3 93t-30.5 53t-99.5 -14l-10 20l237 96h26v-688q0 -52 5 -78t30.5 -35t86.5 -9v-22z" />
    <glyph glyph-name="ordmasculine" unicode="&#xba;" horiz-adv-x="781" 
d="M721 1135q0 -73 -37.5 -146t-112 -121.5t-186.5 -48.5q-96 0 -169.5 41.5t-115 110t-41.5 148.5q0 77 40 147t114.5 114.5t177.5 44.5q99 0 173 -39t115.5 -104.5t41.5 -146.5zM711 680h-640v45h640v-45zM582 1085q0 128 -57.5 215t-155.5 87q-39 0 -78 -19.5t-65.5 -67
t-26.5 -130.5q0 -82 27 -151.5t75.5 -111.5t114.5 -42q74 0 120 49t46 171z" />
    <glyph glyph-name="guillemotright" unicode="&#xbb;" horiz-adv-x="1066" 
d="M999 481l-403 -489h-57l254 489l-254 490h57zM537 481l-411 -489h-59l255 489l-255 490h59z" />
    <glyph glyph-name="onequarter" unicode="&#xbc;" horiz-adv-x="1578" 
d="M1406 219h-114v-227h-104v227h-363v78l399 568h68v-559h114v-87zM1328 1437l-963 -1452h-103l970 1452h96zM510 546h-324v23q54 0 77 9t28.5 36t5.5 82v460q0 57 -2.5 99.5t-26.5 56t-89 -17.5l-7 23l207 101h22v-722q0 -55 4.5 -82t27.5 -36t77 -9v-23zM1188 306v426
l-300 -426h300z" />
    <glyph glyph-name="onehalf" unicode="&#xbd;" horiz-adv-x="1578" 
d="M1437 156l-63 -164h-504v23q225 205 314 331q44 65 67.5 123.5t23.5 112.5q0 73 -31 113.5t-71 56.5t-67 16q-60 0 -99 -26t-60 -59.5t-29 -57.5h-21q3 28 15 68.5t38 79.5t72 65.5t117 26.5q61 0 117 -27t91.5 -77.5t35.5 -121.5q0 -66 -30.5 -131t-73 -120.5
t-78.5 -94.5q-154 -168 -195 -205h224q65 0 96.5 5t48.5 20t37 43h25zM1241 1437l-895 -1452h-102l897 1452h100zM479 546h-323v23q53 0 76 9t28.5 36t5.5 82v460q0 57 -2 99.5t-26 56t-89 -17.5l-8 23l207 101h23v-722q0 -55 4.5 -82t27 -36t76.5 -9v-23z" />
    <glyph glyph-name="threequarters" unicode="&#xbe;" horiz-adv-x="1578" 
d="M1433 219h-114v-227h-105v227h-362v78l398 568h69v-559h114v-87zM1374 1437l-962 -1452h-104l971 1452h95zM631 827q0 -131 -90.5 -215t-247.5 -84q-71 0 -102 14t-38.5 31t-7.5 26q0 19 16 30.5t36 11.5q30 0 54.5 -14.5t54 -28.5t73.5 -14q56 0 108 45.5t52 120.5
q0 85 -38 130.5t-87 63.5t-87 21l-38 3v20q12 2 43.5 11t66 30.5t59.5 59.5t25 97q0 55 -23.5 86.5t-55.5 44.5t-60 13q-98 0 -165 -104l-21 10q13 27 37 70t69.5 77.5t123.5 34.5q84 0 127 -34t58 -76t15 -65q0 -89 -115 -192q27 -10 64 -35.5t65.5 -71t28.5 -117.5z
M1214 306v426l-300 -426h300z" />
    <glyph glyph-name="questiondown" unicode="&#xbf;" horiz-adv-x="946" 
d="M600 895q0 -51 -36 -84t-83 -33q-43 0 -78.5 32.5t-35.5 84.5q0 57 37 87t77 30q45 0 82 -30.5t37 -86.5zM844 -160q0 -77 -43.5 -145.5t-127 -111t-204.5 -42.5q-112 0 -200 39.5t-138.5 113t-50.5 175.5q0 79 27 143.5t65 114.5t70 86q73 83 121.5 145t74 129.5
t28.5 164.5h46q-6 -125 -39 -233.5t-102 -223.5q-32 -55 -65.5 -141.5t-33.5 -168.5q0 -104 38 -167t94 -91t110 -28q100 0 148.5 45.5t48.5 91.5q0 29 -16.5 61.5t-33 63t-16.5 53.5q0 44 28.5 67t56.5 23q14 0 41.5 -12.5t50 -48t22.5 -103.5z" />
    <glyph glyph-name="Agrave" unicode="&#xc0;" horiz-adv-x="1530" 
d="M1514 0v39q-87 6 -133 45q-23 22 -50.5 68t-57.5 118l-489 1173h-38l-496 -1163q-27 -63 -50.5 -107t-45.5 -69q-52 -59 -138 -65v-39h446v39q-165 15 -165 93q0 33 35 115l97 226h546l85 -203q41 -97 41 -141q0 -88 -141 -90v-39h554zM947 549h-485l246 572zM948 1535
h-86l-307 196q-26 17 -59.5 40.5t-33.5 50.5q0 80 67 80q26 0 60.5 -20t63.5 -49z" />
    <glyph glyph-name="Aacute" unicode="&#xc1;" horiz-adv-x="1530" 
d="M1514 0v39q-87 6 -133 45q-23 22 -50.5 68t-57.5 118l-489 1173h-38l-496 -1163q-27 -63 -50.5 -107t-45.5 -69q-52 -59 -138 -65v-39h446v39q-165 15 -165 93q0 33 35 115l97 226h546l85 -203q41 -97 41 -141q0 -88 -141 -90v-39h554zM947 549h-485l246 572zM1062 1835
q0 -31 -26 -56.5t-60 -47.5l-308 -196h-85l295 298q28 28 61.5 48.5t67.5 20.5q17 0 36 -22.5t19 -44.5z" />
    <glyph glyph-name="Acircumflex" unicode="&#xc2;" horiz-adv-x="1530" 
d="M1514 0v39q-87 6 -133 45q-23 22 -50.5 68t-57.5 118l-489 1173h-38l-496 -1163q-27 -63 -50.5 -107t-45.5 -69q-52 -59 -138 -65v-39h446v39q-165 15 -165 93q0 33 35 115l97 226h546l85 -203q41 -97 41 -141q0 -88 -141 -90v-39h554zM947 549h-485l246 572zM1099 1535
h-74l-261 223l-260 -223h-74l268 358h134z" />
    <glyph glyph-name="Atilde" unicode="&#xc3;" horiz-adv-x="1530" 
d="M1514 0v39q-87 6 -133 45q-23 22 -50.5 68t-57.5 118l-489 1173h-38l-496 -1163q-27 -63 -50.5 -107t-45.5 -69q-52 -59 -138 -65v-39h446v39q-165 15 -165 93q0 33 35 115l97 226h546l85 -203q41 -97 41 -141q0 -88 -141 -90v-39h554zM947 549h-485l246 572zM1062 1849
h56q-6 -56 -37 -108.5t-80 -85.5t-109 -33q-58 0 -95 15t-65.5 34t-62 34t-85.5 15q-41 0 -78.5 -31.5t-41.5 -66.5h-55q23 92 78.5 154.5t157.5 62.5q54 0 94.5 -23.5t81 -47.5t94.5 -24q51 0 92.5 27.5t54.5 77.5z" />
    <glyph glyph-name="Adieresis" unicode="&#xc4;" horiz-adv-x="1530" 
d="M1514 0v39q-87 6 -133 45q-23 22 -50.5 68t-57.5 118l-489 1173h-38l-496 -1163q-27 -63 -50.5 -107t-45.5 -69q-52 -59 -138 -65v-39h446v39q-165 15 -165 93q0 33 35 115l97 226h546l85 -203q41 -97 41 -141q0 -88 -141 -90v-39h554zM947 549h-485l246 572zM1083 1729
q0 -43 -31.5 -75t-75.5 -32q-43 0 -74.5 33t-31.5 74q0 40 33 73t73 33q44 0 75.5 -31.5t31.5 -74.5zM657 1729q0 -43 -31.5 -75t-75.5 -32q-41 0 -72.5 33t-31.5 74q0 40 32 73t72 33q44 0 75.5 -31.5t31.5 -74.5z" />
    <glyph glyph-name="Aring" unicode="&#xc5;" horiz-adv-x="1530" 
d="M1514 0v39q-87 6 -133 45q-23 22 -50.5 68t-57.5 118l-489 1173h-38l-496 -1163q-27 -63 -50.5 -107t-45.5 -69q-52 -59 -138 -65v-39h446v39q-165 15 -165 93q0 33 35 115l97 226h546l85 -203q41 -97 41 -141q0 -88 -141 -90v-39h554zM947 549h-485l246 572zM962 1735
q0 -90 -61.5 -145t-135.5 -55t-137 55t-63 145q0 89 60 144t140 55q74 0 135.5 -53.5t61.5 -145.5zM891 1735q0 57 -39 92t-87 35q-52 0 -90.5 -35t-38.5 -92q0 -60 40 -93.5t89 -33.5q53 0 89.5 37.5t36.5 89.5z" />
    <glyph glyph-name="AE" unicode="&#xc6;" horiz-adv-x="1895" 
d="M1834 356l-111 -356h-1059v39h51q87 0 129 51q24 30 24 160v296h-411l-129 -243q-58 -107 -72 -157.5t28 -76.5q36 -23 134 -30v-39h-442v39q49 0 77 18q30 19 69 68t99 159l431 801q80 149 80 202q0 35 -35.5 57.5t-145.5 27.5v38h1156l16 -307h-33q-21 96 -44.5 145.5
t-74.5 67.5t-157 18h-346v-558h268q122 0 169 45.5t57 157.5h36v-487h-36q-10 83 -29 127.5t-63.5 61.5t-133.5 17h-268v-468q0 -41 0.5 -70.5t7.5 -40.5q8 -15 29.5 -29.5t82.5 -14.5h188q119 0 194 29t127 91t100 161h37zM868 624v710l-372 -710h372z" />
    <glyph glyph-name="Ccedilla" unicode="&#xc7;" horiz-adv-x="1422" 
d="M1347 330l-31 23q-121 -172 -229 -236q-99 -57 -245 -57q-243 0 -383 159q-146 167 -146 463q0 170 36 299.5t106 219.5q131 169 357 169q351 0 471 -406h33l-33 479h-36q-25 -99 -87 -99l-29.5 12.5t-89.5 37.5q-117 49 -246 49q-319 0 -522 -225q-197 -220 -197 -533
q0 -302 180 -502q194 -216 506 -216q379 0 585 363zM935 -280q0 -57 -40.5 -97t-103.5 -61t-130 -21q-43 0 -88 10t-85 23l32 68q27 -11 65.5 -19t65.5 -8q124 0 124 90q0 37 -21.5 58t-56.5 24q-25 2 -49.5 -1t-45.5 -9l-18 12l101 237h76l-66 -165q29 6 62 6q68 0 123 -35
t55 -112z" />
    <glyph glyph-name="Egrave" unicode="&#xc8;" horiz-adv-x="1301" 
d="M1254 355h-43q-101 -179 -167 -226q-76 -53 -242 -53h-239q-87 0 -108 46q-10 20 -10 111v466h310q132 0 176 -50q31 -35 47 -159h39v490h-39q-16 -121 -47 -156q-43 -48 -176 -48h-310v558h389q166 0 220 -68q18 -24 53 -163h41l-17 307h-1085v-36h48q84 0 125 -44
q27 -28 27 -163v-917q0 -143 -40 -177t-112 -34h-48v-39h1085zM833 1535h-86l-307 196q-26 17 -59.5 40.5t-33.5 50.5q0 80 67 80q26 0 60.5 -20t63.5 -49z" />
    <glyph glyph-name="Eacute" unicode="&#xc9;" horiz-adv-x="1301" 
d="M1254 355h-43q-101 -179 -167 -226q-76 -53 -242 -53h-239q-87 0 -108 46q-10 20 -10 111v466h310q132 0 176 -50q31 -35 47 -159h39v490h-39q-16 -121 -47 -156q-43 -48 -176 -48h-310v558h389q166 0 220 -68q18 -24 53 -163h41l-17 307h-1085v-36h48q84 0 125 -44
q27 -28 27 -163v-917q0 -143 -40 -177t-112 -34h-48v-39h1085zM947 1835q0 -31 -26 -56.5t-60 -47.5l-308 -196h-85l295 298q28 28 61.5 48.5t67.5 20.5q17 0 36 -22.5t19 -44.5z" />
    <glyph glyph-name="Ecircumflex" unicode="&#xca;" horiz-adv-x="1301" 
d="M1254 355h-43q-101 -179 -167 -226q-76 -53 -242 -53h-239q-87 0 -108 46q-10 20 -10 111v466h310q132 0 176 -50q31 -35 47 -159h39v490h-39q-16 -121 -47 -156q-43 -48 -176 -48h-310v558h389q166 0 220 -68q18 -24 53 -163h41l-17 307h-1085v-36h48q84 0 125 -44
q27 -28 27 -163v-917q0 -143 -40 -177t-112 -34h-48v-39h1085zM984 1535h-74l-261 223l-260 -223h-74l268 358h134z" />
    <glyph glyph-name="Edieresis" unicode="&#xcb;" horiz-adv-x="1301" 
d="M1254 355h-43q-101 -179 -167 -226q-76 -53 -242 -53h-239q-87 0 -108 46q-10 20 -10 111v466h310q132 0 176 -50q31 -35 47 -159h39v490h-39q-16 -121 -47 -156q-43 -48 -176 -48h-310v558h389q166 0 220 -68q18 -24 53 -163h41l-17 307h-1085v-36h48q84 0 125 -44
q27 -28 27 -163v-917q0 -143 -40 -177t-112 -34h-48v-39h1085zM968 1729q0 -43 -31.5 -75t-75.5 -32q-43 0 -74.5 33t-31.5 74q0 40 33 73t73 33q44 0 75.5 -31.5t31.5 -74.5zM542 1729q0 -43 -31.5 -75t-75.5 -32q-41 0 -72.5 33t-31.5 74q0 40 32 73t72 33
q44 0 75.5 -31.5t31.5 -74.5z" />
    <glyph glyph-name="Igrave" unicode="&#xcc;" horiz-adv-x="709" 
d="M658 0v39h-52q-40 0 -75 17q-38 15 -52 33q-24 36 -24 161v913q0 124 27 160q39 51 124 51h52v36h-605v-36h51q85 0 128 -54q23 -28 23 -157v-913q0 -129 -25 -160q-42 -51 -126 -51h-51v-39h605zM539 1535h-86l-307 196q-26 17 -59.5 40.5t-33.5 50.5q0 80 67 80
q26 0 60.5 -20t63.5 -49z" />
    <glyph glyph-name="Iacute" unicode="&#xcd;" horiz-adv-x="709" 
d="M658 0v39h-52q-40 0 -75 17q-38 15 -52 33q-24 36 -24 161v913q0 124 27 160q39 51 124 51h52v36h-605v-36h51q85 0 128 -54q23 -28 23 -157v-913q0 -129 -25 -160q-42 -51 -126 -51h-51v-39h605zM653 1835q0 -31 -26 -56.5t-60 -47.5l-308 -196h-85l295 298
q28 28 61.5 48.5t67.5 20.5q17 0 36 -22.5t19 -44.5z" />
    <glyph glyph-name="Icircumflex" unicode="&#xce;" horiz-adv-x="709" 
d="M658 0v39h-52q-40 0 -75 17q-38 15 -52 33q-24 36 -24 161v913q0 124 27 160q39 51 124 51h52v36h-605v-36h51q85 0 128 -54q23 -28 23 -157v-913q0 -129 -25 -160q-42 -51 -126 -51h-51v-39h605zM690 1535h-74l-261 223l-260 -223h-74l268 358h134z" />
    <glyph glyph-name="Idieresis" unicode="&#xcf;" horiz-adv-x="709" 
d="M658 0v39h-52q-40 0 -75 17q-38 15 -52 33q-24 36 -24 161v913q0 124 27 160q39 51 124 51h52v36h-605v-36h51q85 0 128 -54q23 -28 23 -157v-913q0 -129 -25 -160q-42 -51 -126 -51h-51v-39h605zM674 1729q0 -43 -31.5 -75t-75.5 -32q-43 0 -74.5 33t-31.5 74
q0 40 33 73t73 33q44 0 75.5 -31.5t31.5 -74.5zM248 1729q0 -43 -31.5 -75t-75.5 -32q-41 0 -72.5 33t-31.5 74q0 40 32 73t72 33q44 0 75.5 -31.5t31.5 -74.5z" />
    <glyph glyph-name="Eth" unicode="&#xd0;" horiz-adv-x="1539" 
d="M850 705h-813v118h813v-118zM1457 714v0q0 341 -217 530q-185 166 -629 166h-574v-36h53q76 0 122 -46q25 -32 25 -165v-913q0 -115 -21 -154q-37 -57 -126 -57h-53v-39h631q388 0 599 209q190 189 190 505zM1221 704v0q0 -291 -159 -462q-158 -173 -401 -171
q-74 0 -222 32v1198q56 17 109.5 24.5t103.5 7.5q252 0 410 -170q159 -169 159 -459z" />
    <glyph glyph-name="Ntilde" unicode="&#xd1;" horiz-adv-x="1539" 
d="M1509 1374v36h-491v-36h47q82 0 123 -46q30 -30 30 -161v-814l-862 1057h-343v-36q104 0 171 -63q17 -21 33.5 -42.5t32.5 -42.5v-980q0 -122 -24 -152q-34 -55 -127 -55h-50v-39h492v39h-49q-87 0 -123 43q-29 34 -29 164v867l933 -1136h37v1190q0 120 23 153
q35 54 127 54h49zM1058 1849h56q-6 -56 -37 -108.5t-80 -85.5t-109 -33q-58 0 -95 15t-65.5 34t-62 34t-85.5 15q-41 0 -78.5 -31.5t-41.5 -66.5h-55q23 92 78.5 154.5t157.5 62.5q54 0 94.5 -23.5t81 -47.5t94.5 -24q51 0 92.5 27.5t54.5 77.5z" />
    <glyph glyph-name="Ograve" unicode="&#xd2;" horiz-adv-x="1539" 
d="M1456 714v0q0 314 -198 522q-196 207 -477 207q-302 0 -504 -209q-203 -209 -203 -525q0 -327 201 -537q196 -205 487 -205q294 0 495 213q199 216 199 534zM1220 686v0q-3 -321 -129 -489q-120 -158 -330 -156q-213 3 -332 189q-116 181 -116 485t117 482
q119 174 328 173q466 -5 462 -684zM948 1535h-86l-307 196q-26 17 -59.5 40.5t-33.5 50.5q0 80 67 80q26 0 60.5 -20t63.5 -49z" />
    <glyph glyph-name="Oacute" unicode="&#xd3;" horiz-adv-x="1539" 
d="M1456 714v0q0 314 -198 522q-196 207 -477 207q-302 0 -504 -209q-203 -209 -203 -525q0 -327 201 -537q196 -205 487 -205q294 0 495 213q199 216 199 534zM1220 686v0q-3 -321 -129 -489q-120 -158 -330 -156q-213 3 -332 189q-116 181 -116 485t117 482
q119 174 328 173q466 -5 462 -684zM1062 1835q0 -31 -26 -56.5t-60 -47.5l-308 -196h-85l295 298q28 28 61.5 48.5t67.5 20.5q17 0 36 -22.5t19 -44.5z" />
    <glyph glyph-name="Ocircumflex" unicode="&#xd4;" horiz-adv-x="1539" 
d="M1456 714v0q0 314 -198 522q-196 207 -477 207q-302 0 -504 -209q-203 -209 -203 -525q0 -327 201 -537q196 -205 487 -205q294 0 495 213q199 216 199 534zM1220 686v0q-3 -321 -129 -489q-120 -158 -330 -156q-213 3 -332 189q-116 181 -116 485t117 482
q119 174 328 173q466 -5 462 -684zM1099 1535h-74l-261 223l-260 -223h-74l268 358h134z" />
    <glyph glyph-name="Otilde" unicode="&#xd5;" horiz-adv-x="1539" 
d="M1456 714v0q0 314 -198 522q-196 207 -477 207q-302 0 -504 -209q-203 -209 -203 -525q0 -327 201 -537q196 -205 487 -205q294 0 495 213q199 216 199 534zM1220 686v0q-3 -321 -129 -489q-120 -158 -330 -156q-213 3 -332 189q-116 181 -116 485t117 482
q119 174 328 173q466 -5 462 -684zM1062 1849h56q-6 -56 -37 -108.5t-80 -85.5t-109 -33q-58 0 -95 15t-65.5 34t-62 34t-85.5 15q-41 0 -78.5 -31.5t-41.5 -66.5h-55q23 92 78.5 154.5t157.5 62.5q54 0 94.5 -23.5t81 -47.5t94.5 -24q51 0 92.5 27.5t54.5 77.5z" />
    <glyph glyph-name="Odieresis" unicode="&#xd6;" horiz-adv-x="1539" 
d="M1456 714v0q0 314 -198 522q-196 207 -477 207q-302 0 -504 -209q-203 -209 -203 -525q0 -327 201 -537q196 -205 487 -205q294 0 495 213q199 216 199 534zM1220 686v0q-3 -321 -129 -489q-120 -158 -330 -156q-213 3 -332 189q-116 181 -116 485t117 482
q119 174 328 173q466 -5 462 -684zM1083 1729q0 -43 -31.5 -75t-75.5 -32q-43 0 -74.5 33t-31.5 74q0 40 33 73t73 33q44 0 75.5 -31.5t31.5 -74.5zM657 1729q0 -43 -31.5 -75t-75.5 -32q-41 0 -72.5 33t-31.5 74q0 40 32 73t72 33q44 0 75.5 -31.5t31.5 -74.5z" />
    <glyph glyph-name="multiply" unicode="&#xd7;" horiz-adv-x="2049" 
d="M1578 141l-80 -80l-474 476l-473 -476l-80 80l472 473l-472 473l80 80l473 -475l474 475l80 -80l-472 -473z" />
    <glyph glyph-name="Oslash" unicode="&#xd8;" horiz-adv-x="1539" 
d="M781 1443q118 0 223.5 -39t192.5 -113l133 163l62 -44l-139 -172q92 -97 146.5 -231.5t54.5 -293.5q0 -160 -52 -296t-146 -237t-220 -157t-274 -56q-117 0 -225.5 36t-197.5 108l-130 -159l-63 48l134 164q-97 99 -152 237.5t-55 307.5q0 158 53.5 292t149.5 233
t225 154t280 55zM758 1369q-212 0 -328.5 -175t-116.5 -479q0 -115 17 -216.5t60 -200.5l719 886q-59 91 -146 138t-205 47zM760 40q135 0 238.5 69t162 212t58.5 365q0 122 -14.5 222t-55.5 202l-720 -887q58 -87 141.5 -135t189.5 -48z" />
    <glyph glyph-name="Ugrave" unicode="&#xd9;" horiz-adv-x="1539" 
d="M1517 1374v36h-500v-36h53q81 0 121 -46q29 -32 29 -165v-572q0 -315 -99 -408q-133 -127 -337 -127q-235 0 -319 176q-49 107 -49 313v618q0 115 27 155q34 56 105 56h53v36h-570v-36h32q99 0 130 -60q23 -40 23 -151v-554q0 -286 59 -405q120 -237 494 -237
q153 0 252 37q45 17 87.5 48t82.5 71q123 126 123 458v573q0 60 6.5 96t16.5 51q51 73 127 73h53zM958 1535h-86l-307 196q-26 17 -59.5 40.5t-33.5 50.5q0 80 67 80q26 0 60.5 -20t63.5 -49z" />
    <glyph glyph-name="Uacute" unicode="&#xda;" horiz-adv-x="1539" 
d="M1517 1374v36h-500v-36h53q81 0 121 -46q29 -32 29 -165v-572q0 -315 -99 -408q-133 -127 -337 -127q-235 0 -319 176q-49 107 -49 313v618q0 115 27 155q34 56 105 56h53v36h-570v-36h32q99 0 130 -60q23 -40 23 -151v-554q0 -286 59 -405q120 -237 494 -237
q153 0 252 37q45 17 87.5 48t82.5 71q123 126 123 458v573q0 60 6.5 96t16.5 51q51 73 127 73h53zM1072 1835q0 -31 -26 -56.5t-60 -47.5l-308 -196h-85l295 298q28 28 61.5 48.5t67.5 20.5q17 0 36 -22.5t19 -44.5z" />
    <glyph glyph-name="Ucircumflex" unicode="&#xdb;" horiz-adv-x="1539" 
d="M1517 1374v36h-500v-36h53q81 0 121 -46q29 -32 29 -165v-572q0 -315 -99 -408q-133 -127 -337 -127q-235 0 -319 176q-49 107 -49 313v618q0 115 27 155q34 56 105 56h53v36h-570v-36h32q99 0 130 -60q23 -40 23 -151v-554q0 -286 59 -405q120 -237 494 -237
q153 0 252 37q45 17 87.5 48t82.5 71q123 126 123 458v573q0 60 6.5 96t16.5 51q51 73 127 73h53zM1109 1535h-74l-261 223l-260 -223h-74l268 358h134z" />
    <glyph glyph-name="Udieresis" unicode="&#xdc;" horiz-adv-x="1539" 
d="M1517 1374v36h-500v-36h53q81 0 121 -46q29 -32 29 -165v-572q0 -315 -99 -408q-133 -127 -337 -127q-235 0 -319 176q-49 107 -49 313v618q0 115 27 155q34 56 105 56h53v36h-570v-36h32q99 0 130 -60q23 -40 23 -151v-554q0 -286 59 -405q120 -237 494 -237
q153 0 252 37q45 17 87.5 48t82.5 71q123 126 123 458v573q0 60 6.5 96t16.5 51q51 73 127 73h53zM1093 1729q0 -43 -31.5 -75t-75.5 -32q-43 0 -74.5 33t-31.5 74q0 40 33 73t73 33q44 0 75.5 -31.5t31.5 -74.5zM667 1729q0 -43 -31.5 -75t-75.5 -32q-41 0 -72.5 33
t-31.5 74q0 40 32 73t72 33q44 0 75.5 -31.5t31.5 -74.5z" />
    <glyph glyph-name="Yacute" unicode="&#xdd;" horiz-adv-x="1539" 
d="M1509 1374v36h-492v-36q93 0 126 -50q17 -29 17 -53q0 -46 -63 -146l-279 -434l-293 453q-63 97 -63 137q0 47 44 72q38 21 86 21h31v36h-604v-36q68 0 143 -58q14 -10 27 -24.5t28 -34.5q7 -10 21.5 -31.5t36.5 -54.5l386 -590v-335q0 -118 -22 -152q-40 -55 -127 -55
h-49v-39h599v39h-45q-88 0 -125 43q-31 35 -31 164v353l343 535q69 109 104 147q84 93 173 93h28zM1060 1835q0 -31 -26 -56.5t-60 -47.5l-308 -196h-85l295 298q28 28 61.5 48.5t67.5 20.5q17 0 36 -22.5t19 -44.5z" />
    <glyph glyph-name="Thorn" unicode="&#xde;" horiz-adv-x="1184" 
d="M1104 707q0 -77 -31 -145.5t-81 -119.5q-37 -36 -85 -64.5t-139.5 -44.5t-257.5 -16h-74v-64q0 -132 37 -175q35 -39 123 -39h43v-39h-600v39h36q100 0 140 56q21 32 21 155v904q0 59 -4 95t-9 47q-9 32 -47.5 54t-97.5 22h-39v38h600v-38h-43q-34 0 -80.5 -16.5
t-60.5 -59.5q-12 -33 -15.5 -59t-3.5 -78v-69h78q125 0 201.5 -7.5t125.5 -25t93 -47.5q72 -49 121 -124.5t49 -178.5zM863 705q0 76 -30.5 140t-87.5 105q-27 20 -50.5 33.5t-69 20t-140.5 6.5h-49v-622h47q139 0 222 42t120.5 114t37.5 161z" />
    <glyph glyph-name="germandbls" unicode="&#xdf;" horiz-adv-x="1066" 
d="M998 438q0 -119 -42.5 -221.5t-121 -165.5t-187.5 -63q-86 0 -142.5 47t-58.5 121q-1 40 21.5 65t62.5 25q41 0 63 -22.5t23 -59.5q2 -14 -5 -37.5t-7 -33.5q0 -43 60 -49q70 0 112.5 71t42.5 211q0 213 -73.5 340t-231.5 140v59q104 0 163.5 61.5t59.5 221.5
q0 141 -55.5 201.5t-144.5 60.5q-54 0 -97 -25.5t-67.5 -96.5t-24.5 -210v-1078h-311v39q81 1 108.5 37.5t27.5 155.5v774q0 254 95.5 363.5t277.5 109.5q165 0 265.5 -93.5t100.5 -244.5q0 -53 -14.5 -106t-57.5 -99.5t-127 -81.5q135 -38 210 -140.5t75 -275.5z" />
    <glyph glyph-name="agrave" unicode="&#xe0;" horiz-adv-x="946" 
d="M945 137v60q-83 -84 -113 -84q-37 0 -46 51q-3 22 -4 63t-1 103v326q0 168 -56 236q-70 88 -263 88q-140 0 -243 -63q-106 -68 -106 -175q0 -100 87 -100q90 0 87 99l-2 61q3 50 42 83q36 33 102 33q92 0 134 -57q43 -58 43 -190v-39q-317 -110 -434 -210
q-96 -81 -96 -196q0 -111 63 -177q62 -68 164 -68q71 0 127 29q43 23 176 127q0 -156 112 -156q110 0 227 156zM606 204v0q-131 -106 -208 -104q-63 3 -103 52q-43 47 -43 123q0 78 57 135q75 72 297 161v-367zM647 1083h-86l-307 196q-26 17 -59.5 40.5t-33.5 50.5
q0 80 67 80q26 0 60.5 -20t63.5 -49z" />
    <glyph glyph-name="aacute" unicode="&#xe1;" horiz-adv-x="946" 
d="M945 137v60q-83 -84 -113 -84q-37 0 -46 51q-3 22 -4 63t-1 103v326q0 168 -56 236q-70 88 -263 88q-140 0 -243 -63q-106 -68 -106 -175q0 -100 87 -100q90 0 87 99l-2 61q3 50 42 83q36 33 102 33q92 0 134 -57q43 -58 43 -190v-39q-317 -110 -434 -210
q-96 -81 -96 -196q0 -111 63 -177q62 -68 164 -68q71 0 127 29q43 23 176 127q0 -156 112 -156q110 0 227 156zM606 204v0q-131 -106 -208 -104q-63 3 -103 52q-43 47 -43 123q0 78 57 135q75 72 297 161v-367zM761 1383q0 -31 -26 -56.5t-60 -47.5l-308 -196h-85l295 298
q28 28 61.5 48.5t67.5 20.5q17 0 36 -22.5t19 -44.5z" />
    <glyph glyph-name="acircumflex" unicode="&#xe2;" horiz-adv-x="946" 
d="M945 137v60q-83 -84 -113 -84q-37 0 -46 51q-3 22 -4 63t-1 103v326q0 168 -56 236q-70 88 -263 88q-140 0 -243 -63q-106 -68 -106 -175q0 -100 87 -100q90 0 87 99l-2 61q3 50 42 83q36 33 102 33q92 0 134 -57q43 -58 43 -190v-39q-317 -110 -434 -210
q-96 -81 -96 -196q0 -111 63 -177q62 -68 164 -68q71 0 127 29q43 23 176 127q0 -156 112 -156q110 0 227 156zM606 204v0q-131 -106 -208 -104q-63 3 -103 52q-43 47 -43 123q0 78 57 135q75 72 297 161v-367zM798 1083h-74l-261 223l-260 -223h-74l268 358h134z" />
    <glyph glyph-name="atilde" unicode="&#xe3;" horiz-adv-x="946" 
d="M945 137v60q-83 -84 -113 -84q-37 0 -46 51q-3 22 -4 63t-1 103v326q0 168 -56 236q-70 88 -263 88q-140 0 -243 -63q-106 -68 -106 -175q0 -100 87 -100q90 0 87 99l-2 61q3 50 42 83q36 33 102 33q92 0 134 -57q43 -58 43 -190v-39q-317 -110 -434 -210
q-96 -81 -96 -196q0 -111 63 -177q62 -68 164 -68q71 0 127 29q43 23 176 127q0 -156 112 -156q110 0 227 156zM606 204v0q-131 -106 -208 -104q-63 3 -103 52q-43 47 -43 123q0 78 57 135q75 72 297 161v-367zM761 1397h56q-6 -56 -37 -108.5t-80 -85.5t-109 -33
q-58 0 -95 15t-65.5 34t-62 34t-85.5 15q-41 0 -78.5 -31.5t-41.5 -66.5h-55q23 92 78.5 154.5t157.5 62.5q54 0 94.5 -23.5t81 -47.5t94.5 -24q51 0 92.5 27.5t54.5 77.5z" />
    <glyph glyph-name="adieresis" unicode="&#xe4;" horiz-adv-x="946" 
d="M945 137v60q-83 -84 -113 -84q-37 0 -46 51q-3 22 -4 63t-1 103v326q0 168 -56 236q-70 88 -263 88q-140 0 -243 -63q-106 -68 -106 -175q0 -100 87 -100q90 0 87 99l-2 61q3 50 42 83q36 33 102 33q92 0 134 -57q43 -58 43 -190v-39q-317 -110 -434 -210
q-96 -81 -96 -196q0 -111 63 -177q62 -68 164 -68q71 0 127 29q43 23 176 127q0 -156 112 -156q110 0 227 156zM606 204v0q-131 -106 -208 -104q-63 3 -103 52q-43 47 -43 123q0 78 57 135q75 72 297 161v-367zM782 1277q0 -43 -31.5 -75t-75.5 -32q-43 0 -74.5 33t-31.5 74
q0 40 33 73t73 33q44 0 75.5 -31.5t31.5 -74.5zM356 1277q0 -43 -31.5 -75t-75.5 -32q-41 0 -72.5 33t-31.5 74q0 40 32 73t72 33q44 0 75.5 -31.5t31.5 -74.5z" />
    <glyph glyph-name="aring" unicode="&#xe5;" horiz-adv-x="946" 
d="M945 137v60q-83 -84 -113 -84q-37 0 -46 51q-3 22 -4 63t-1 103v326q0 168 -56 236q-70 88 -263 88q-140 0 -243 -63q-106 -68 -106 -175q0 -100 87 -100q90 0 87 99l-2 61q3 50 42 83q36 33 102 33q92 0 134 -57q43 -58 43 -190v-39q-317 -110 -434 -210
q-96 -81 -96 -196q0 -111 63 -177q62 -68 164 -68q71 0 127 29q43 23 176 127q0 -156 112 -156q110 0 227 156zM606 204v0q-131 -106 -208 -104q-63 3 -103 52q-43 47 -43 123q0 78 57 135q75 72 297 161v-367zM661 1283q0 -90 -61.5 -145t-135.5 -55t-137 55t-63 145
q0 89 60 144t140 55q74 0 135.5 -53.5t61.5 -145.5zM590 1283q0 57 -39 92t-87 35q-52 0 -90.5 -35t-38.5 -92q0 -60 40 -93.5t89 -33.5q53 0 89.5 37.5t36.5 89.5z" />
    <glyph glyph-name="ae" unicode="&#xe6;" horiz-adv-x="1422" 
d="M1357 332q-25 -94 -73 -177t-124.5 -134.5t-188.5 -51.5q-48 0 -95.5 9.5t-99 45t-112.5 113.5q-30 -25 -81.5 -65t-121 -71.5t-153.5 -31.5q-64 0 -117 32t-84.5 86.5t-31.5 121.5q0 96 50.5 160t163 120.5t297.5 131.5v94q0 115 -41.5 161t-112.5 46
q-67 0 -106.5 -32.5t-41.5 -77.5q-2 -73 -11 -107t-26 -45t-45 -15q-50 0 -71.5 30t-21.5 70q0 52 37 106t114.5 91t198.5 37q129 0 194 -35.5t86 -89.5q52 69 119.5 97t160.5 28q154 0 244.5 -101.5t93.5 -287.5h-595q0 -127 11 -209.5t42 -132.5q41 -73 104 -97.5
t109 -24.5q16 0 50.5 4t78 24.5t87.5 68t79 133.5zM1157 657q-2 135 -56 192.5t-135 57.5q-80 0 -140.5 -61t-63.5 -189h395zM635 193q-22 41 -35.5 116.5t-13.5 151.5v92q-78 -29 -155 -65t-128 -88.5t-51 -131.5q0 -76 48.5 -130t117.5 -56q40 -1 85.5 20.5t131.5 90.5z
" />
    <glyph glyph-name="ccedilla" unicode="&#xe7;" horiz-adv-x="946" 
d="M875 363l-28 15q-102 -242 -295 -242q-145 0 -230 130q-80 122 -80 300q0 149 67 249q70 97 183 97q136 0 146 -124t114 -124q99 0 99 88q0 103 -115 170q-100 58 -210 58q-188 0 -319 -139q-136 -145 -136 -365q0 -228 118 -367q116 -140 289 -140q142 0 256 111
q116 111 141 283zM697 -280q0 -57 -40.5 -97t-103.5 -61t-130 -21q-43 0 -88 10t-85 23l32 68q27 -11 65.5 -19t65.5 -8q124 0 124 90q0 37 -21.5 58t-56.5 24q-25 2 -49.5 -1t-45.5 -9l-18 12l101 237h76l-66 -165q29 6 62 6q68 0 123 -35t55 -112z" />
    <glyph glyph-name="egrave" unicode="&#xe8;" horiz-adv-x="946" 
d="M885 349l-33 20q-87 -230 -279 -227q-144 2 -243 120q-104 126 -104 333h659q0 177 -101 283q-104 104 -263 104q-195 0 -321 -138q-123 -141 -123 -379q0 -218 122 -358q121 -138 294 -138q156 0 268 120q103 110 124 260zM668 654h-442q10 117 80 187q67 67 156 67
q71 0 129 -49q77 -68 77 -205zM688 1083h-86l-307 196q-26 17 -59.5 40.5t-33.5 50.5q0 80 67 80q26 0 60.5 -20t63.5 -49z" />
    <glyph glyph-name="eacute" unicode="&#xe9;" horiz-adv-x="946" 
d="M885 349l-33 20q-87 -230 -279 -227q-144 2 -243 120q-104 126 -104 333h659q0 177 -101 283q-104 104 -263 104q-195 0 -321 -138q-123 -141 -123 -379q0 -218 122 -358q121 -138 294 -138q156 0 268 120q103 110 124 260zM668 654h-442q10 117 80 187q67 67 156 67
q71 0 129 -49q77 -68 77 -205zM802 1383q0 -31 -26 -56.5t-60 -47.5l-308 -196h-85l295 298q28 28 61.5 48.5t67.5 20.5q17 0 36 -22.5t19 -44.5z" />
    <glyph glyph-name="ecircumflex" unicode="&#xea;" horiz-adv-x="946" 
d="M885 349l-33 20q-87 -230 -279 -227q-144 2 -243 120q-104 126 -104 333h659q0 177 -101 283q-104 104 -263 104q-195 0 -321 -138q-123 -141 -123 -379q0 -218 122 -358q121 -138 294 -138q156 0 268 120q103 110 124 260zM668 654h-442q10 117 80 187q67 67 156 67
q71 0 129 -49q77 -68 77 -205zM839 1083h-74l-261 223l-260 -223h-74l268 358h134z" />
    <glyph glyph-name="edieresis" unicode="&#xeb;" horiz-adv-x="946" 
d="M885 349l-33 20q-87 -230 -279 -227q-144 2 -243 120q-104 126 -104 333h659q0 177 -101 283q-104 104 -263 104q-195 0 -321 -138q-123 -141 -123 -379q0 -218 122 -358q121 -138 294 -138q156 0 268 120q103 110 124 260zM668 654h-442q10 117 80 187q67 67 156 67
q71 0 129 -49q77 -68 77 -205zM823 1277q0 -43 -31.5 -75t-75.5 -32q-43 0 -74.5 33t-31.5 74q0 40 33 73t73 33q44 0 75.5 -31.5t31.5 -74.5zM397 1277q0 -43 -31.5 -75t-75.5 -32q-41 0 -72.5 33t-31.5 74q0 40 32 73t72 33q44 0 75.5 -31.5t31.5 -74.5z" />
    <glyph glyph-name="igrave" unicode="&#xec;" horiz-adv-x="592" 
d="M546 0h-466v39q52 0 77 6.5t40 25.5q14 18 21 47.5t7 96.5v367q0 128 -3.5 177.5t-24.5 67.5q-33 30 -117 0l-14 38l288 114h45v-764q0 -63 6 -95t19 -47q20 -23 42 -28.5t80 -5.5v-39zM490 1083h-86l-307 196q-26 17 -59.5 40.5t-33.5 50.5q0 80 67 80q26 0 60.5 -20
t63.5 -49z" />
    <glyph glyph-name="iacute" unicode="&#xed;" horiz-adv-x="592" 
d="M546 0h-466v39q52 0 77 6.5t40 25.5q14 18 21 47.5t7 96.5v367q0 128 -3.5 177.5t-24.5 67.5q-33 30 -117 0l-14 38l288 114h45v-764q0 -63 6 -95t19 -47q20 -23 42 -28.5t80 -5.5v-39zM604 1383q0 -31 -26 -56.5t-60 -47.5l-308 -196h-85l295 298q28 28 61.5 48.5
t67.5 20.5q17 0 36 -22.5t19 -44.5z" />
    <glyph glyph-name="icircumflex" unicode="&#xee;" horiz-adv-x="592" 
d="M546 0h-466v39q52 0 77 6.5t40 25.5q14 18 21 47.5t7 96.5v367q0 128 -3.5 177.5t-24.5 67.5q-33 30 -117 0l-14 38l288 114h45v-764q0 -63 6 -95t19 -47q20 -23 42 -28.5t80 -5.5v-39zM641 1083h-74l-261 223l-260 -223h-74l268 358h134z" />
    <glyph glyph-name="idieresis" unicode="&#xef;" horiz-adv-x="592" 
d="M546 0h-466v39q52 0 77 6.5t40 25.5q14 18 21 47.5t7 96.5v367q0 128 -3.5 177.5t-24.5 67.5q-33 30 -117 0l-14 38l288 114h45v-764q0 -63 6 -95t19 -47q20 -23 42 -28.5t80 -5.5v-39zM625 1277q0 -43 -31.5 -75t-75.5 -32q-43 0 -74.5 33t-31.5 74q0 40 33 73t73 33
q44 0 75.5 -31.5t31.5 -74.5zM199 1277q0 -43 -31.5 -75t-75.5 -32q-41 0 -72.5 33t-31.5 74q0 40 32 73t72 33q44 0 75.5 -31.5t31.5 -74.5z" />
    <glyph glyph-name="eth" unicode="&#xf0;" horiz-adv-x="1045" 
d="M988 492q0 -132 -55.5 -252t-160 -195.5t-252.5 -75.5q-126 0 -228 64t-162.5 175t-60.5 251q0 133 56.5 250t156 189.5t226.5 72.5q44 0 79.5 -7.5t96.5 -51.5q-41 84 -89.5 161t-107.5 144l-259 -141l-28 57l242 137q-45 46 -73.5 71.5t-55 45.5t-65.5 48l26 44
q63 -30 127 -70t131 -90l259 144l36 -57l-239 -136q192 -170 296 -374.5t104 -403.5zM795 391q0 237 -81.5 378t-215.5 141q-60 0 -114 -34t-87.5 -115t-34.5 -222q-1 -137 37 -249.5t107.5 -179t162.5 -66.5q97 0 161.5 81.5t64.5 265.5z" />
    <glyph glyph-name="ntilde" unicode="&#xf1;" horiz-adv-x="1066" 
d="M1062 0v39q-99 0 -127 43q-21 32 -21 134v407q0 357 -250 357q-153 0 -319 -199v199h-43l-292 -115l17 -37q76 31 112 3q31 -28 31 -260v-355q0 -114 -27 -145q-26 -32 -116 -32v-39h473v39q-105 0 -135 41q-20 29 -20 136v502q121 134 246 134q83 0 115 -57
q35 -61 35 -190v-389q0 -112 -26 -146q-26 -31 -130 -31v-39h477zM834 1397h56q-6 -56 -37 -108.5t-80 -85.5t-109 -33q-58 0 -95 15t-65.5 34t-62 34t-85.5 15q-41 0 -78.5 -31.5t-41.5 -66.5h-55q23 92 78.5 154.5t157.5 62.5q54 0 94.5 -23.5t81 -47.5t94.5 -24
q51 0 92.5 27.5t54.5 77.5z" />
    <glyph glyph-name="ograve" unicode="&#xf2;" horiz-adv-x="1066" 
d="M992 493v0q0 210 -128 348q-132 139 -331 139q-206 0 -339 -161q-123 -149 -123 -351t129 -351q130 -148 323 -148q218 0 352 170q117 150 117 354zM798 415v0q0 -369 -232 -369q-135 0 -220 151q-81 144 -81 356q0 190 77 285q61 76 158 76q135 0 216 -142
q82 -139 82 -357zM715 1083h-86l-307 196q-26 17 -59.5 40.5t-33.5 50.5q0 80 67 80q26 0 60.5 -20t63.5 -49z" />
    <glyph glyph-name="oacute" unicode="&#xf3;" horiz-adv-x="1066" 
d="M992 493v0q0 210 -128 348q-132 139 -331 139q-206 0 -339 -161q-123 -149 -123 -351t129 -351q130 -148 323 -148q218 0 352 170q117 150 117 354zM798 415v0q0 -369 -232 -369q-135 0 -220 151q-81 144 -81 356q0 190 77 285q61 76 158 76q135 0 216 -142
q82 -139 82 -357zM829 1383q0 -31 -26 -56.5t-60 -47.5l-308 -196h-85l295 298q28 28 61.5 48.5t67.5 20.5q17 0 36 -22.5t19 -44.5z" />
    <glyph glyph-name="ocircumflex" unicode="&#xf4;" horiz-adv-x="1066" 
d="M992 493v0q0 210 -128 348q-132 139 -331 139q-206 0 -339 -161q-123 -149 -123 -351t129 -351q130 -148 323 -148q218 0 352 170q117 150 117 354zM798 415v0q0 -369 -232 -369q-135 0 -220 151q-81 144 -81 356q0 190 77 285q61 76 158 76q135 0 216 -142
q82 -139 82 -357zM866 1083h-74l-261 223l-260 -223h-74l268 358h134z" />
    <glyph glyph-name="otilde" unicode="&#xf5;" horiz-adv-x="1066" 
d="M992 493v0q0 210 -128 348q-132 139 -331 139q-206 0 -339 -161q-123 -149 -123 -351t129 -351q130 -148 323 -148q218 0 352 170q117 150 117 354zM798 415v0q0 -369 -232 -369q-135 0 -220 151q-81 144 -81 356q0 190 77 285q61 76 158 76q135 0 216 -142
q82 -139 82 -357zM829 1397h56q-6 -56 -37 -108.5t-80 -85.5t-109 -33q-58 0 -95 15t-65.5 34t-62 34t-85.5 15q-41 0 -78.5 -31.5t-41.5 -66.5h-55q23 92 78.5 154.5t157.5 62.5q54 0 94.5 -23.5t81 -47.5t94.5 -24q51 0 92.5 27.5t54.5 77.5z" />
    <glyph glyph-name="odieresis" unicode="&#xf6;" horiz-adv-x="1066" 
d="M992 493v0q0 210 -128 348q-132 139 -331 139q-206 0 -339 -161q-123 -149 -123 -351t129 -351q130 -148 323 -148q218 0 352 170q117 150 117 354zM798 415v0q0 -369 -232 -369q-135 0 -220 151q-81 144 -81 356q0 190 77 285q61 76 158 76q135 0 216 -142
q82 -139 82 -357zM850 1277q0 -43 -31.5 -75t-75.5 -32q-43 0 -74.5 33t-31.5 74q0 40 33 73t73 33q44 0 75.5 -31.5t31.5 -74.5zM424 1277q0 -43 -31.5 -75t-75.5 -32q-41 0 -72.5 33t-31.5 74q0 40 32 73t72 33q44 0 75.5 -31.5t31.5 -74.5z" />
    <glyph glyph-name="divide" unicode="&#xf7;" horiz-adv-x="2049" 
d="M1148 945q0 -53 -36 -88.5t-88 -35.5q-51 0 -87 35.5t-36 88.5q0 50 36 86.5t87 36.5q52 0 88 -36.5t36 -86.5zM1639 551h-1229v128h1229v-128zM1148 284q0 -50 -36 -85t-88 -35q-51 0 -87 35t-36 85q0 53 36 88.5t87 35.5q52 0 88 -35.5t36 -88.5z" />
    <glyph glyph-name="oslash" unicode="&#xf8;" horiz-adv-x="1063" 
d="M992 494q0 -92 -29.5 -185t-88 -170t-147 -123.5t-205.5 -46.5q-98 0 -183 40q-60 28 -113 77l-140 -155l-49 45l145 160q-49 62 -78 141q-33 92 -33 189q0 96 31.5 187.5t91.5 165t145.5 117t192.5 43.5q104 0 187 -37q64 -29 117 -76l137 153l48 -46l-140 -155
q50 -58 77 -134q34 -91 34 -190zM717 769q-38 68 -93.5 106.5t-123.5 38.5q-54 0 -108.5 -32.5t-91 -111.5t-36.5 -217q0 -100 20 -195q6 -21 11.5 -41t12.5 -40l421 469q-3 7 -6 12.5t-6 10.5zM797 413q0 107 -21 198q-4 18 -9 35t-10 33l-419 -468l8 -15
q40 -69 95.5 -110.5t123.5 -41.5q104 0 168 82.5t64 286.5z" />
    <glyph glyph-name="ugrave" unicode="&#xf9;" horiz-adv-x="1066" 
d="M1068 89l-14 35q-39 -15 -84 -15q-63 0 -63 143v702h-329v-40q88 -3 117 -26q37 -31 37 -113v-542q-134 -134 -239 -134q-157 0 -157 217v638h-336v-40q96 0 129 -29q33 -28 33 -119v-426q0 -371 246 -371q70 0 140 41q35 20 80.5 61t103.5 101v-203h47zM718 1083h-86
l-307 196q-26 17 -59.5 40.5t-33.5 50.5q0 80 67 80q26 0 60.5 -20t63.5 -49z" />
    <glyph glyph-name="uacute" unicode="&#xfa;" horiz-adv-x="1066" 
d="M1068 89l-14 35q-39 -15 -84 -15q-63 0 -63 143v702h-329v-40q88 -3 117 -26q37 -31 37 -113v-542q-134 -134 -239 -134q-157 0 -157 217v638h-336v-40q96 0 129 -29q33 -28 33 -119v-426q0 -371 246 -371q70 0 140 41q35 20 80.5 61t103.5 101v-203h47zM832 1383
q0 -31 -26 -56.5t-60 -47.5l-308 -196h-85l295 298q28 28 61.5 48.5t67.5 20.5q17 0 36 -22.5t19 -44.5z" />
    <glyph glyph-name="ucircumflex" unicode="&#xfb;" horiz-adv-x="1066" 
d="M1068 89l-14 35q-39 -15 -84 -15q-63 0 -63 143v702h-329v-40q88 -3 117 -26q37 -31 37 -113v-542q-134 -134 -239 -134q-157 0 -157 217v638h-336v-40q96 0 129 -29q33 -28 33 -119v-426q0 -371 246 -371q70 0 140 41q35 20 80.5 61t103.5 101v-203h47zM869 1083h-74
l-261 223l-260 -223h-74l268 358h134z" />
    <glyph glyph-name="udieresis" unicode="&#xfc;" horiz-adv-x="1066" 
d="M1068 89l-14 35q-39 -15 -84 -15q-63 0 -63 143v702h-329v-40q88 -3 117 -26q37 -31 37 -113v-542q-134 -134 -239 -134q-157 0 -157 217v638h-336v-40q96 0 129 -29q33 -28 33 -119v-426q0 -371 246 -371q70 0 140 41q35 20 80.5 61t103.5 101v-203h47zM853 1277
q0 -43 -31.5 -75t-75.5 -32q-43 0 -74.5 33t-31.5 74q0 40 33 73t73 33q44 0 75.5 -31.5t31.5 -74.5zM427 1277q0 -43 -31.5 -75t-75.5 -32q-41 0 -72.5 33t-31.5 74q0 40 32 73t72 33q44 0 75.5 -31.5t31.5 -74.5z" />
    <glyph glyph-name="yacute" unicode="&#xfd;" horiz-adv-x="1066" 
d="M1054 914v40h-310v-40q72 0 88 -22q28 -41 -13 -113l-213 -527l-231 480q-35 72 -35 113q0 69 95 69h23v40h-445v-40q63 -4 114 -63q23 -27 56 -95l342 -717l-67 -166q-65 -158 -145 -158q-5 0 -61 19q-28 8 -49 13.5t-34 5.5q-108 0 -108 -95q0 -50 41 -84
q42 -36 101 -36q92 0 180 76q87 74 142 206l387 951q37 86 68 117q26 22 74 26zM870 1383q0 -31 -26 -56.5t-60 -47.5l-308 -196h-85l295 298q28 28 61.5 48.5t67.5 20.5q17 0 36 -22.5t19 -44.5z" />
    <glyph glyph-name="thorn" unicode="&#xfe;" horiz-adv-x="1045" 
d="M994 512q0 -149 -54 -271.5t-152.5 -196t-230.5 -75.5q-63 0 -111 13.5t-116 72.5v-287q0 -75 9.5 -113.5t43.5 -52.5t109 -18v-39h-500v39q74 4 109 15t46 49.5t11 123.5v1403q0 63 -3 93t-10.5 42t-22.5 20q-16 11 -40.5 14t-71.5 -16l-12 35l293 116h39v-724
q74 125 147.5 174.5t159.5 49.5q106 0 186 -61.5t125.5 -167.5t45.5 -238zM808 413q0 121 -31 215.5t-88.5 149t-135.5 54.5q-29 0 -55 -6.5t-63.5 -35.5t-104.5 -98v-357q0 -112 10 -151q14 -55 67.5 -102t145.5 -49q117 -1 186 101t69 279z" />
    <glyph glyph-name="ydieresis" unicode="&#xff;" horiz-adv-x="1066" 
d="M1054 914v40h-310v-40q72 0 88 -22q28 -41 -13 -113l-213 -527l-231 480q-35 72 -35 113q0 69 95 69h23v40h-445v-40q63 -4 114 -63q23 -27 56 -95l342 -717l-67 -166q-65 -158 -145 -158q-5 0 -61 19q-28 8 -49 13.5t-34 5.5q-108 0 -108 -95q0 -50 41 -84
q42 -36 101 -36q92 0 180 76q87 74 142 206l387 951q37 86 68 117q26 22 74 26zM891 1277q0 -43 -31.5 -75t-75.5 -32q-43 0 -74.5 33t-31.5 74q0 40 33 73t73 33q44 0 75.5 -31.5t31.5 -74.5zM465 1277q0 -43 -31.5 -75t-75.5 -32q-41 0 -72.5 33t-31.5 74q0 40 32 73
t72 33q44 0 75.5 -31.5t31.5 -74.5z" />
    <glyph glyph-name="dotlessi" unicode="&#x131;" horiz-adv-x="592" 
d="M546 0h-466v39q52 0 77 6.5t40 25.5q14 18 21 47.5t7 96.5v367q0 128 -3.5 177.5t-24.5 67.5q-33 30 -117 0l-14 38l288 114h45v-764q0 -63 6 -95t19 -47q20 -23 42 -28.5t80 -5.5v-39z" />
    <glyph glyph-name="OE" unicode="&#x152;" horiz-adv-x="1895" 
d="M1834 354l-113 -354h-504h-176q-6 0 -48.5 -2.5t-98 -5t-106 -5t-73.5 -2.5q-141 0 -258 55t-202 153t-131 228.5t-46 281.5q0 200 77.5 363.5t225 260t356.5 96.5q14 0 63.5 -2t140.5 -5q140 -6 276 -6h492l12 -307h-31q-13 60 -20 98.5t-24 56.5q-12 14 -26.5 31.5
t-58 31t-145.5 13.5h-266v-556h188q124 0 170 49q26 24 37 62t11 90h42v-490h-42q-7 128 -53 168q-41 41 -165 41h-188v-466q0 -70 8.5 -102.5t35 -42t78.5 -9.5h111q94 0 157.5 12.5t117.5 62.5q38 37 73 87t63 114h40zM948 354v729q0 139 -20 180q-40 94 -187 94
q-141 0 -235.5 -82t-141.5 -230.5t-47 -350.5q0 -117 22 -230.5t71 -205.5t129.5 -146.5t197.5 -54.5q156 0 193 101q18 44 18 196z" />
    <glyph glyph-name="oe" unicode="&#x153;" horiz-adv-x="1539" 
d="M1469 352q-38 -195 -129 -288t-226 -95q-98 -1 -171 49t-106 121q-61 -79 -141.5 -123.5t-193.5 -46.5q-121 -1 -219 60t-156 172t-58 260q0 159 58.5 275t158.5 179.5t224 63.5q109 0 191.5 -44t135.5 -120q103 166 292 166q161 0 252.5 -104t87.5 -281h-570
q-10 -209 71 -331t214 -122q81 0 143 49.5t108 176.5zM1264 664q0 56 -17 113.5t-57.5 96t-110.5 38.5q-60 0 -118.5 -60t-61.5 -188h365zM743 393q0 155 -29.5 274.5t-89.5 187t-153 67.5q-56 0 -103.5 -34.5t-75.5 -113.5t-28 -213q0 -145 32 -262.5t92 -186t142 -68.5
q92 0 152.5 77t60.5 272z" />
    <glyph glyph-name="Scaron" unicode="&#x160;" horiz-adv-x="1184" 
d="M1072 360v0q0 179 -151 294q-42 32 -109.5 73t-162.5 91q-105 57 -175 101t-105 78q-70 65 -70 147q0 89 73 153q71 64 176 64q155 0 263 -107q109 -105 129 -299h38v488h-38q-23 -80 -69 -80q-14 0 -123 40q-104 40 -203 40q-185 0 -298 -109q-111 -106 -111 -262
q0 -133 80 -221q79 -92 329 -233q203 -115 263 -169q77 -71 77 -170q0 -95 -76 -160q-81 -70 -204 -70q-163 0 -273 93q-124 106 -148 308h-37v-483h37q14 82 63 82q20 0 143 -40q125 -42 238 -42q190 0 319 115q125 116 125 278zM938 1893l-267 -358h-134l-268 358h74
l260 -219l261 219h74z" />
    <glyph glyph-name="scaron" unicode="&#x161;" horiz-adv-x="829" 
d="M755 240v0q0 181 -220 285l-153 71q-160 75 -156 199q5 126 184 126q195 0 258 -265h36v324h-36q-18 -38 -47 -38q-4 0 -25.5 5.5t-57.5 13.5q-73 19 -123 19q-147 0 -229 -72q-82 -71 -82 -183q0 -89 53 -154q53 -67 203 -143q150 -79 196 -129q46 -53 45 -125
q-3 -57 -46 -100q-44 -41 -119 -41q-106 0 -181 74q-83 79 -112 219h-34v-340h34q21 47 37 47q20 -3 113 -34q84 -30 143 -30q127 0 223 81q96 82 96 190zM765 1441l-267 -358h-134l-268 358h74l260 -219l261 219h74z" />
    <glyph glyph-name="Ydieresis" unicode="&#x178;" horiz-adv-x="1539" 
d="M1509 1374v36h-492v-36q93 0 126 -50q17 -29 17 -53q0 -46 -63 -146l-279 -434l-293 453q-63 97 -63 137q0 47 44 72q38 21 86 21h31v36h-604v-36q68 0 143 -58q14 -10 27 -24.5t28 -34.5q7 -10 21.5 -31.5t36.5 -54.5l386 -590v-335q0 -118 -22 -152q-40 -55 -127 -55
h-49v-39h599v39h-45q-88 0 -125 43q-31 35 -31 164v353l343 535q69 109 104 147q84 93 173 93h28zM1081 1729q0 -43 -31.5 -75t-75.5 -32q-43 0 -74.5 33t-31.5 74q0 40 33 73t73 33q44 0 75.5 -31.5t31.5 -74.5zM655 1729q0 -43 -31.5 -75t-75.5 -32q-41 0 -72.5 33
t-31.5 74q0 40 32 73t72 33q44 0 75.5 -31.5t31.5 -74.5z" />
    <glyph glyph-name="Zcaron" unicode="&#x17d;" horiz-adv-x="1301" 
d="M1243 373l-33 6q-26 -78 -53 -132.5t-56 -84.5q-76 -76 -223 -76h-579l927 1324h-1043l-29 -352h39q29 170 86 220q58 50 203 50h449l-902 -1289v-39h1148zM970 1893l-267 -358h-134l-268 358h74l260 -219l261 219h74z" />
    <glyph glyph-name="zcaron" unicode="&#x17e;" horiz-adv-x="946" 
d="M912 914v40h-799l-6 -265h40q15 149 83 178q41 14 133 14h313l-633 -842v-39h841l11 292h-36q-15 -121 -37 -160q-12 -24 -53 -43q-37 -19 -148 -19h-348zM812 1441l-267 -358h-134l-268 358h74l260 -219l261 219h74z" />
    <glyph glyph-name="florin" unicode="&#x192;" horiz-adv-x="709" 
d="M926 1301q0 -28 -24 -57.5t-60 -29.5q-40 -1 -66 27.5t-49.5 65.5t-56.5 65.5t-88 28.5q-66 0 -96.5 -39t-39 -123t-8.5 -218v-69h246v-75h-246v-873q0 -129 -30 -214t-76 -135t-96 -74.5t-92 -32t-62 -7.5q-91 0 -154 54t-63 125q0 27 23 56t57 29q42 0 62 -19t30 -46.5
t19.5 -55t29 -46.5t60.5 -19q75 0 96.5 90t21.5 291v877h-186v75h186v65q0 129 34.5 213.5t87.5 135t109.5 74.5t103 31.5t65.5 7.5q61 0 121 -24.5t100.5 -65t40.5 -88.5z" />
    <glyph glyph-name="circumflex" unicode="&#x2c6;" horiz-adv-x="668" 
d="M668 1083h-74l-261 223l-260 -223h-73l268 358h133z" />
    <glyph glyph-name="caron" unicode="&#x2c7;" horiz-adv-x="668" 
d="M669 1441l-267 -358h-134l-268 358h74l260 -219l261 219h74z" />
    <glyph glyph-name="uni02D0" unicode="&#x2d0;" horiz-adv-x="444" 
d="M367 952l-95 -325h-99l-95 325h289zM367 0h-289l95 326h99z" />
    <glyph glyph-name="breve" unicode="&#x2d8;" horiz-adv-x="602" 
d="M603 1420q-6 -92 -40 -168.5t-99 -122.5t-166 -46q-97 0 -164.5 46t-102 122.5t-31.5 168.5h64q13 -57 49 -104t85 -75.5t100 -28.5q98 0 160 60.5t82 147.5h63z" />
    <glyph glyph-name="dotaccent" unicode="&#x2d9;" horiz-adv-x="213" 
d="M213 1277q0 -51 -28.5 -79t-78.5 -28q-48 0 -77 29t-29 78q0 47 29 76.5t77 29.5q50 0 78.5 -28.5t28.5 -77.5z" />
    <glyph glyph-name="ring" unicode="&#x2da;" horiz-adv-x="397" 
d="M397 1283q0 -90 -61.5 -145t-135.5 -55t-137 55t-63 145q0 89 60 144t140 55q74 0 135.5 -53.5t61.5 -145.5zM326 1283q0 57 -39 92t-87 35q-52 0 -90.5 -35t-38.5 -92q0 -60 40 -93.5t89 -33.5q53 0 89.5 37.5t36.5 89.5z" />
    <glyph glyph-name="ogonek" unicode="&#x2db;" horiz-adv-x="403" 
d="M548 -123v-57q-35 -36 -80.5 -72t-114.5 -36q-66 0 -107.5 44.5t-41.5 104.5q0 74 39.5 134t130.5 109h80q-37 -23 -83 -76t-46 -130q0 -29 20.5 -59t57.5 -30q32 0 70 17t75 51z" />
    <glyph glyph-name="tilde" unicode="&#x2dc;" horiz-adv-x="709" 
d="M653 1397h56q-6 -56 -37 -108.5t-80 -85.5t-109 -33q-58 0 -95 15t-65.5 34t-62 34t-85.5 15q-41 0 -78.5 -31.5t-41.5 -66.5h-55q23 92 78.5 154.5t157.5 62.5q54 0 94.5 -23.5t81 -47.5t94.5 -24q51 0 92.5 27.5t54.5 77.5z" />
    <glyph glyph-name="hungarumlaut" unicode="&#x2dd;" horiz-adv-x="861" 
d="M861 1404q4 -48 -28 -66t-67 -42l-307 -213h-74l295 298q23 25 52 48t61 23q65 0 68 -48zM477 1404q5 -48 -27.5 -66t-66.5 -42l-308 -213h-75l295 298q25 25 51 48t64 23q64 0 67 -48z" />
    <glyph glyph-name="uni034F" unicode="&#x34f;" horiz-adv-x="0" 
 />
    <glyph glyph-name="pi" unicode="&#x3c0;" horiz-adv-x="1217" 
d="M1177 310q0 -166 -69 -250t-163 -84q-100 0 -147 42t-61 103.5t-14 120.5v579h-279v-469q0 -105 -30 -190.5t-87.5 -135.5t-140.5 -50q-59 0 -91 42t-43.5 107.5t-11.5 136.5h69q0 -60 21 -98t56 -38q23 0 51.5 15t54.5 59.5t43 131.5t17 231v258h-86q-70 0 -100.5 -22
t-39.5 -49.5t-15 -44.5h-61q0 46 24 104t76.5 100.5t138.5 42.5h737q35 0 63.5 16t35.5 38h52q0 -76 -34 -130.5t-120 -54.5h-126v-545q0 -68 1 -117.5t16.5 -75.5t58.5 -26q47 0 86.5 61.5t39.5 191.5h78z" />
    <glyph glyph-name="uni2000" unicode="&#x2000;" horiz-adv-x="1024" 
 />
    <glyph glyph-name="uni2001" unicode="&#x2001;" horiz-adv-x="2049" 
 />
    <glyph glyph-name="uni2002" unicode="&#x2002;" horiz-adv-x="1024" 
 />
    <glyph glyph-name="uni2003" unicode="&#x2003;" horiz-adv-x="2049" 
 />
    <glyph glyph-name="uni2004" unicode="&#x2004;" horiz-adv-x="683" 
 />
    <glyph glyph-name="uni2005" unicode="&#x2005;" horiz-adv-x="512" 
 />
    <glyph glyph-name="uni2006" unicode="&#x2006;" horiz-adv-x="341" 
 />
    <glyph glyph-name="uni2007" unicode="&#x2007;" horiz-adv-x="1066" 
 />
    <glyph glyph-name="uni2008" unicode="&#x2008;" horiz-adv-x="594" 
 />
    <glyph glyph-name="uni2009" unicode="&#x2009;" horiz-adv-x="409" 
 />
    <glyph glyph-name="uni200A" unicode="&#x200a;" horiz-adv-x="40" 
 />
    <glyph glyph-name="uni200B" unicode="&#x200b;" horiz-adv-x="0" 
 />
    <glyph glyph-name="uni200C" unicode="&#x200c;" horiz-adv-x="0" 
 />
    <glyph glyph-name="uni200D" unicode="&#x200d;" horiz-adv-x="0" 
 />
    <glyph glyph-name="uni2010" unicode="&#x2010;" horiz-adv-x="840" 
d="M736 469h-632v80h632v-80z" />
    <glyph glyph-name="uni2011" unicode="&#x2011;" horiz-adv-x="709" 
d="M624 397h-538v158h538v-158z" />
    <glyph glyph-name="figuredash" unicode="&#x2012;" horiz-adv-x="1066" 
d="M1014 469h-962v80h962v-80z" />
    <glyph glyph-name="endash" unicode="&#x2013;" horiz-adv-x="1024" 
d="M1055 469h-1099v80h1099v-80z" />
    <glyph glyph-name="emdash" unicode="&#x2014;" horiz-adv-x="2048" 
d="M2048 469v80h-2048v-80h2048z" />
    <glyph glyph-name="uni2015" unicode="&#x2015;" horiz-adv-x="2069" 
d="M2074 469h-2079v80h2079v-80z" />
    <glyph glyph-name="quoteleft" unicode="&#x2018;" 
d="M598 1356q0 55 -36 89q-35 34 -79 34q-17 0 -46 -10q-30 -9 -40 -9q-43 0 -43 70q0 123 193 235v52q-297 -100 -297 -367q0 -98 65 -166q57 -61 133 -61q55 0 102 34q48 35 48 99zM1470 1937q9 3 19 11q4 4 9.5 11.5t5.5 18.5q0 23 -19 23q-14 0 -14 -17q0 -14 14 -14
q4 0 5 1l1 -0.5t1 -1.5q0 -4 -5 -11q-10 -14 -17 -16v-5z" />
    <glyph glyph-name="quoteright" unicode="&#x2019;" 
d="M509 1583v0q0 101 -66 168q-59 59 -133 59q-53 0 -98 -30q-52 -39 -52 -101q0 -54 36 -89q35 -34 79 -34q14 0 45 9q30 10 39 10q43 0 43 -70q0 -125 -190 -237v-49q297 98 297 364z" />
    <glyph glyph-name="quotesinglbase" unicode="&#x201a;" horiz-adv-x="709" 
d="M518 0q0 -81 -30 -139.5t-75 -97.5t-90 -62t-75 -33v45q37 22 77.5 50.5t68.5 69t28 96.5q0 41 -15.5 52t-23.5 11q-13 0 -35.5 -8t-42.5 -8q-36 0 -70.5 28.5t-34.5 81.5q0 62 47.5 91t90.5 29q42 0 83.5 -25t69 -71.5t27.5 -109.5z" />
    <glyph glyph-name="quotedblleft" unicode="&#x201c;" 
d="M1440 1354v0q0 54 -36 88q-37 35 -79 35q-15 0 -45 -10q-31 -9 -39 -9q-43 0 -43 70q0 123 190 235v52q-297 -100 -297 -367q0 -98 66 -166q58 -61 133 -61q54 0 101 34q49 34 49 99zM893 1356v0q0 55 -36 89q-35 34 -79 34q-17 0 -46 -10q-30 -9 -40 -9q-43 0 -43 70
q0 123 193 235v52q-297 -100 -297 -367q0 -98 65 -166q57 -61 133 -61q55 0 102 34q48 35 48 99z" />
    <glyph glyph-name="quotedblright" unicode="&#x201d;" 
d="M1055 1581v0q0 100 -65 168q-59 59 -131 59q-56 0 -101 -30q-51 -39 -51 -103q0 -52 36 -87q35 -34 79 -34q16 0 46 9q29 10 40 10q43 0 43 -70q0 -125 -193 -237v-49q297 98 297 364zM509 1583v0q0 101 -66 168q-59 59 -133 59q-53 0 -98 -30q-52 -39 -52 -101
q0 -54 36 -89q35 -34 79 -34q14 0 45 9q30 10 39 10q43 0 43 -70q0 -125 -190 -237v-49q297 98 297 364z" />
    <glyph glyph-name="quotedblbase" unicode="&#x201e;" horiz-adv-x="945" 
d="M886 -2q0 -81 -30.5 -139.5t-75.5 -97.5t-90.5 -61.5t-75.5 -32.5v44q37 22 77.5 50.5t68.5 69t28 96.5q0 41 -15 52t-23 11q-13 0 -35.5 -8.5t-42.5 -8.5q-35 0 -70 29t-35 82q0 62 47.5 91t90.5 29q42 0 83.5 -25t69.5 -71.5t28 -109.5zM386 0q0 -81 -30 -139.5
t-74.5 -97.5t-89.5 -62t-75 -33v45q37 22 77 50.5t68.5 69t28.5 96.5q0 41 -15.5 52t-23.5 11q-15 0 -37 -8t-42 -8q-35 0 -69.5 28.5t-34.5 81.5q0 62 47 91t90 29q64 0 122 -55.5t58 -150.5z" />
    <glyph glyph-name="dagger" unicode="&#x2020;" horiz-adv-x="1066" 
d="M962 948q0 -57 -40.5 -77.5t-69.5 -20.5q-28 0 -71 11t-99 38q-28 14 -72 22t-64 9q1 -48 9 -84.5t18 -62.5q24 -55 77 -97q-25 -97 -43 -191t-27 -189q-10 -93 -18.5 -278.5t-15.5 -463.5h-38q-3 224 -11 406t-24 321q-10 103 -28.5 202t-43.5 193q56 46 76 97
q11 24 18 61t13 86q-67 -3 -139 -35q-108 -45 -158 -45q-51 0 -79 28.5t-28 69.5q0 47 34 76t75 29q37 0 72 -16t84 -38q66 -28 139 -29q0 21 -8.5 64.5t-30.5 88.5q-32 67 -44 117.5t-12 85.5q0 66 34.5 99.5t80.5 33.5q54 0 83.5 -44.5t29.5 -88.5q0 -51 -18.5 -101
t-36.5 -94q-17 -44 -28 -84t-12 -77q36 1 70 9t66 20q53 20 91.5 36t76.5 16q43 0 77.5 -27.5t34.5 -75.5z" />
    <glyph glyph-name="daggerdbl" unicode="&#x2021;" horiz-adv-x="1066" 
d="M920 -13q0 -52 -29.5 -75t-67.5 -23q-19 0 -51.5 11t-79.5 29q-25 11 -58 21t-83 11q0 -34 13.5 -77t23.5 -63q25 -57 38 -99t13 -72q0 -51 -32.5 -81t-74.5 -30q-34 0 -69 29.5t-35 83.5q0 32 16.5 79t32.5 94q24 62 33 136q-57 0 -91.5 -12t-60.5 -24
q-39 -16 -67.5 -26t-48.5 -10q-34 0 -65 20.5t-31 73.5q0 50 34 71t68 21q18 0 47 -7.5t70 -25.5q24 -10 54 -22t91 -12q-6 30 -12.5 53.5t-16.5 42.5q-19 31 -71 71q15 22 39 65t43.5 111t19.5 165q0 100 -19 165t-43 103t-40 56q50 36 67 70q11 15 18.5 42.5t14.5 64.5
q-22 -1 -50.5 -6t-101.5 -38q-34 -16 -65 -21.5t-57 -5.5q-34 0 -62.5 21.5t-28.5 68.5q0 43 25.5 67t61.5 24q26 0 59.5 -9.5t79.5 -27.5q63 -26 91 -29.5t48 -5.5q0 21 -10 65.5t-29 90.5q-10 28 -27.5 72.5t-17.5 81.5q0 41 27 77.5t79 36.5q57 0 79 -38.5t22 -79.5
q0 -43 -15 -77t-30 -72q-31 -72 -37 -157q23 2 60.5 8.5t78.5 26.5q26 12 61 24.5t76 12.5q38 0 65.5 -22t27.5 -71q0 -47 -31 -68t-68 -21q-28 0 -67 11t-62 21q-66 32 -92 34t-49 6q3 -35 10.5 -59.5t18.5 -43.5q15 -34 70 -74q-18 -26 -41.5 -66.5t-40.5 -105.5t-17 -166
q0 -139 34.5 -213t64.5 -114q-50 -39 -70 -76q-10 -16 -17 -38t-12 -55q37 2 71 11.5t62 22.5q90 35 139 35q37 0 67 -23.5t30 -64.5z" />
    <glyph glyph-name="bullet" unicode="&#x2022;" 
d="M798 1193v0q-90 0 -157 -65q-66 -65 -66 -160q0 -94 66 -157q65 -66 157 -66q95 0 160 66q66 63 66 157q0 95 -66 160q-67 65 -160 65z" />
    <glyph glyph-name="ellipsis" unicode="&#x2026;" horiz-adv-x="1599" 
d="M274 1063v0q-63 0 -110 -45q-45 -45 -45 -111q0 -65 45 -109q46 -46 110 -46q62 0 110 46q46 43 46 109q0 65 -46 111q-45 45 -110 45zM799 1063v0q-63 0 -110 -45q-45 -45 -45 -111q0 -65 45 -109q46 -46 110 -46q62 0 110 46q46 43 46 109q0 65 -46 111q-45 45 -110 45
zM1324 1063v0q-63 0 -110 -45q-45 -45 -45 -111q0 -65 45 -109q46 -46 110 -46q62 0 110 46q46 43 46 109q0 65 -46 111q-45 45 -110 45z" />
    <glyph glyph-name="uni2027" unicode="&#x2027;" 
d="M798 1193v0q-90 0 -157 -65q-66 -65 -66 -160q0 -94 66 -157q65 -66 157 -66q95 0 160 66q66 63 66 157q0 95 -66 160q-67 65 -160 65z" />
    <glyph glyph-name="uni2028" unicode="&#x2028;" horiz-adv-x="0" 
 />
    <glyph glyph-name="uni2029" unicode="&#x2029;" horiz-adv-x="0" 
 />
    <glyph glyph-name="uni202F" unicode="&#x202f;" horiz-adv-x="512" 
 />
    <glyph glyph-name="perthousand" unicode="&#x2030;" horiz-adv-x="2250" 
d="M2214 528q0 -126 -39 -228.5t-102 -176.5t-136.5 -114t-142.5 -40q-109 0 -167.5 39.5t-81 106.5t-22.5 147q0 87 38 175.5t103 162.5t148 119t174 45q73 0 124 -35.5t77.5 -89.5t26.5 -111zM1447 528q0 -126 -39 -228.5t-102 -176.5t-137 -114t-143 -40
q-108 0 -166 39.5t-80.5 106.5t-22.5 147q0 87 37.5 175.5t102.5 162.5t148 119t174 45q73 0 124 -35.5t77.5 -89.5t26.5 -111zM1209 1449l-881 -1482h-102l825 1383q-98 -88 -204.5 -95.5t-201.5 22.5q8 -40 8 -80q0 -71 -23.5 -161.5t-70 -175t-116.5 -139.5t-163 -55
q-91 0 -144.5 45t-76 115t-22.5 145q0 105 37.5 192t99 150.5t134.5 98.5t143 35q36 0 72.5 -21.5t78.5 -50t93 -50t117 -21.5q73 0 117 20t77.5 53t74.5 72h128zM2159 516q0 63 -38 120.5t-111 57.5q-67 0 -126 -51t-104 -131t-70.5 -169t-25.5 -166q0 -60 35.5 -101
t98.5 -41q75 0 137.5 50t108 126t70.5 158.5t25 146.5zM1392 516q0 63 -38 120.5t-111 57.5q-66 0 -125 -52.5t-104 -134t-70.5 -170t-25.5 -160.5q0 -60 35.5 -101t97.5 -41q75 0 137.5 50t108 126t70.5 158.5t25 146.5zM599 1194q0 27 -2 53t-13 47q-73 38 -129 93
q-61 -13 -108.5 -67t-80.5 -128t-50 -148.5t-17 -127.5q0 -85 21.5 -134.5t84.5 -49.5q56 0 108.5 40.5t94.5 108t66.5 149.5t24.5 164z" />
    <glyph glyph-name="guilsinglleft" unicode="&#x2039;" horiz-adv-x="709" 
d="M582 -8h-56l-404 491l404 488h56l-254 -488z" />
    <glyph glyph-name="guilsinglright" unicode="&#x203a;" horiz-adv-x="709" 
d="M586 479l-404 -487h-56l255 487l-255 492h56z" />
    <glyph glyph-name="fraction" unicode="&#x2044;" horiz-adv-x="1103" 
d="M1103 1447l-979 -1478h-124l977 1478h126z" />
    <glyph glyph-name="uni2060" unicode="&#x2060;" horiz-adv-x="0" 
 />
    <glyph glyph-name="uni2074" unicode="&#x2074;" horiz-adv-x="737" 
d="M686 1021h-130v-215h-118v215h-416v77l455 540h79v-532h130v-85zM438 1106v406l-346 -406h346z" />
    <glyph glyph-name="uni2075" unicode="&#x2075;" horiz-adv-x="737" 
d="M641 1620l-58 -102h-293l-66 -109q35 -3 101 -19.5t135 -51.5t117 -93.5t48 -144.5q0 -76 -37 -133.5t-95.5 -96.5t-126 -58.5t-127.5 -19.5q-85 0 -126.5 23.5t-41.5 55.5q0 11 10 27t47 16q34 0 58.5 -15t54.5 -30t79 -15q82 0 146 51.5t64 129.5q0 38 -22.5 89
t-85.5 94q-79 56 -165.5 70t-154.5 17l188 315h351z" />
    <glyph glyph-name="uni2076" unicode="&#x2076;" horiz-adv-x="737" 
d="M680 1080v0q0 -71 -38 -137t-107 -108.5t-164 -42.5q-90 0 -159.5 45.5t-108.5 121.5t-39 166q0 135 63.5 230t136.5 153q93 74 187.5 102t167.5 28h41v-24q-84 -3 -152.5 -30.5t-121.5 -71.5q-38 -31 -85.5 -92.5t-76.5 -159.5q104 60 210 60q45 0 102.5 -22.5
t100.5 -75t43 -142.5zM551 1015v0q0 63 -19 121.5t-60 95.5t-107 37q-43 0 -82 -18t-68 -35q-7 -40 -11.5 -72.5t-4.5 -57.5q0 -55 23 -116t66.5 -103.5t104.5 -40.5q63 2 110.5 50t47.5 139z" />
    <glyph glyph-name="uni2077" unicode="&#x2077;" horiz-adv-x="737" 
d="M670 1599l-325 -811h-81l294 734h-268q-80 0 -121 -16t-60 -39t-34 -44l-22 6l95 191h522v-21z" />
    <glyph glyph-name="uni2088" unicode="&#x2088;" horiz-adv-x="737" 
d="M653 999v0q0 -36 -24.5 -85t-86 -85.5t-173.5 -36.5q-91 0 -154 30.5t-95.5 76.5t-32.5 92q0 52 34 95t80.5 76.5t82.5 53.5q-39 27 -81.5 58.5t-72.5 73t-30 95.5q0 61 37.5 104.5t99 67t132.5 23.5q106 0 162.5 -34.5t77.5 -76.5t21 -66q0 -48 -33 -86t-79.5 -66.5
t-88.5 -50.5q43 -27 95.5 -64.5t90.5 -86t38 -108.5zM528 1469v0q0 77 -49.5 105t-107.5 28q-68 0 -117 -31t-49 -87q0 -61 50 -102.5t142 -100.5q54 42 92.5 80t38.5 108zM550 950v0q0 53 -39.5 96.5t-94 80t-98.5 67.5q-20 -14 -48 -40t-49.5 -65.5t-21.5 -95.5
q0 -81 52 -124t127 -43q72 0 122 31.5t50 92.5z" />
    <glyph glyph-name="uni2099" unicode="&#x2099;" horiz-adv-x="737" 
d="M674 1301v0q0 -200 -166 -351q-19 -19 -71.5 -58t-133 -71.5t-185.5 -32.5h-41v22q26 1 71.5 8t98 27.5t98.5 61.5q53 49 97.5 111.5t69.5 146.5q-107 -61 -205 -61q-80 0 -135.5 34.5t-84 90t-28.5 117.5q0 86 42.5 152t112 103t149.5 37q100 0 169 -51.5t105.5 -129
t36.5 -156.5zM538 1332v0q0 88 -30 148t-74.5 90.5t-88.5 28.5q-64 -3 -110.5 -51t-46.5 -141q0 -110 48.5 -180t130.5 -70q41 0 91.5 17.5t64.5 33.5q7 39 11 70t4 54z" />
    <glyph glyph-name="Euro" unicode="&#x20ac;" horiz-adv-x="1066" 
d="M750 593h-509q17 -259 121 -396.5t268 -137.5q68 0 124 24.5t110 88t116 180.5l22 -22q-78 -184 -181.5 -273.5t-250.5 -89.5t-255 84.5t-171.5 227t-77.5 314.5h-127l21 88h103v3q0 18 0.5 36t1.5 36h-126l21 88h114q24 169 94 304.5t179 215t247 79.5q79 0 133.5 -25
t87.5 -49.5t49 -24.5q48 0 63 99h28l25 -479h-25q-47 216 -137 310.5t-210 94.5q-142 0 -240 -128t-122 -397h563l-21 -88h-548q-1 -18 -1 -37v-38h531z" />
    <glyph glyph-name="trademark" unicode="&#x2122;" horiz-adv-x="2089" 
d="M2054 572h-415v36q76 0 99.5 25t23.5 110v515l-319 -686h-33l-323 673v-500q0 -56 8 -85.5t37 -40.5t92 -11v-36h-319v36q57 0 82 13t30.5 43t5.5 81v485q0 54 -5.5 85t-30 44t-82.5 13v38h298l285 -595l274 595h292v-38q-59 4 -83.5 -14t-29.5 -50.5t-5 -75.5v-487
q0 -85 22.5 -111t95.5 -26v-36zM835 1203h-38q-7 68 -49 106.5t-152 38.5h-78v-603q0 -79 17 -106.5t94 -30.5v-36h-391v36q44 8 66.5 14.5t30 32.5t7.5 90v603h-78q-94 0 -136 -29.5t-62 -115.5h-33l13 207h771z" />
    <glyph glyph-name="Omega" unicode="&#x2126;" horiz-adv-x="1566" 
d="M1496 850q0 -124 -47 -221.5t-124.5 -166.5t-171 -107.5t-185.5 -44.5v-126h319q26 0 57.5 13.5t55 44.5t23.5 82h44v-324h-576v359q174 55 277.5 180.5t103.5 308.5q0 102 -34.5 198.5t-99 174t-154.5 123.5t-201 46t-201 -46t-155 -123.5t-99.5 -174t-34.5 -198.5
q0 -183 103.5 -308.5t277.5 -180.5v-359h-577v324h44q0 -51 23.5 -82t55.5 -44.5t59 -13.5h320v126q-93 6 -187 44.5t-171.5 107.5t-124.5 166.5t-47 221.5q0 179 85 312t245 207t384 74t383.5 -74t244.5 -207t85 -312z" />
    <glyph glyph-name="partialdiff" unicode="&#x2202;" horiz-adv-x="1057" 
d="M988 840q0 -45 -7 -127t-25.5 -182t-54.5 -201t-94 -185.5t-142.5 -136.5t-201.5 -52q-125 0 -216 58.5t-140.5 146t-49.5 172.5q0 163 47 266.5t116.5 160.5t140 79t118.5 22q63 0 108 -13.5t93.5 -45.5t120.5 -87q14 66 17.5 126.5t4.5 122.5q2 104 -40.5 190.5
t-111.5 138t-147 51.5q-53 0 -86 -7.5t-66 -23t-88 -38.5l-84 106q47 20 119.5 41t151.5 21q132 0 223 -49t149 -126t89.5 -161t43.5 -156.5t12 -110.5zM785 639q-23 25 -52.5 57t-72.5 56t-109 24q-79 0 -137.5 -45t-97 -115.5t-57.5 -150.5t-19 -150q0 -32 5.5 -81.5
t24.5 -99.5t60 -83.5t112 -33.5q80 0 138.5 55.5t99.5 146.5t66.5 201t38.5 219z" />
    <glyph glyph-name="Delta" unicode="&#x2206;" horiz-adv-x="1310" 
d="M1301 0h-1289l684 1471zM1023 115l-402 970l-455 -970h857z" />
    <glyph glyph-name="product" unicode="&#x220f;" horiz-adv-x="1527" 
d="M1496 0h-630v31q45 0 93.5 11t82.5 40t34 82v1055q0 58 -29.5 84.5t-75.5 34.5t-94 8h-227q-48 0 -94 -8t-75.5 -34.5t-29.5 -84.5v-1055q0 -55 33.5 -84t81.5 -39t93 -10v-31h-628v31q45 0 93.5 9.5t82 38t33.5 85.5v1055q0 86 -57.5 123t-151.5 37v31h1465v-31
q-94 0 -152.5 -37t-58.5 -123v-1055q0 -53 34 -82t83 -40t94 -11v-31z" />
    <glyph glyph-name="summation" unicode="&#x2211;" horiz-adv-x="1258" 
d="M1199 381l-40 -381h-1144l706 707l-706 703h1131l46 -378h-35q-14 80 -66 151t-128 115t-162 44h-389q-35 0 -44.5 -21t13.5 -44l522 -520l-571 -573h656q68 0 113 50.5t58 146.5h40z" />
    <glyph glyph-name="minus" unicode="&#x2212;" horiz-adv-x="2049" 
d="M1639 551h-1229v128h1229v-128z" />
    <glyph glyph-name="uni2215" unicode="&#x2215;" horiz-adv-x="592" 
d="M596 1480h-81l-514 -1511h88z" />
    <glyph glyph-name="uni2219" unicode="&#x2219;" horiz-adv-x="1573" 
d="M275 1193v0q-93 0 -158 -65q-66 -66 -66 -160q0 -92 66 -157q63 -66 158 -66q94 0 160 66q64 63 64 157q0 95 -64 160q-68 65 -160 65z" />
    <glyph glyph-name="radical" unicode="&#x221a;" horiz-adv-x="1179" 
d="M1179 1372h-103l-371 -1372h-62l-443 872l-127 -62l-33 60l240 122l400 -781l335 1224h164v-63z" />
    <glyph glyph-name="infinity" unicode="&#x221e;" horiz-adv-x="2049" 
d="M1415 902q79 0 144.5 -39t105 -103t39.5 -140q0 -69 -34.5 -136t-96.5 -111t-143 -44q-94 0 -171 37t-136 88.5t-99 92.5q-36 -41 -96 -92.5t-138 -88.5t-171 -37q-81 0 -143 44t-96.5 111t-34.5 136q0 76 39.5 140t105 103t143.5 39q105 0 196.5 -63t194.5 -157
q97 95 196.5 157.5t194.5 62.5zM1600 604q0 42 -21 86t-62 74.5t-101 30.5q-82 0 -159.5 -53.5t-163.5 -127.5q82 -81 151.5 -134t163.5 -53q73 0 132.5 50.5t59.5 126.5zM956 614q-89 76 -165.5 128.5t-157.5 52.5q-60 0 -101 -30.5t-62 -74t-21 -81.5q0 -81 59 -131.5
t133 -50.5q80 0 161 54t154 133z" />
    <glyph glyph-name="integral" unicode="&#x222b;" horiz-adv-x="966" 
d="M890 1361q-8 -17 -33 -33.5t-57.5 -18t-62.5 24.5q-56 50 -87 53t-43.5 -16.5t-14.5 -38.5q-2 -28 -4 -97.5t-4 -165t-4.5 -203t-6.5 -211.5l-10 -274q-9 -243 -31.5 -391t-59 -227.5t-89 -114t-121.5 -49.5q-49 -11 -95 -6t-66 24q-62 63 -30 137q9 19 34.5 36
t58.5 19.5t62 -24.5q58 -49 88.5 -53t43 15t15.5 38q2 38 7.5 148t12.5 263.5t13 321.5l7 230q8 215 25.5 357t49.5 227.5t83 128t127 58.5q48 8 94.5 4t66.5 -23q62 -60 31 -139z" />
    <glyph glyph-name="approxequal" unicode="&#x2248;" horiz-adv-x="2049" 
d="M1639 801q-42 -38 -120.5 -82t-170.5 -51q-81 -5 -132 1.5t-97 23.5t-113 40q-126 45 -214 57t-152.5 -3.5t-118.5 -53.5t-111 -94v142q26 26 61.5 55t95 52t156.5 30q76 6 148.5 -11.5t139 -42.5t122.5 -43q124 -38 211 -30.5t156 48.5t139 104v-142zM1639 453
q-42 -39 -120.5 -83t-170.5 -51q-81 -5 -132 2t-97 24t-113 40q-126 45 -214 57t-152.5 -3.5t-118.5 -53.5t-111 -94v141q26 26 61.5 55t95 52t156.5 30q76 7 148.5 -10.5t139 -42.5t122.5 -43q124 -38 211 -30.5t156 48.5t139 103v-141z" />
    <glyph glyph-name="notequal" unicode="&#x2260;" horiz-adv-x="2049" 
d="M1639 365h-783l-225 -226l-82 82l143 144h-282v127h409l247 245h-656v128h782l226 225l82 -82l-143 -143h282v-128h-409l-247 -245h656v-127z" />
    <glyph glyph-name="lessequal" unicode="&#x2264;" horiz-adv-x="2049" 
d="M1639 240l-1229 389v128l1229 389v-127l-1098 -327l1098 -325v-127zM1639 0h-1229v113h1229v-113z" />
    <glyph glyph-name="greaterequal" unicode="&#x2265;" horiz-adv-x="2049" 
d="M1639 629l-1229 -389v127l1098 325l-1098 327v127l1229 -389v-128zM1639 0h-1229v113h1229v-113z" />
    <glyph glyph-name="uni2423" unicode="&#x2423;" horiz-adv-x="471" 
d="M471 -266h-471v266h82v-184h306v184h83v-266z" />
    <glyph glyph-name="uni2460" unicode="&#x2460;" 
d="M799 1429v0q-129 0 -241.5 -48.5t-198.5 -134t-134.5 -198.5t-48.5 -242t48.5 -242t134.5 -199t198.5 -134.5t241.5 -48.5t242 48.5t199 134.5t134.5 199t48.5 242t-48.5 242t-134.5 198.5t-199 134t-242 48.5zM799 1346v0q112 0 210 -42t172.5 -116.5t116.5 -172
t42 -209.5q0 -149 -73 -272t-195.5 -196t-272.5 -73q-112 0 -209.5 42t-172 116.5t-116.5 172.5t-42 210t42 209.5t116.5 172t172 116.5t209.5 42zM928 464v18q-59 0 -73 19q-10 14 -10 82v567h-18l-163 -80l7 -16q32 15 52 15q30 0 37 -36q2 -9 2.5 -31t0.5 -57v-362
q0 -65 -12 -82q-16 -19 -75 -19v-18h252z" />
    <glyph glyph-name="uni2461" unicode="&#x2461;" 
d="M799 1429v0q-129 0 -241.5 -48.5t-198.5 -134t-134.5 -198.5t-48.5 -242t48.5 -242t134.5 -199t198.5 -134.5t241.5 -48.5t242 48.5t199 134.5t134.5 199t48.5 242t-48.5 242t-134.5 198.5t-199 134t-242 48.5zM799 1346v0q112 0 210 -42t172.5 -116.5t116.5 -172
t42 -209.5q0 -149 -73 -272t-195.5 -196t-272.5 -73q-112 0 -209.5 42t-172 116.5t-116.5 172.5t-42 210t42 209.5t116.5 172t172 116.5t209.5 42zM1023 593h-19q-27 -40 -61 -49q-16 -5 -82 -5h-175q24 21 153 162q144 155 144 272q0 80 -61 129q-55 48 -132 48
q-96 0 -148 -73q-33 -48 -42 -117h17q41 113 148 113q42 0 82 -29q50 -42 50 -117q0 -80 -71 -184q-22 -32 -51 -66.5t-65 -69.5q-19 -20 -51.5 -51.5t-77.5 -73.5v-18h395z" />
    <glyph glyph-name="uni2462" unicode="&#x2462;" 
d="M799 1429v0q-129 0 -241.5 -48.5t-198.5 -134t-134.5 -198.5t-48.5 -242t48.5 -242t134.5 -199t198.5 -134.5t241.5 -48.5t242 48.5t199 134.5t134.5 199t48.5 242t-48.5 242t-134.5 198.5t-199 134t-242 48.5zM799 1346v0q112 0 210 -42t172.5 -116.5t116.5 -172
t42 -209.5q0 -149 -73 -272t-195.5 -196t-272.5 -73q-112 0 -209.5 42t-172 116.5t-116.5 172.5t-42 210t42 209.5t116.5 172t172 116.5t209.5 42zM989 691v0q0 130 -125 177q90 78 90 151q0 45 -30 82q-41 53 -126 53q-78 0 -128 -54q-25 -27 -54 -87l17 -9q51 82 130 82
q39 0 70 -23q39 -31 39 -90q0 -76 -67 -122q-42 -28 -85 -33v-16q58 -2 97 -19q98 -40 98 -151q0 -56 -39 -94q-40 -37 -87 -37q-38 0 -78 23q-41 22 -65 22q-15 0 -27 -9q-12 -10 -12 -25q0 -54 116 -54q121 0 193 64q73 66 73 169z" />
    <glyph glyph-name="uni2463" unicode="&#x2463;" 
d="M799 1429v0q-129 0 -241.5 -48.5t-198.5 -134t-134.5 -198.5t-48.5 -242t48.5 -242t134.5 -199t198.5 -134.5t241.5 -48.5t242 48.5t199 134.5t134.5 199t48.5 242t-48.5 242t-134.5 198.5t-199 134t-242 48.5zM799 1346v0q112 0 210 -42t172.5 -116.5t116.5 -172
t42 -209.5q0 -149 -73 -272t-195.5 -196t-272.5 -73q-112 0 -209.5 42t-172 116.5t-116.5 172.5t-42 210t42 209.5t116.5 172t172 116.5t209.5 42zM1004 643v70h-88v438h-55l-311 -447v-61h284v-178h82v178h88zM834 713h-236l236 333v-333z" />
    <glyph glyph-name="uni2464" unicode="&#x2464;" 
d="M799 1429v0q-129 0 -241.5 -48.5t-198.5 -134t-134.5 -198.5t-48.5 -242t48.5 -242t134.5 -199t198.5 -134.5t241.5 -48.5t242 48.5t199 134.5t134.5 199t48.5 242t-48.5 242t-134.5 198.5t-199 134t-242 48.5zM799 1346v0q112 0 210 -42t172.5 -116.5t116.5 -172
t42 -209.5q0 -149 -73 -272t-195.5 -196t-272.5 -73q-112 0 -209.5 42t-172 116.5t-116.5 172.5t-42 210t42 209.5t116.5 172t172 116.5t209.5 42zM986 1150h-239l-128 -261q142 -6 219 -70q73 -62 73 -151q0 -64 -42 -106q-44 -44 -103 -44q-35 0 -72 25q-38 26 -59 26
q-39 0 -39 -37q0 -29 30 -46q29 -18 84 -18q98 0 175 64q91 73 91 188q0 126 -113 197q-78 51 -161 59l45 89h201z" />
    <glyph glyph-name="uni2465" unicode="&#x2465;" 
d="M799 1429v0q-129 0 -241.5 -48.5t-198.5 -134t-134.5 -198.5t-48.5 -242t48.5 -242t134.5 -199t198.5 -134.5t241.5 -48.5t242 48.5t199 134.5t134.5 199t48.5 242t-48.5 242t-134.5 198.5t-199 134t-242 48.5zM799 1346v0q112 0 210 -42t172.5 -116.5t116.5 -172
t42 -209.5q0 -149 -73 -272t-195.5 -196t-272.5 -73q-112 0 -209.5 42t-172 116.5t-116.5 172.5t-42 210t42 209.5t116.5 172t172 116.5t209.5 42zM997 696v0q0 100 -63 155q-49 43 -107 43q-70 0 -143 -50q30 125 110 207q81 81 189 85v18h-28q-134 0 -244 -106
q-139 -130 -139 -315q0 -113 60 -193q59 -82 151 -82q93 0 156 75q58 70 58 163zM908 643v0q0 -74 -34 -117q-30 -39 -76 -40q-57 -4 -97 71q-35 67 -35 144q0 17 3 43.5t7 63.5q68 43 103 43q63 0 99 -66q30 -57 30 -142z" />
    <glyph glyph-name="uni2466" unicode="&#x2466;" 
d="M799 1429v0q-129 0 -241.5 -48.5t-198.5 -134t-134.5 -198.5t-48.5 -242t48.5 -242t134.5 -199t198.5 -134.5t241.5 -48.5t242 48.5t199 134.5t134.5 199t48.5 242t-48.5 242t-134.5 198.5t-199 134t-242 48.5zM799 1346v0q112 0 210 -42t172.5 -116.5t116.5 -172
t42 -209.5q0 -149 -73 -272t-195.5 -196t-272.5 -73q-112 0 -209.5 42t-172 116.5t-116.5 172.5t-42 210t42 209.5t116.5 172t172 116.5t209.5 42zM1002 1132v18h-358l-66 -159l16 -4q23 42 39 54q35 28 107 28h184l-199 -605h53z" />
    <glyph glyph-name="uni2467" unicode="&#x2467;" 
d="M799 1429v0q-129 0 -241.5 -48.5t-198.5 -134t-134.5 -198.5t-48.5 -242t48.5 -242t134.5 -199t198.5 -134.5t241.5 -48.5t242 48.5t199 134.5t134.5 199t48.5 242t-48.5 242t-134.5 198.5t-199 134t-242 48.5zM799 1346v0q112 0 210 -42t172.5 -116.5t116.5 -172
t42 -209.5q0 -149 -73 -272t-195.5 -196t-272.5 -73q-112 0 -209.5 42t-172 116.5t-116.5 172.5t-42 210t42 209.5t116.5 172t172 116.5t209.5 42zM995 628v0q0 65 -55 128q-27 32 -99 85q31 20 54 37t37 31q47 47 47 100q0 48 -34 88q-50 57 -146 57q-78 0 -128 -43
q-56 -44 -56 -116q0 -59 43 -111q19 -22 83 -77q-134 -92 -134 -185q0 -62 49 -110q54 -54 143 -54q104 0 156 62q40 46 40 108zM908 1015v0q0 -50 -26 -88q-15 -22 -63 -67q-79 62 -98 84q-33 37 -33 84q0 46 32 72q34 26 81 26q107 0 107 -111zM924 588v0q0 -47 -34 -75
q-33 -27 -85 -27q-53 0 -88 36q-35 38 -35 103q0 95 82 164q26 -22 52 -43t50 -44q31 -28 44.5 -57t13.5 -57z" />
    <glyph glyph-name="uni2468" unicode="&#x2468;" 
d="M799 1429v0q-129 0 -241.5 -48.5t-198.5 -134t-134.5 -198.5t-48.5 -242t48.5 -242t134.5 -199t198.5 -134.5t241.5 -48.5t242 48.5t199 134.5t134.5 199t48.5 242t-48.5 242t-134.5 198.5t-199 134t-242 48.5zM799 1346v0q112 0 210 -42t172.5 -116.5t116.5 -172
t42 -209.5q0 -149 -73 -272t-195.5 -196t-272.5 -73q-112 0 -209.5 42t-172 116.5t-116.5 172.5t-42 210t42 209.5t116.5 172t172 116.5t209.5 42zM1010 882v0q0 104 -56 187q-60 90 -158 90q-85 0 -145 -68q-63 -69 -63 -174q0 -80 44 -136q48 -63 126 -63q65 0 140 51
q-28 -120 -114 -213q-72 -75 -183 -79v-19h27q148 0 269 133q113 127 113 291zM916 907v0q0 -31 -9 -103q-13 -13 -46 -27q-34 -14 -63 -14q-54 0 -89 57q-33 55 -33 150q0 74 32 115q28 39 77 42q47 1 87 -55q44 -63 44 -165z" />
    <glyph glyph-name="uni2469" unicode="&#x2469;" 
d="M799 1429v0q-129 0 -241.5 -48.5t-198.5 -134t-134.5 -198.5t-48.5 -242t48.5 -242t134.5 -199t198.5 -134.5t241.5 -48.5t242 48.5t199 134.5t134.5 199t48.5 242t-48.5 242t-134.5 198.5t-199 134t-242 48.5zM799 1346v0q112 0 210 -42t172.5 -116.5t116.5 -172
t42 -209.5q0 -149 -73 -272t-195.5 -196t-272.5 -73q-112 0 -209.5 42t-172 116.5t-116.5 172.5t-42 210t42 209.5t116.5 172t172 116.5t209.5 42zM1162 803v0q0 75 -20 156.5t-67 138t-128 56.5q-61 0 -103.5 -36.5t-67.5 -92t-36.5 -116t-11.5 -108.5q0 -47 11 -105.5
t36 -113t66 -89.5t101 -35q63 0 105.5 34.5t67.5 88.5t36 113.5t11 108.5zM1080 789v0q0 -172 -34 -236t-93 -64q-46 0 -74 33t-43 82.5t-20 100t-5 84.5t3.5 89t16 111t38.5 94.5t71 38.5q50 0 78.5 -38.5t41.5 -95t16.5 -111.5t3.5 -88zM714 464v18q-59 0 -73 19
q-10 14 -10 82v567h-18l-163 -80l7 -16q32 15 52 15q30 0 37 -36q2 -9 2 -31v-57v-362q0 -67 -11 -82q-16 -19 -75 -19v-18h252z" />
    <glyph glyph-name="uni246A" unicode="&#x246a;" 
d="M799 1429v0q-129 0 -241.5 -48.5t-198.5 -134t-134.5 -198.5t-48.5 -242t48.5 -242t134.5 -199t198.5 -134.5t241.5 -48.5t242 48.5t199 134.5t134.5 199t48.5 242t-48.5 242t-134.5 198.5t-199 134t-242 48.5zM799 1346v0q112 0 210 -42t172.5 -116.5t116.5 -172
t42 -209.5q0 -149 -73 -272t-195.5 -196t-272.5 -73q-112 0 -209.5 42t-172 116.5t-116.5 172.5t-42 210t42 209.5t116.5 172t172 116.5t209.5 42zM1103 464v18q-59 0 -73 19q-10 14 -10 82v567h-18l-163 -80l7 -16q32 15 52 15q30 0 37 -36q2 -9 2.5 -31t0.5 -57v-362
q0 -65 -12 -82q-16 -19 -75 -19v-18h252zM738 464v18q-60 0 -73 19q-11 16 -11 82v567h-18l-163 -80l8 -16q32 15 52 15q30 0 37 -36q2 -9 2 -31v-57v-362q0 -67 -12 -82q-14 -19 -75 -19v-18h253z" />
    <glyph glyph-name="uni246B" unicode="&#x246b;" 
d="M799 1429v0q-129 0 -241.5 -48.5t-198.5 -134t-134.5 -198.5t-48.5 -242t48.5 -242t134.5 -199t198.5 -134.5t241.5 -48.5t242 48.5t199 134.5t134.5 199t48.5 242t-48.5 242t-134.5 198.5t-199 134t-242 48.5zM799 1346v0q112 0 210 -42t172.5 -116.5t116.5 -172
t42 -209.5q0 -149 -73 -272t-195.5 -196t-272.5 -73q-112 0 -209.5 42t-172 116.5t-116.5 172.5t-42 210t42 209.5t116.5 172t172 116.5t209.5 42zM1184 593h-19q-27 -40 -61 -49q-16 -5 -82 -5h-175q26 23 152 162q144 153 144 272q0 80 -60 129q-55 48 -132 48
q-96 0 -148 -73q-34 -47 -43 -117h18q39 113 148 113q42 0 82 -29q50 -42 50 -117q0 -80 -72 -184q-43 -64 -115 -136q-19 -20 -51.5 -51.5t-78.5 -73.5v-18h395zM714 464v18q-59 0 -73 19q-10 14 -10 82v567h-18l-163 -80l7 -16q32 15 52 15q30 0 37 -36q2 -9 2 -31v-57
v-362q0 -67 -11 -82q-16 -19 -75 -19v-18h252z" />
    <glyph glyph-name="uni246C" unicode="&#x246c;" 
d="M799 1429v0q-129 0 -241.5 -48.5t-198.5 -134t-134.5 -198.5t-48.5 -242t48.5 -242t134.5 -199t198.5 -134.5t241.5 -48.5t242 48.5t199 134.5t134.5 199t48.5 242t-48.5 242t-134.5 198.5t-199 134t-242 48.5zM799 1346v0q112 0 210 -42t172.5 -116.5t116.5 -172
t42 -209.5q0 -149 -73 -272t-195.5 -196t-272.5 -73q-112 0 -209.5 42t-172 116.5t-116.5 172.5t-42 210t42 209.5t116.5 172t172 116.5t209.5 42zM1155 691v0q0 131 -125 177q91 78 91 151q0 43 -30 82q-41 53 -126 53q-78 0 -129 -54q-25 -28 -53 -87l16 -9q52 82 130 82
q39 0 70 -23q40 -31 40 -90q0 -76 -67 -122q-44 -29 -86 -33v-16q59 -2 98 -19q98 -41 98 -151q0 -56 -40 -94q-38 -37 -87 -37q-38 0 -77 23q-43 22 -65 22q-14 0 -28 -9q-12 -12 -12 -25q0 -54 117 -54q120 0 193 64q72 65 72 169zM714 464v18q-59 0 -73 19q-10 14 -10 82
v567h-18l-163 -80l7 -16q32 15 52 15q30 0 37 -36q2 -9 2 -31v-57v-362q0 -67 -11 -82q-16 -19 -75 -19v-18h252z" />
    <glyph glyph-name="uni246D" unicode="&#x246d;" 
d="M799 1429v0q-129 0 -241.5 -48.5t-198.5 -134t-134.5 -198.5t-48.5 -242t48.5 -242t134.5 -199t198.5 -134.5t241.5 -48.5t242 48.5t199 134.5t134.5 199t48.5 242t-48.5 242t-134.5 198.5t-199 134t-242 48.5zM799 1346v0q112 0 210 -42t172.5 -116.5t116.5 -172
t42 -209.5q0 -149 -73 -272t-195.5 -196t-272.5 -73q-112 0 -209.5 42t-172 116.5t-116.5 172.5t-42 210t42 209.5t116.5 172t172 116.5t209.5 42zM1135 643v70h-88v438h-55l-312 -447v-61h285v-178h82v178h88zM965 713h-236l236 333v-333zM714 464v18q-59 0 -73 19
q-10 14 -10 82v567h-18l-163 -80l7 -16q32 15 52 15q30 0 37 -36q2 -9 2 -31v-57v-362q0 -67 -11 -82q-16 -19 -75 -19v-18h252z" />
    <glyph glyph-name="uni246E" unicode="&#x246e;" 
d="M799 1429v0q-129 0 -241.5 -48.5t-198.5 -134t-134.5 -198.5t-48.5 -242t48.5 -242t134.5 -199t198.5 -134.5t241.5 -48.5t242 48.5t199 134.5t134.5 199t48.5 242t-48.5 242t-134.5 198.5t-199 134t-242 48.5zM799 1346v0q112 0 210 -42t172.5 -116.5t116.5 -172
t42 -209.5q0 -149 -73 -272t-195.5 -196t-272.5 -73q-112 0 -209.5 42t-172 116.5t-116.5 172.5t-42 210t42 209.5t116.5 172t172 116.5t209.5 42zM1153 1150h-239l-129 -261q144 -6 219 -70q74 -62 74 -151q0 -64 -43 -106q-44 -44 -102 -44q-36 0 -73 25q-38 26 -58 26
q-39 0 -39 -37q0 -30 29 -46q29 -18 85 -18q96 0 175 64q90 74 90 188q0 126 -113 197q-76 51 -160 59l45 89h201zM714 464v18q-59 0 -73 19q-10 14 -10 82v567h-18l-163 -80l7 -16q32 15 52 15q30 0 37 -36q2 -9 2 -31v-57v-362q0 -67 -11 -82q-16 -19 -75 -19v-18h252z
" />
    <glyph glyph-name="uni246F" unicode="&#x246f;" 
d="M799 1429v0q-129 0 -241.5 -48.5t-198.5 -134t-134.5 -198.5t-48.5 -242t48.5 -242t134.5 -199t198.5 -134.5t241.5 -48.5t242 48.5t199 134.5t134.5 199t48.5 242t-48.5 242t-134.5 198.5t-199 134t-242 48.5zM799 1346v0q112 0 210 -42t172.5 -116.5t116.5 -172
t42 -209.5q0 -149 -73 -272t-195.5 -196t-272.5 -73q-112 0 -209.5 42t-172 116.5t-116.5 172.5t-42 210t42 209.5t116.5 172t172 116.5t209.5 42zM1140 696v0q0 98 -63 155q-49 43 -107 43q-72 0 -143 -50q30 125 109 207q82 81 190 85v18h-28q-134 0 -244 -106
q-139 -129 -139 -315q0 -113 60 -193q59 -82 151 -82q93 0 156 75q58 70 58 163zM1051 643v0q0 -74 -34 -117q-30 -39 -76 -40q-57 -4 -97 71q-35 67 -35 144q0 17 3 43.5t7 63.5q68 43 103 43q63 0 99 -66q30 -57 30 -142zM714 464v18q-59 0 -73 19q-10 14 -10 82v567h-18
l-163 -80l7 -16q32 15 52 15q30 0 37 -36q2 -9 2 -31v-57v-362q0 -67 -11 -82q-16 -19 -75 -19v-18h252z" />
    <glyph glyph-name="uni2470" unicode="&#x2470;" 
d="M799 1429v0q-129 0 -241.5 -48.5t-198.5 -134t-134.5 -198.5t-48.5 -242t48.5 -242t134.5 -199t198.5 -134.5t241.5 -48.5t242 48.5t199 134.5t134.5 199t48.5 242t-48.5 242t-134.5 198.5t-199 134t-242 48.5zM799 1346v0q112 0 210 -42t172.5 -116.5t116.5 -172
t42 -209.5q0 -149 -73 -272t-195.5 -196t-272.5 -73q-112 0 -209.5 42t-172 116.5t-116.5 172.5t-42 210t42 209.5t116.5 172t172 116.5t209.5 42zM1145 1132v18h-359l-65 -159l15 -4q24 43 40 54q34 28 107 28h184l-200 -605h54zM714 464v18q-59 0 -73 19q-10 14 -10 82
v567h-18l-163 -80l7 -16q32 15 52 15q30 0 37 -36q2 -9 2 -31v-57v-362q0 -67 -11 -82q-16 -19 -75 -19v-18h252z" />
    <glyph glyph-name="uni2471" unicode="&#x2471;" 
d="M799 1429v0q-129 0 -241.5 -48.5t-198.5 -134t-134.5 -198.5t-48.5 -242t48.5 -242t134.5 -199t198.5 -134.5t241.5 -48.5t242 48.5t199 134.5t134.5 199t48.5 242t-48.5 242t-134.5 198.5t-199 134t-242 48.5zM799 1346v0q112 0 210 -42t172.5 -116.5t116.5 -172
t42 -209.5q0 -149 -73 -272t-195.5 -196t-272.5 -73q-112 0 -209.5 42t-172 116.5t-116.5 172.5t-42 210t42 209.5t116.5 172t172 116.5t209.5 42zM1142 634v0q0 65 -55 128q-26 30 -98 85q63 41 90 68q48 48 48 100q0 49 -35 88q-48 57 -145 57q-78 0 -128 -43
q-56 -44 -56 -116q0 -58 42 -111q22 -24 84 -77q-135 -92 -135 -185q0 -61 49 -110q56 -54 144 -54q103 0 156 62q39 47 39 108zM1055 1021v0q0 -52 -26 -88q-11 -19 -63 -67q-38 31 -62 51.5t-35 32.5q-34 38 -34 84q0 45 32 72q36 26 81 26q107 0 107 -111zM1072 594v0
q0 -46 -35 -75q-32 -28 -84 -28t-88 37q-36 38 -36 103q0 94 82 164q26 -22 52.5 -43t50.5 -44q58 -55 58 -114zM714 464v18q-59 0 -73 19q-10 14 -10 82v567h-18l-163 -80l7 -16q32 15 52 15q30 0 37 -36q2 -9 2 -31v-57v-362q0 -67 -11 -82q-16 -19 -75 -19v-18h252z" />
    <glyph glyph-name="uni2472" unicode="&#x2472;" 
d="M799 1429v0q-129 0 -241.5 -48.5t-198.5 -134t-134.5 -198.5t-48.5 -242t48.5 -242t134.5 -199t198.5 -134.5t241.5 -48.5t242 48.5t199 134.5t134.5 199t48.5 242t-48.5 242t-134.5 198.5t-199 134t-242 48.5zM799 1346v0q112 0 210 -42t172.5 -116.5t116.5 -172
t42 -209.5q0 -149 -73 -272t-195.5 -196t-272.5 -73q-112 0 -209.5 42t-172 116.5t-116.5 172.5t-42 210t42 209.5t116.5 172t172 116.5t209.5 42zM1189 876v0q0 104 -56 187q-61 90 -159 90q-83 0 -145 -68q-63 -71 -63 -173q0 -81 44 -137q48 -63 126 -63q66 0 141 51
q-28 -120 -114 -213q-72 -75 -184 -79v-19h28q148 0 269 133q113 127 113 291zM1095 901v0q0 -15 -2.5 -41t-7.5 -62q-11 -13 -45 -27q-36 -14 -63 -14q-56 0 -89 57q-34 56 -34 150q0 72 32 115q27 39 78 42q46 1 87 -55q44 -65 44 -165zM714 464v18q-59 0 -73 19
q-10 14 -10 82v567h-18l-163 -80l7 -16q32 15 52 15q30 0 37 -36q2 -9 2 -31v-57v-362q0 -67 -11 -82q-16 -19 -75 -19v-18h252z" />
    <glyph glyph-name="uni2473" unicode="&#x2473;" 
d="M799 1429v0q-129 0 -241.5 -48.5t-198.5 -134t-134.5 -198.5t-48.5 -242t48.5 -242t134.5 -199t198.5 -134.5t241.5 -48.5t242 48.5t199 134.5t134.5 199t48.5 242t-48.5 242t-134.5 198.5t-199 134t-242 48.5zM799 1346v0q112 0 210 -42t172.5 -116.5t116.5 -172
t42 -209.5q0 -149 -73 -272t-195.5 -196t-272.5 -73q-112 0 -209.5 42t-172 116.5t-116.5 172.5t-42 210t42 209.5t116.5 172t172 116.5t209.5 42zM828 593h-19q-27 -40 -61 -49q-16 -5 -82 -5h-175q24 21 153 162q144 155 144 272q0 79 -61 129q-55 48 -132 48
q-96 0 -148 -73q-34 -50 -43 -117h18q39 113 148 113q42 0 82 -29q50 -42 50 -117q0 -80 -71 -184q-22 -32 -51 -66.5t-65 -69.5q-19 -20 -51.5 -51.5t-78.5 -73.5v-18h395zM1258 803v0q0 75 -20 156.5t-67.5 138t-128.5 56.5q-61 0 -103.5 -36.5t-67.5 -92t-36.5 -116
t-11.5 -108.5q0 -47 11 -105.5t36 -113t66 -89.5t101 -35q63 0 106 34.5t68 88.5t36 113.5t11 108.5zM1176 789v0q0 -172 -34.5 -236t-93.5 -64q-46 0 -74 33t-42.5 82.5t-19.5 100t-5 84.5t3.5 89t15.5 111t38 94.5t71 38.5q50 0 78.5 -38.5t42 -95t17 -111.5t3.5 -88z" />
    <glyph glyph-name="lozenge" unicode="&#x25ca;" horiz-adv-x="1101" 
d="M1028 803l-414 -803h-129l-414 803l414 787h129zM901 803l-350 671l-352 -671l352 -688z" />
    <glyph glyph-name="uni25CC" unicode="&#x25cc;" horiz-adv-x="1108" 
d="M435 890q4 -8 4 -20q0 -19 -12.5 -34.5t-33.5 -15.5q-20 0 -36 14t-16 36q0 19 15 34.5t36 15.5q31 0 43 -30zM763 100q4 -12 4 -18q0 -19 -14.5 -34.5t-35.5 -15.5q-19 0 -34.5 14.5t-15.5 36.5q0 18 14 33.5t33 15.5q34 0 49 -32zM286 813q15 -15 15 -35q0 -49 -49 -49
q-21 0 -35.5 14t-14.5 33q0 21 15 36t34 15t35 -14zM891 210q14 -16 14 -36q0 -19 -13.5 -34t-36.5 -15q-21 0 -35 15t-14 34q0 20 13.5 34.5t33.5 14.5t38 -13zM177 685q33 -13 33 -48q0 -20 -16 -34t-35 -14q-22 0 -35.5 15.5t-13.5 34.5q0 21 15 35.5t34 14.5q6 0 18 -4z
M967 358q31 -14 31 -45q0 -22 -15 -35.5t-35 -13.5q-23 0 -36.5 15t-13.5 34q0 24 16 36t35 12q11 0 18 -3zM126 525q20 0 35.5 -14t15.5 -34q0 -21 -15.5 -36t-34.5 -15h-2q-20 0 -33.5 15.5t-13.5 34.5q0 20 13.5 34.5t34.5 14.5zM980 526q20 0 35 -15t15 -35
q0 -19 -14.5 -34t-34.5 -15h-4q-19 0 -33 14.5t-14 33.5q0 21 15.5 35.5t34.5 15.5zM140 357q8 4 20 4q20 0 35 -13.5t15 -33.5q0 -19 -14.5 -35t-35.5 -16q-19 0 -34.5 15t-15.5 36q0 33 30 43zM929 685q14 4 19 4q19 0 34.5 -14.5t15.5 -35.5q0 -19 -14.5 -34.5
t-36.5 -15.5q-19 0 -33.5 14.5t-14.5 34.5q0 34 30 47zM217 208q15 15 33 15q22 0 36.5 -14t14.5 -35q0 -19 -14.5 -34.5t-34.5 -15.5q-19 0 -34.5 15.5t-15.5 34.5q0 17 15 34zM820 813q16 14 35 14q22 0 35.5 -15t13.5 -35t-14.5 -34.5t-34.5 -14.5t-34 15t-14 34
q0 20 13 36zM345 99q6 14 20 23t27 9q21 0 34.5 -15.5t13.5 -34.5q0 -21 -15 -35t-34 -14q-20 0 -35 15.5t-15 33.5q0 6 4 18zM671 889q16 31 46 31q21 0 35.5 -15.5t14.5 -35.5q0 -21 -15.5 -35t-34.5 -14q-21 0 -35 16t-14 35q0 8 3 18zM505 48q0 20 14.5 35t34.5 15
t35 -15t15 -35t-15 -34t-35 -14t-34.5 14t-14.5 34zM505 902q0 20 14.5 35t34.5 15t35 -15t15 -35t-15 -34.5t-35 -14.5t-34.5 14.5t-14.5 34.5z" />
    <glyph glyph-name="uni2776" unicode="&#x2776;" 
d="M1423 806v0q0 129 -48.5 242t-134.5 198.5t-199 134t-242 48.5t-241.5 -48.5t-198.5 -134t-134.5 -198.5t-48.5 -242t48.5 -242t134.5 -199t198.5 -134.5t241.5 -48.5t242 48.5t199 134.5t134.5 199t48.5 242zM928 464h-252v18q59 0 75 19q12 17 12 82v362q0 35 -0.5 57
t-2.5 31q-7 36 -37 36q-20 0 -52 -15l-7 16l163 80h18v-567q0 -68 10 -82q14 -19 73 -19v-18z" />
    <glyph glyph-name="uni2777" unicode="&#x2777;" 
d="M1423 806v0q0 129 -48.5 242t-134.5 198.5t-199 134t-242 48.5t-241.5 -48.5t-198.5 -134t-134.5 -198.5t-48.5 -242t48.5 -242t134.5 -199t198.5 -134.5t241.5 -48.5t242 48.5t199 134.5t134.5 199t48.5 242zM1023 593l-47 -129h-395v18q45 42 77.5 73.5t51.5 51.5
q36 35 65 69.5t51 66.5q71 104 71 184q0 75 -50 117q-40 29 -82 29q-107 0 -148 -113h-17q9 69 42 117q52 73 148 73q77 0 132 -48q61 -49 61 -129q0 -117 -144 -272q-129 -141 -153 -162h175q66 0 82 5q34 9 61 49h19z" />
    <glyph glyph-name="uni2778" unicode="&#x2778;" 
d="M1423 806v0q0 129 -48.5 242t-134.5 198.5t-199 134t-242 48.5t-241.5 -48.5t-198.5 -134t-134.5 -198.5t-48.5 -242t48.5 -242t134.5 -199t198.5 -134.5t241.5 -48.5t242 48.5t199 134.5t134.5 199t48.5 242zM989 691v0q0 -103 -73 -169q-72 -64 -193 -64
q-116 0 -116 54q0 15 12 25q12 9 27 9q24 0 65 -22q40 -23 78 -23q47 0 87 37q39 38 39 94q0 111 -98 151q-39 17 -97 19v16q43 5 85 33q67 46 67 122q0 59 -39 90q-31 23 -70 23q-79 0 -130 -82l-17 9q29 60 54 87q50 54 128 54q85 0 126 -53q30 -37 30 -82q0 -73 -90 -151
q125 -47 125 -177z" />
    <glyph glyph-name="uni2779" unicode="&#x2779;" 
d="M1423 806v0q0 129 -48.5 242t-134.5 198.5t-199 134t-242 48.5t-241.5 -48.5t-198.5 -134t-134.5 -198.5t-48.5 -242t48.5 -242t134.5 -199t198.5 -134.5t241.5 -48.5t242 48.5t199 134.5t134.5 199t48.5 242zM1004 643h-88v-178h-82v178h-284v61l311 447h55v-438h88v-70
zM834 713v333l-236 -333h236z" />
    <glyph glyph-name="uni277A" unicode="&#x277a;" 
d="M1423 806v0q0 129 -48.5 242t-134.5 198.5t-199 134t-242 48.5t-241.5 -48.5t-198.5 -134t-134.5 -198.5t-48.5 -242t48.5 -242t134.5 -199t198.5 -134.5t241.5 -48.5t242 48.5t199 134.5t134.5 199t48.5 242zM986 1150l-38 -85h-201l-45 -89q83 -8 161 -59
q113 -71 113 -197q0 -115 -91 -188q-77 -64 -175 -64q-55 0 -84 18q-30 17 -30 46q0 37 39 37q21 0 59 -26q37 -25 72 -25q59 0 103 44q42 42 42 106q0 89 -73 151q-77 64 -219 70l128 261h239z" />
    <glyph glyph-name="uni277B" unicode="&#x277b;" 
d="M1423 806v0q0 129 -48.5 242t-134.5 198.5t-199 134t-242 48.5t-241.5 -48.5t-198.5 -134t-134.5 -198.5t-48.5 -242t48.5 -242t134.5 -199t198.5 -134.5t241.5 -48.5t242 48.5t199 134.5t134.5 199t48.5 242zM997 696v0q0 -93 -58 -163q-63 -75 -156 -75q-92 0 -151 82
q-60 80 -60 193q0 185 139 315q110 106 244 106h28v-18q-108 -4 -189 -85q-80 -82 -110 -207q73 50 143 50q58 0 107 -43q63 -55 63 -155zM908 643v0q0 85 -30 142q-36 66 -99 66q-35 0 -103 -43q-4 -37 -7 -63.5t-3 -43.5q0 -77 35 -144q40 -75 97 -71q46 1 76 40
q34 43 34 117z" />
    <glyph glyph-name="uni277C" unicode="&#x277c;" 
d="M1423 806v0q0 129 -48.5 242t-134.5 198.5t-199 134t-242 48.5t-241.5 -48.5t-198.5 -134t-134.5 -198.5t-48.5 -242t48.5 -242t134.5 -199t198.5 -134.5t241.5 -48.5t242 48.5t199 134.5t134.5 199t48.5 242zM1002 1132l-224 -668h-53l199 605h-184q-72 0 -107 -28
q-16 -12 -39 -54l-16 4l66 159h358v-18z" />
    <glyph glyph-name="uni277D" unicode="&#x277d;" 
d="M1423 806v0q0 129 -48.5 242t-134.5 198.5t-199 134t-242 48.5t-241.5 -48.5t-198.5 -134t-134.5 -198.5t-48.5 -242t48.5 -242t134.5 -199t198.5 -134.5t241.5 -48.5t242 48.5t199 134.5t134.5 199t48.5 242zM995 628v0q0 -62 -40 -108q-52 -62 -156 -62q-89 0 -143 54
q-49 48 -49 110q0 93 134 185q-64 55 -83 77q-43 52 -43 111q0 72 56 116q50 43 128 43q96 0 146 -57q34 -40 34 -88q0 -53 -47 -100q-14 -14 -37 -31t-54 -37q72 -53 99 -85q55 -63 55 -128zM908 1015v0q0 111 -107 111q-47 0 -81 -26q-32 -26 -32 -72q0 -47 33 -84
q19 -22 98 -84q48 45 63 67q26 38 26 88zM924 588v0q0 28 -13.5 57t-44.5 57q-24 23 -50 44t-52 43q-82 -69 -82 -164q0 -65 35 -103q35 -36 88 -36q52 0 85 27q34 28 34 75z" />
    <glyph glyph-name="uni277E" unicode="&#x277e;" 
d="M1423 806v0q0 129 -48.5 242t-134.5 198.5t-199 134t-242 48.5t-241.5 -48.5t-198.5 -134t-134.5 -198.5t-48.5 -242t48.5 -242t134.5 -199t198.5 -134.5t241.5 -48.5t242 48.5t199 134.5t134.5 199t48.5 242zM1010 882v0q0 -164 -113 -291q-121 -133 -269 -133h-27v19
q111 4 183 79q86 93 114 213q-75 -51 -140 -51q-78 0 -126 63q-44 56 -44 136q0 105 63 174q60 68 145 68q98 0 158 -90q56 -83 56 -187zM916 907v0q0 102 -44 165q-40 56 -87 55q-49 -3 -77 -42q-32 -41 -32 -115q0 -95 33 -150q35 -57 89 -57q29 0 63 14q33 14 46 27
q9 72 9 103z" />
    <glyph glyph-name="uni277F" unicode="&#x277f;" 
d="M1423 806v0q0 129 -48.5 242t-134.5 198.5t-199 134t-242 48.5t-241.5 -48.5t-198.5 -134t-134.5 -198.5t-48.5 -242t48.5 -242t134.5 -199t198.5 -134.5t241.5 -48.5t242 48.5t199 134.5t134.5 199t48.5 242zM1158 810v0q0 -143 -56 -244q-63 -108 -164 -108
q-95 0 -158 106q-57 101 -57 237q0 156 67 257q62 96 152 96q89 0 150 -91q66 -99 66 -253zM714 464h-252v18q59 0 75 19q11 15 11 82v362v57t-2 31q-7 36 -37 36q-20 0 -52 -15l-7 16l163 80h18v-567q0 -68 10 -82q14 -19 73 -19v-18zM1061 833v0q0 138 -31 213
q-31 76 -89 76q-51 0 -81 -64q-39 -85 -39 -269q0 -146 32 -225q30 -75 87 -75q121 0 121 344z" />
    <glyph glyph-name="uni3000" unicode="&#x3000;" 
 />
    <glyph glyph-name="uni3001" unicode="&#x3001;" 
d="M783 100v0q0 59 -42 131t-86 124q-38 44 -100.5 88.5t-126.5 74.5t-108 30q-5 0 -12.5 -1t-7.5 -9q0 -11 12 -19q38 -22 82.5 -57t79.5 -78q34 -42 58 -86t39 -95q13 -42 18 -88t23.5 -78t68.5 -32q47 0 74.5 26t27.5 69z" />
    <glyph glyph-name="uni3002" unicode="&#x3002;" 
d="M740 225v0q0 92 -64 156t-156 64q-91 0 -155.5 -64t-64.5 -156q0 -91 64.5 -155.5t155.5 -64.5q92 0 156 64.5t64 155.5zM680 225v0q0 -66 -47 -112.5t-113 -46.5t-112.5 46.5t-46.5 112.5t46.5 113t112.5 47t113 -47t47 -113z" />
    <glyph glyph-name="uni3003" unicode="&#x3003;" 
d="M441 1000v0q6 3 7.5 6t4.5 8q3 4 13.5 25t34.5 76t68.5 159t115.5 275q14 28 23.5 58.5t7.5 55.5q-3 27 -18 44t-45 15q-42 -4 -65 -42t-37 -92q-47 -191 -73.5 -303.5t-38.5 -169t-14 -75.5t-1 -24q1 -4 5.5 -11t11.5 -5zM901 1000v0q6 3 7.5 6t4.5 8q3 4 13.5 25
t34.5 76t68.5 159t115.5 275q14 28 23.5 58.5t7.5 55.5q-3 27 -18 44t-45 15q-42 -4 -65 -42t-37 -92q-47 -191 -73.5 -303.5t-38.5 -169t-14 -75.5t-1 -24q1 -4 5.5 -11t11.5 -5z" />
    <glyph glyph-name="uni3008" unicode="&#x3008;" 
d="M1417 -15l63 30l-396 791l396 791l-63 31l-413 -822z" />
    <glyph glyph-name="uni3009" unicode="&#x3009;" 
d="M119 15l64 -30l413 821l-413 822l-64 -31l396 -791z" />
    <glyph glyph-name="uni300A" unicode="&#x300a;" horiz-adv-x="1589" 
d="M1417 -15l63 30l-396 791l396 791l-63 31l-413 -822zM1060 -15l63 30l-396 791l396 791l-63 31l-413 -822z" />
    <glyph glyph-name="uni300B" unicode="&#x300b;" 
d="M119 15l64 -30l413 821l-413 822l-64 -31l396 -791zM476 15l64 -30l413 821l-413 822l-64 -31l396 -791z" />
    <glyph glyph-name="uni300C" unicode="&#x300c;" 
d="M419 0h107v1685h351v108h-458v-1793z" />
    <glyph glyph-name="uni300D" unicode="&#x300d;" 
d="M1084 1793v-1685h-351v-108h458v1793h-107z" />
    <glyph glyph-name="uni300E" unicode="&#x300e;" 
d="M1171 1783h-458v-1783l157 1v1624h301v158zM1141 1753v-98h-301l-10 -1625h-87v1723h398z" />
    <glyph glyph-name="uni300F" unicode="&#x300f;" 
d="M733 0v158h301v1634l157 1v-1793h-458zM763 30h398v1733h-87l-10 -1635h-301v-98z" />
    <glyph glyph-name="uni3010" unicode="&#x3010;" 
d="M693 0h787q-112 63 -191.5 168.5t-130 232t-74 255.5t-23.5 240q0 119 25 248.5t76.5 253.5t130.5 227t187 167h-787v-1792z" />
    <glyph glyph-name="uni3011" unicode="&#x3011;" 
d="M120 0h787v1792h-787q108 -64 187 -167t130.5 -227t76.5 -253.5t25 -248.5q0 -111 -23.5 -240t-74 -255.5t-130 -232t-191.5 -168.5z" />
    <glyph glyph-name="uni3012" unicode="&#x3012;" horiz-adv-x="1599" 
d="M853 0v1269h560v104h-1227v-104h561v-1269h106zM186 1689h1227v104h-1227v-104z" />
    <glyph glyph-name="uni3013" unicode="&#x3013;" horiz-adv-x="1599" 
d="M186 1289h1227v504h-1227v-504zM186 0h1227v504h-1227v-504z" />
    <glyph glyph-name="uni3014" unicode="&#x3014;" 
d="M1118 -12l-413 323v1160l413 322l64 -86l-370 -289v-1057l370 -287z" />
    <glyph glyph-name="uni3015" unicode="&#x3015;" 
d="M896 311l-413 -323l-64 86l370 287v1057l-370 289l64 86l413 -322v-1160z" />
    <glyph glyph-name="uni3016" unicode="&#x3016;" 
d="M1196 105h-398v1582l398 1q-77 -100 -131 -235.5t-81.5 -281t-27.5 -275.5q0 -60 8 -150.5t32.5 -198.5t72.5 -221.5t127 -220.5zM693 0h787q-112 63 -191.5 168.5t-130 232t-74 255.5t-23.5 240q0 119 25 248.5t76.5 253.5t130.5 227t187 167h-787v-1792z" />
    <glyph glyph-name="uni3017" unicode="&#x3017;" 
d="M802 105h-398q80 107 127.5 220.5t72 221.5t32.5 198.5t8 150.5q0 130 -27.5 275.5t-81 281t-131.5 235.5l398 -1v-1582zM120 0h787v1792h-787q108 -64 187 -167t130.5 -227t76.5 -253.5t25 -248.5q0 -111 -23.5 -240t-74 -255.5t-130 -232t-191.5 -168.5z" />
    <glyph glyph-name="uni30FB" unicode="&#x30fb;" horiz-adv-x="1599" 
d="M798 992v0q-77 0 -131 -53q-54 -55 -54 -133t54 -131q55 -55 131 -55q79 0 134 55q54 53 54 131t-54 133q-54 53 -134 53z" />
    <glyph glyph-name="uniA000" unicode="&#xa000;" 
d="M210 660h262q2 -128 20.5 -249.5t66.5 -218.5t135.5 -154.5t227.5 -57.5q146 0 235.5 63.5t136.5 169.5t63.5 236.5t16.5 264.5v1079h-107v-335h-688v335h-107v-1029h-262v-104zM839 660v104h-260v590h688v-640q0 -186 -28.5 -328t-103 -222t-213.5 -80
q-132 0 -205.5 72.5t-104 202t-33.5 301.5h260z" />
    <glyph glyph-name="uniA001" unicode="&#xa001;" 
d="M1016 1951l88 61q-21 30 -70 62t-112 54t-128 22t-126 -22t-109 -54t-74 -62l83 -67q17 19 52.5 42.5t81 40.5t92.5 17q49 0 95.5 -17t81 -39t45.5 -38zM602 374l8 -5l-2 7q-4 -2 -6 -2zM579 714v0v191q119 -29 204 -100.5t85 -168.5q0 -86 -75.5 -156t-184.5 -104
q-16 71 -22.5 156.5t-6.5 181.5zM922 -20v0q146 0 235.5 63.5t136.5 169.5t63.5 236.5t16.5 264.5v1079h-107v-335h-688v335h-107v-767q-10 2 -18.5 1.5t-20.5 -0.5h-153v-104h153h19.5t19.5 -1v-208q0 -94 7 -186t26 -177q-18 -2 -36.5 -3t-35.5 -1h-153v-104h153
q25 0 50.5 2t51.5 6q44 -120 136 -195.5t251 -75.5zM974 636v0q0 105 -57.5 181.5t-147.5 125t-190 68.5v343h688v-640q0 -186 -28.5 -328t-103 -222t-213.5 -80q-108 0 -176.5 51t-106.5 142q88 28 164.5 78.5t123.5 121.5t47 159z" />
    <glyph glyph-name="uniA002" unicode="&#xa002;" 
d="M535 367l8 -5q-2 4 -2 7q-4 -2 -6 -2zM511 714v0v196q76 -16 140 -54t103.5 -94t39.5 -126q0 -92 -74.5 -163t-178.5 -104q-17 73 -23.5 160t-6.5 185zM855 -20v0q146 0 235 63.5t135.5 169.5t63 236.5t16.5 264.5v1079h-106v-320h-688v320h-107v-766h-140v-104h140v-209
q0 -94 7.5 -187.5t26.5 -177.5q-20 -2 -35 -2h-139v-104h139q17 0 33 0.5t32 3.5q45 -118 136.5 -192.5t250.5 -74.5zM901 636v0q0 108 -57.5 186.5t-147 127.5t-185.5 66v353h688v-655q0 -186 -28.5 -328t-103 -222t-212.5 -80q-109 0 -175.5 48t-104.5 138
q84 27 158.5 78.5t121 124t46.5 163.5z" />
    <glyph glyph-name="uniA003" unicode="&#xa003;" 
d="M552 247l8 -1l-5 4zM435 552v0q0 100 38.5 181t103.5 138q69 -64 116.5 -144.5t45.5 -166.5q-2 -88 -55.5 -167.5t-128.5 -142.5q-55 56 -87.5 132t-32.5 170zM944 0v0h175v1623l220 -165l66 83l-393 294v-732h-68q-203 0 -362 -99q-100 77 -204.5 120t-167.5 43v-103
q47 0 125 -34t159 -92q-76 -70 -121 -167.5t-45 -218.5q0 -113 38.5 -204.5t104.5 -161.5q-75 -49 -147.5 -79t-113.5 -30v-104q54 0 150.5 38t192.5 105q82 -57 182.5 -86.5t208.5 -29.5zM845 558v0q2 108 -50 202.5t-131 171.5q121 67 280 67h68v-895h-68
q-84 0 -162.5 21.5t-141.5 59.5q85 74 144.5 168.5t60.5 204.5z" />
    <glyph glyph-name="uniA004" unicode="&#xa004;" 
d="M176 407h180q62 -205 179.5 -302t269.5 -97q151 0 265.5 94t179.5 290.5t65 503.5q0 132 -12.5 242.5t-34.5 200.5q54 81 84 179.5t30 209.5h-106q0 -140 -53 -252q-67 158 -174.5 233.5t-243.5 75.5q-129 0 -232.5 -68.5t-170.5 -214.5q-20 51 -31.5 108t-11.5 118h-106
q0 -101 25.5 -192t71.5 -168q-26 -94 -40 -211.5t-14 -260.5q0 -112 9 -207t26 -178h-155v-104zM465 1386l1 -5q0 1 1 2q-2 2 -2 3zM805 1681v0q104 0 198 -71t149 -250q-67 -84 -154 -130.5t-179 -46.5q-99 0 -192.5 53t-159.5 147q55 167 146.5 232.5t191.5 65.5zM636 407
v104h-197q-17 79 -27 174.5t-10 210.5q0 211 32 362q76 -83 175 -131t210 -48q101 0 195.5 44t167.5 114q26 -145 26 -341q0 -225 -33.5 -376.5t-91 -241t-129.5 -128t-149 -38.5q-98 0 -189 65.5t-147 229.5h167z" />
    <glyph glyph-name="uniA005" unicode="&#xa005;" 
d="M1016 1951l88 61q-21 30 -70 62t-112 54t-129 22q-64 0 -125.5 -22t-109.5 -54t-73 -62l83 -67q25 29 90 64.5t135 35.5q50 0 96.5 -17t81 -39t45.5 -38zM845 -16v515q136 10 251.5 63t186 139t70.5 196q0 111 -70.5 196.5t-186 137.5t-251.5 62v354l438 -202l45 94
l-589 270v-516q-135 -10 -251 -62t-186.5 -137.5t-70.5 -196.5q0 -110 70.5 -196t186.5 -139t251 -63v-353l-438 202l-45 -94zM1246 897v0q0 -75 -58 -143t-160.5 -110.5t-235.5 -42.5t-235.5 42.5t-160.5 110.5t-58 143q0 76 58 143t160.5 109t235.5 42t235.5 -42
t160.5 -109t58 -143z" />
    <glyph glyph-name="uniA006" unicode="&#xa006;" 
d="M845 -16v515q136 10 251.5 63t186 139t70.5 196q0 111 -70.5 196.5t-186 137.5t-251.5 62v354l438 -202l45 94l-589 270v-516q-135 -10 -251 -62t-186.5 -137.5t-70.5 -196.5q0 -110 70.5 -196t186.5 -139t251 -63v-353l-438 202l-45 -94zM1246 897v0q0 -75 -58 -143
t-160.5 -110.5t-235.5 -42.5t-235.5 42.5t-160.5 110.5t-58 143q0 76 58 143t160.5 109t235.5 42t235.5 -42t160.5 -109t58 -143z" />
    <glyph glyph-name="uniA007" unicode="&#xa007;" 
d="M1199 251v-192h106v486h-106v-188q-61 7 -142.5 29t-159.5 68q24 183 24 442q0 131 -5.5 241.5t-17.5 202.5q77 47 158 68t143 28v-188h106v486h-106v-192q-64 -6 -149 -28t-171 -65q-73 371 -295 371q-178 0 -257.5 -228.5t-79.5 -695.5q0 -472 79.5 -697.5
t257.5 -225.5q222 0 295 371q86 -43 171 -65t149 -28zM806 1275l-10 4q0 -3 0.5 -6t0.5 -6zM814 896v0q0 -110 -4.5 -202t-12.5 -169q-67 62 -111.5 153t-44.5 218q0 128 44.5 218.5t111.5 152.5q8 -76 12.5 -168.5t4.5 -202.5zM786 402l-3 6q0 -1 -0.5 -2t-0.5 -2zM584 77
v0q-44 0 -85.5 35.5t-74.5 125t-52 249.5t-19 409q0 246 19 405.5t52 250.5t74.5 127.5t85.5 36.5q40 0 77.5 -29t69 -99.5t51.5 -197.5q-104 -75 -176 -195.5t-72 -298.5q0 -176 72.5 -297t175.5 -195q-20 -127 -52 -198.5t-69.5 -100t-76.5 -28.5z" />
    <glyph glyph-name="uniA008" unicode="&#xa008;" 
d="M739 705v-705h106v1393l460 -307v707h-106v-512l-460 308v-739l-421 405l-74 -74q122 -118 247 -237.5t248 -238.5z" />
    <glyph glyph-name="uniA009" unicode="&#xa009;" 
d="M1014 1904l88 61q-21 29 -70 61t-112.5 54t-129.5 22q-64 0 -125.5 -22t-109.5 -54t-73 -61l83 -67q17 19 52 42.5t80.5 41t92.5 17.5q50 0 97.5 -17.5t81.5 -40t45 -37.5zM739 869v-705l-430 289l-61 -85l597 -402v1662l354 -242v-1386h106v1793h-106v-282l-460 315
v-831l-430 293l-61 -85q121 -83 245.5 -167t245.5 -167z" />
    <glyph glyph-name="uniA00A" unicode="&#xa00a;" 
d="M739 869v-705l-430 289l-61 -85l597 -402v1662l354 -242v-1386h106v1793h-106v-282l-460 315v-831l-430 293l-61 -85q121 -83 245.5 -167t245.5 -167z" />
    <glyph glyph-name="uniA00B" unicode="&#xa00b;" 
d="M845 1614l206 -169q-15 -63 -15 -135q0 -99 39 -195.5t105.5 -180.5t148.5 -147l67 84q-112 83 -183.5 202t-71.5 237q0 138 72 252t181 187l-61 85q-79 -53 -143 -124t-103 -159l-348 288v-844l-430 293l-61 -85q121 -83 245.5 -167t245.5 -167v-706l-431 286l-61 -85
l598 -397v1647z" />
    <glyph glyph-name="uniA00C" unicode="&#xa00c;" 
d="M1016 1951l88 61q-21 30 -70 62t-112 54t-129 22q-64 0 -125.5 -22t-109.5 -54t-73 -62l83 -67q25 29 90 64.5t135 35.5q50 0 96.5 -17t81 -39t45.5 -38zM845 1287v359h-106v-359h106zM385 0v844h814v-844h106v1793h-106v-845h-814v845h-107v-1793h107zM845 146v359h-106
v-359h106z" />
    <glyph glyph-name="uniA00D" unicode="&#xa00d;" 
d="M845 1287v359h-106v-359h106zM385 0v844h814v-844h106v1793h-106v-845h-814v845h-107v-1793h107zM845 146v359h-106v-359h106z" />
    <glyph glyph-name="uniA00E" unicode="&#xa00e;" 
d="M1163 730v385q72 17 113 71t58.5 127.5t17.5 147.5q0 83 -22.5 164t-74.5 134.5t-143 53.5t-144 -53.5t-75 -134.5t-22 -164q0 -74 17 -147t57.5 -127t110.5 -71v-386q0 -209 -25 -340t-65 -202t-86 -97.5t-88 -26.5t-88 27t-86 98t-65 202t-25 339v385q73 15 114.5 69
t59 128.5t17.5 148.5q0 83 -22.5 164t-74.5 134.5t-143 53.5t-143.5 -53.5t-74.5 -134.5t-22 -164q0 -73 17 -146t57 -127t109 -72v-386q0 -277 48 -446t131.5 -246.5t190.5 -77.5q108 0 192 76.5t131.5 245.5t47.5 448zM1245 1461v0q0 -123 -37 -185t-96 -62q-58 0 -96 62
t-38 185q0 124 38 186t96 62q59 0 96 -62t37 -186zM613 1461v0q0 -123 -37.5 -185t-96.5 -62q-58 0 -95.5 62t-37.5 185q0 124 37.5 186t95.5 62q59 0 96.5 -62t37.5 -186z" />
    <glyph glyph-name="uniA00F" unicode="&#xa00f;" 
d="M1073 -22l-36 99q-22 -8 -50.5 -15.5t-80 -11.5t-142.5 -4q-97 0 -175.5 28.5t-124 75t-45.5 99.5q0 55 54 101t134.5 74.5t160.5 28.5h152v103h-156q-23 0 -78.5 9.5t-117 27t-105.5 42.5t-44 56q0 26 33 62t114.5 63.5t225.5 27.5h53v180q136 10 251.5 63t186 139
t70.5 195q0 118 -79 208t-207 140.5t-275 50.5q-146 0 -274.5 -50.5t-207.5 -140.5t-79 -208q0 -109 70.5 -195t186.5 -139t251 -63v-77q-199 -10 -313 -81.5t-114 -174.5q0 -49 33.5 -86.5t80.5 -64t89 -42.5q-83 -37 -143 -98.5t-60 -150.5q0 -75 40.5 -132t107 -96
t146 -59t158.5 -20q95 0 152 4.5t92.5 13t64.5 18.5zM739 1714v-587q-118 9 -208.5 52.5t-141.5 107.5t-51 134q0 71 51 134.5t141.5 106.5t208.5 52zM1246 1421v0q0 -70 -51 -134t-141 -107.5t-209 -52.5v587q119 -9 209 -52t141 -106.5t51 -134.5z" />
    <glyph glyph-name="uniA010" unicode="&#xa010;" 
d="M1015 1951l88 61q-21 30 -69.5 62t-111.5 54t-129 22q-64 0 -125.5 -22t-109.5 -54t-73 -62l83 -67q16 19 51.5 42.5t81 40.5t92.5 17q50 0 96.5 -17t80.5 -39t45 -38zM547 1320l135 -136q-4 -66 -6.5 -137t-2.5 -151q0 -472 79 -697.5t258 -225.5t258.5 225.5
t79.5 697.5q0 473 -79.5 698.5t-258.5 225.5q-133 0 -209.5 -122.5t-106.5 -376.5l-254 253v-1128l-224 220l-75 -74l406 -397v1125zM1241 896v0q0 -249 -19.5 -409t-52.5 -249.5t-74 -125t-85 -35.5t-85.5 35.5t-74 125t-51.5 249.5t-19 409q0 246 19 405.5t51.5 250.5
t74 127.5t85.5 36.5t85 -35.5t74 -125.5t52.5 -250t19.5 -409zM1063 674v446h-107v-446h107z" />
    <glyph glyph-name="uniA011" unicode="&#xa011;" 
d="M533 1379l142 -143q-12 -150 -12 -340q0 -470 75 -696.5t247 -226.5t247.5 226.5t75.5 696.5q0 471 -75.5 697.5t-247.5 226.5q-120 0 -192.5 -113.5t-104.5 -334.5l-262 265v-1145l-142 150l-78 -71l327 -340v1148zM1201 896v0q0 -250 -18 -410t-49 -249t-69.5 -124.5
t-79.5 -35.5t-79.5 35.5t-69.5 124.5t-49 249t-18 410q0 247 18 407t49 250t69.5 126.5t79.5 36.5t79.5 -35.5t69.5 -124.5t49 -249.5t18 -410.5zM1038 673v446h-106v-446h106z" />
    <glyph glyph-name="uniA012" unicode="&#xa012;" 
d="M581 1321l136 -137q-4 -66 -7 -137t-3 -151q0 -472 79 -697.5t257 -225.5q179 0 258.5 225.5t79.5 697.5q0 473 -79.5 698.5t-258.5 225.5q-133 0 -209 -122.5t-105 -376.5l-255 253v-1129l-223 221l-76 -74l406 -397v1126zM1275 896v0q0 -249 -19.5 -409t-52.5 -249.5
t-74.5 -125t-85.5 -35.5t-85 35.5t-73.5 125t-51.5 249.5t-19 409q0 246 19 405.5t51.5 250.5t73.5 127.5t85 36.5t85.5 -35.5t74.5 -125.5t52.5 -250t19.5 -409z" />
    <glyph glyph-name="uniA013" unicode="&#xa013;" 
d="M1016 1951l88 61q-21 30 -70 62t-112 54t-128 22t-126 -22t-109 -54t-74 -62l83 -67q17 19 52.5 42.5t81 40.5t92.5 17q49 0 95.5 -17t81 -39t45.5 -38zM657 782v0q0 57 -22 106t-57 88h378v-813l-311 206l-61 -85l478 -317v1664l310 -207l61 85l-477 317v-747h-372
q34 36 53 81.5t19 101.5q0 155 -107.5 241.5t-334.5 86.5v-103q131 0 204 -28.5t102 -79.5t29 -117q0 -54 -30.5 -95.5t-78 -64.5t-98.5 -23v-103q49 0 97 -25.5t79.5 -69t31.5 -99.5q0 -52 -30.5 -101.5t-104.5 -81t-207 -31.5v-104q230 0 339.5 91.5t109.5 226.5z" />
    <glyph glyph-name="uniA014" unicode="&#xa014;" 
d="M657 782v0q0 57 -22 106t-57 88h378v-813l-311 206l-61 -85l478 -317v1664l310 -207l61 85l-477 317v-747h-372q34 36 53 81.5t19 101.5q0 155 -107.5 241.5t-334.5 86.5v-103q131 0 204 -28.5t102 -79.5t29 -117q0 -54 -30.5 -95.5t-78 -64.5t-98.5 -23v-103
q49 0 97 -25.5t79.5 -69t31.5 -99.5q0 -52 -30.5 -101.5t-104.5 -81t-207 -31.5v-104q230 0 339.5 91.5t109.5 226.5z" />
    <glyph glyph-name="uniA015" unicode="&#xa015;" 
d="M1404 1794h-107q0 -30 -2.5 -95.5t-9.5 -149.5t-21.5 -170.5t-39.5 -160.5t-62 -119.5t-90 -45.5q-52 0 -89.5 45.5t-62.5 119.5t-40 160.5t-22.5 170.5t-10 149.5t-2.5 95.5h-106q0 -30 -2.5 -95.5t-10 -149.5t-22.5 -170.5t-40 -160.5t-62.5 -119.5t-89.5 -45.5
t-89.5 45.5t-62 119.5t-39.5 160.5t-22.5 170.5t-10 149.5t-2.5 95.5h-106q0 -47 3 -127t13 -175.5t31.5 -190.5t58 -175t92 -128.5t134.5 -48.5q86 0 141.5 54t88.5 130t50 143q18 -66 51.5 -142.5t89 -130.5t139.5 -54q79 0 134.5 48.5t92 128t58 175t31.5 191t13 175.5
t3 127zM1143 0v660h-106v-660h106zM547 0v660h-106v-660h106z" />
    <glyph glyph-name="uniA016" unicode="&#xa016;" 
d="M1089 772l232 -228l77 73l-286 278l286 278l-77 74l-232 -228q-6 158 -31.5 301.5t-73.5 256.5t-121.5 178t-177.5 65q-114 0 -192 -78t-125 -210t-67.5 -297t-20.5 -339t20.5 -339t67.5 -297t125 -210t192 -78q104 0 177.5 65t121.5 177.5t73 256.5t32 301zM753 544
l228 224q-9 -212 -48 -367.5t-102 -240t-146 -84.5q-92 0 -159 101t-103.5 285.5t-36.5 433.5t36.5 433.5t103.5 285.5t159 101q83 0 147 -85t103 -240.5t47 -367.5l-229 224l-76 -74l286 -278l-286 -278z" />
    <glyph glyph-name="uniA017" unicode="&#xa017;" 
d="M1016 1951l88 61q-21 30 -70 62t-112 54t-129 22q-64 0 -125.5 -22t-109.5 -54t-73 -62l83 -67q17 19 52.5 42.5t81 40.5t91.5 17q50 0 96.5 -17t81 -39t45.5 -38zM385 0v844h270q10 -178 92 -334.5t220 -282t316 -209.5l46 94q-162 77 -285 190t-196 251.5t-85 290.5
h542v104h-542q12 152 85 290t196 251.5t285 190.5l-46 94q-177 -84 -315.5 -209.5t-220.5 -282t-92 -334.5h-270v845h-107v-1793h107z" />
    <glyph glyph-name="uniA018" unicode="&#xa018;" 
d="M385 0v844h270q10 -178 92 -334.5t220 -282t316 -209.5l46 94q-162 77 -285 190t-196 251.5t-85 290.5h542v104h-542q12 152 85 290t196 251.5t285 190.5l-46 94q-177 -84 -315.5 -209.5t-220.5 -282t-92 -334.5h-270v845h-107v-1793h107z" />
    <glyph glyph-name="uniA019" unicode="&#xa019;" 
d="M1374 564v104h-601q16 110 95 179t195 101.5t243 32.5v103q-102 0 -209 -21.5t-200 -69.5t-155.5 -128t-74.5 -197h-282v906l839 -379v598h-107v-436l-838 379v-1736h106v564h282q12 -118 74 -197.5t155 -127t200.5 -68.5t209.5 -21v104q-128 0 -244.5 31.5t-195 100
t-93.5 178.5h601z" />
    <glyph glyph-name="uniA01A" unicode="&#xa01a;" 
d="M785 844h91q11 -260 118 -475.5t277 -346.5l67 82q-150 114 -247 308t-108 432h322v104h-322q11 238 108 431.5t247 307.5l-67 83q-170 -130 -277 -346t-118 -476h-91q0 67 -3.5 170.5t-18 217t-45.5 214t-85.5 163.5t-138.5 63q-100 0 -155.5 -81.5t-83.5 -193.5
q-28 -114 -40 -268.5t-12 -336.5v-65q0 -71 4 -174t18.5 -214t46 -208t85.5 -157.5t137 -60.5q85 0 139 62.5t85 162.5t45.5 213t18 217t3.5 172zM679 896v0q0 -23 -0.5 -88t-5 -153t-15.5 -181t-31 -173t-52.5 -130t-80.5 -50t-80.5 50t-52.5 130t-30.5 173t-15 181t-5 153
t-0.5 88q0 180 11.5 328t37.5 255q28 108 63 150.5t72 42.5q47 0 79 -50t52 -130t31.5 -173.5t16 -181.5t5.5 -153t1 -88z" />
    <glyph glyph-name="uniA01B" unicode="&#xa01b;" 
d="M1016 1951l88 61q-21 30 -70 62t-112 54t-129 22q-64 0 -125.5 -22t-109.5 -54t-73 -62l83 -67q25 29 90 64.5t135 35.5q50 0 96.5 -17t81 -39t45.5 -38zM1045 1382l-659 -892q-17 82 -26.5 183t-9.5 223q0 240 32 399t85.5 251t120.5 131t136 39q94 0 182 -73t139 -261z
M421 359l654 884q11 -72 17.5 -159t6.5 -188q0 -237 -32 -395t-86 -251t-121 -133t-136 -40q-85 0 -167 62.5t-136 219.5zM1347 1612l-87 59l-137 -182q-63 170 -165 250.5t-234 80.5q-144 0 -252 -97t-168.5 -301t-60.5 -526q0 -473 132.5 -698t348.5 -225q145 0 253 98.5
t168.5 303t60.5 521.5q0 139 -11.5 254t-34.5 209z" />
    <glyph glyph-name="uniA01C" unicode="&#xa01c;" 
d="M1045 1382l-659 -892q-17 82 -26.5 183t-9.5 223q0 240 32 399t85.5 251t120.5 131t136 39q94 0 182 -73t139 -261zM421 359l654 884q11 -72 17.5 -159t6.5 -188q0 -237 -32 -395t-86 -251t-121 -133t-136 -40q-85 0 -167 62.5t-136 219.5zM1347 1612l-87 59l-137 -182
q-63 170 -165 250.5t-234 80.5q-144 0 -252 -97t-168.5 -301t-60.5 -526q0 -473 132.5 -698t348.5 -225q145 0 253 98.5t168.5 303t60.5 521.5q0 139 -11.5 254t-34.5 209z" />
    <glyph glyph-name="uniA01D" unicode="&#xa01d;" 
d="M901 844h24q81 0 154.5 -45t120 -122t46.5 -172q0 -91 -47 -168t-125 -124l54 -88q102 59 163.5 159.5t61.5 220.5q0 128 -65.5 231.5t-166.5 159.5q101 57 166.5 161t65.5 229q0 121 -61.5 221.5t-163.5 159.5l-54 -88q78 -46 125 -123.5t47 -169.5q0 -94 -46.5 -171
t-119.5 -122t-155 -45h-24q-4 444 -84 658t-253 214q-178 0 -257 -228.5t-79 -695.5q0 -472 79 -697.5t257 -225.5q173 0 253 213.5t84 657.5zM795 896v0q0 -249 -19 -409t-52 -249.5t-74.5 -125t-85.5 -35.5t-85 35.5t-73.5 125t-51.5 249.5t-19 409q0 246 19 405.5
t51.5 250.5t73.5 127.5t85 36.5t85.5 -35.5t74.5 -125.5t52 -250t19 -409z" />
    <glyph glyph-name="uniA01E" unicode="&#xa01e;" 
d="M385 721v485h813v-485h106v1072h-106v-483h-813v483h-107v-1072h107zM1184 380v0q0 112 -53 203.5t-142 146.5t-197 55t-197 -55t-142 -146.5t-53 -203.5t53 -204.5t142 -147.5t197 -55t197 55t142 147.5t53 204.5zM1077 380v0q0 -87 -39.5 -155.5t-104.5 -108
t-141 -39.5t-141 39.5t-104.5 108t-39.5 155.5t39.5 155t104.5 107t141 39t141 -39t104.5 -107t39.5 -155z" />
    <glyph glyph-name="uniA01F" unicode="&#xa01f;" 
d="M1014 1904l88 61q-21 29 -70 61t-112.5 54t-129.5 22q-64 0 -125.5 -22t-109.5 -54t-73 -61l83 -67q17 19 52.5 42.5t81 41t91.5 17.5q50 0 97.5 -17.5t81.5 -40t45 -37.5zM445 721v485h693v-485h107v1072h-107v-483h-693v483h-106v-1072h106zM1353 572h-107
q0 -34 -3.5 -94t-14.5 -129t-33 -131t-58.5 -101.5t-90.5 -39.5t-90.5 39.5t-58.5 101.5t-33.5 131t-15 129t-3.5 94h-106q0 -34 -3.5 -94t-15 -129t-33.5 -131t-58.5 -101.5t-91.5 -39.5q-54 0 -90.5 39.5t-58 101.5t-32.5 131t-14.5 129t-3.5 94h-107q0 -54 6 -130.5
t24 -158t51.5 -152t88.5 -114.5t136 -44q69 0 119 33t83.5 84t52.5 105q19 -55 52 -106t82.5 -83.5t119.5 -32.5q82 0 137 44t89 114.5t51.5 151.5t23.5 157.5t6 131.5z" />
    <glyph glyph-name="uniA020" unicode="&#xa020;" 
d="M445 721v485h693v-485h107v1072h-107v-483h-693v483h-106v-1072h106zM1353 572h-107q0 -34 -3.5 -94t-14.5 -129t-33 -131t-58.5 -101.5t-90.5 -39.5t-90.5 39.5t-58.5 101.5t-33.5 131t-15 129t-3.5 94h-106q0 -34 -3.5 -94t-15 -129t-33.5 -131t-58.5 -101.5
t-91.5 -39.5q-54 0 -90.5 39.5t-58 101.5t-32.5 131t-14.5 129t-3.5 94h-107q0 -54 6 -130.5t24 -158t51.5 -152t88.5 -114.5t136 -44q69 0 119 33t83.5 84t52.5 105q19 -55 52 -106t82.5 -83.5t119.5 -32.5q82 0 137 44t89 114.5t51.5 151.5t23.5 157.5t6 131.5z" />
    <glyph glyph-name="uniA021" unicode="&#xa021;" 
d="M445 721v485h693v-485h107v1072h-107v-483h-693v483h-106v-1072h106zM1388 28l-362 600l-91 -54l362 -600zM651 574l-91 54l-364 -600l91 -54z" />
    <glyph glyph-name="uniA022" unicode="&#xa022;" 
d="M1016 1951l88 61q-21 30 -70 62t-112 54t-129 22q-64 0 -125.5 -22t-109.5 -54t-73 -62l83 -67q25 29 90 64.5t135 35.5q50 0 96.5 -17t81 -39t45.5 -38zM1287 415v941q0 117 -41 198t-105 131t-134 72.5t-127 22.5q-208 0 -357 -88.5t-242 -248.5l91 -50q80 135 205 209
t303 74q42 0 93.5 -16.5t98.5 -54t77.5 -99t30.5 -150.5v-941q0 -76 -60 -76q-34 0 -104 28l-623 254v-621h107v464l475 -193q41 -16 74.5 -26t70.5 -10q65 0 101.5 30t51 72t14.5 78zM913 718v103h-135v446h135v104h-379v-104h137v-446h-137v-103h379z" />
    <glyph glyph-name="uniA023" unicode="&#xa023;" 
d="M1287 415v941q0 117 -41 198t-105 131t-134 72.5t-127 22.5q-208 0 -357 -88.5t-242 -248.5l91 -50q80 135 205 209t303 74q42 0 93.5 -16.5t98.5 -54t77.5 -99t30.5 -150.5v-941q0 -76 -60 -76q-34 0 -104 28l-623 254v-621h107v464l475 -193q41 -16 74.5 -26t70.5 -10
q65 0 101.5 30t51 72t14.5 78zM913 718v103h-135v446h135v104h-379v-104h137v-446h-137v-103h379z" />
    <glyph glyph-name="uniA024" unicode="&#xa024;" 
d="M1305 0v104h-460v1585h460v104h-1027v-104h461v-1585h-461v-104h1027z" />
    <glyph glyph-name="uniA025" unicode="&#xa025;" 
d="M342 259l186 212q68 -74 159 -129.5t194 -82.5q62 -134 195.5 -218t301.5 -84v103q-120 0 -218 53.5t-156 142.5t-58 197q0 107 58 196t156 142t218 53v104q-120 0 -218 53t-156 142t-58 196q0 108 58 197t156 142.5t218 53.5v103q-166 0 -300 -83.5t-196 -217.5
q-211 -53 -352 -211l-188 213l-83 -68l205 -229q-49 -75 -76 -162.5t-27 -180.5t26.5 -179t72.5 -160l-201 -230zM778 759l-83 68q-39 -45 -80.5 -92t-80.5 -93q-32 58 -49.5 121.5t-17.5 132.5t19 135t52 124l162 -182l81 65l-181 206q97 114 245 169q-6 -34 -6 -74
q0 -148 81.5 -265.5t213.5 -177.5q-132 -60 -213.5 -177.5t-81.5 -265.5q0 -38 6 -73q-149 56 -248 173z" />
    <glyph glyph-name="uniA026" unicode="&#xa026;" 
d="M1016 1951l88 61q-21 30 -70 62t-112 54t-129 22q-64 0 -125.5 -22t-109.5 -54t-73 -62l83 -67q25 29 90 64.5t135 35.5q50 0 96.5 -17t81 -39t45.5 -38zM1320 896v0q0 325 -67 528.5t-186 299.5t-275 96q-155 0 -274.5 -96t-186.5 -299.5t-67 -528.5q0 -317 67 -521.5
t186.5 -303t274.5 -98.5q156 0 275 97.5t186 301.5t67 524zM1213 896v0q0 -235 -35 -393t-95 -251.5t-135.5 -134t-155.5 -40.5t-155.5 41t-135.5 135t-95.5 251.5t-35.5 391.5q0 238 35 396.5t95 251.5t135.5 132.5t156.5 39.5t156 -39.5t135 -132.5t95 -251.5t35 -396.5z
M1052 423v104h-207v737h207v105h-518v-105h205v-737h-205v-104h518z" />
    <glyph glyph-name="uniA027" unicode="&#xa027;" 
d="M1320 896v0q0 325 -67 528.5t-186 299.5t-275 96q-155 0 -274.5 -96t-186.5 -299.5t-67 -528.5q0 -317 67 -521.5t186.5 -303t274.5 -98.5q156 0 275 97.5t186 301.5t67 524zM1213 896v0q0 -235 -35 -393t-95 -251.5t-135.5 -134t-155.5 -40.5t-155.5 41t-135.5 135
t-95.5 251.5t-35.5 391.5q0 238 35 396.5t95 251.5t135.5 132.5t156.5 39.5t156 -39.5t135 -132.5t95 -251.5t35 -396.5zM1052 423v104h-207v737h207v105h-518v-105h205v-737h-205v-104h518z" />
    <glyph glyph-name="uniA028" unicode="&#xa028;" 
d="M1305 1032v104h-460v553h460v104h-1027v-104h461v-553h-461v-104h1027zM1305 0v104h-460v553h460v104h-1027v-104h461v-553h-461v-104h1027z" />
    <glyph glyph-name="uniA029" unicode="&#xa029;" 
d="M1016 1951l88 61q-21 30 -70 62t-112 54t-129 22q-64 0 -125.5 -22t-109.5 -54t-73 -62l83 -67q25 29 90 64.5t135 35.5q50 0 96.5 -17t81 -39t45.5 -38zM1245 1346h107q0 70 -14 151.5t-48 155t-95 120.5t-154 47q-100 0 -158.5 -60.5t-90.5 -152.5q-31 92 -90 152.5
t-160 60.5q-93 0 -153.5 -47t-94.5 -120.5t-48 -155t-14 -151.5h107q0 47 8 109.5t29.5 122t61.5 99t104 39.5q59 0 96.5 -43.5t58 -112t29.5 -145t11 -143t2 -104.5v-323h106v323q0 38 2 104.5t11 143t29.5 145t57.5 112t96 43.5q64 0 104 -39.5t62 -99t30 -122t8 -109.5z
M847 393v316h-107v-316h107zM1279 474h-107q0 -103 -51.5 -188t-137.5 -135.5t-191 -50.5t-191 50.5t-137.5 135.5t-51.5 188h-107q0 -132 66 -240.5t176.5 -173t244.5 -64.5t244.5 64.5t176.5 173t66 240.5z" />
    <glyph glyph-name="uniA02A" unicode="&#xa02a;" 
d="M1245 1346h107q0 70 -14 151.5t-48 155t-95 120.5t-154 47q-100 0 -158.5 -60.5t-90.5 -152.5q-31 92 -90 152.5t-160 60.5q-93 0 -153.5 -47t-94.5 -120.5t-48 -155t-14 -151.5h107q0 47 8 109.5t29.5 122t61.5 99t104 39.5q59 0 96.5 -43.5t58 -112t29.5 -145t11 -143
t2 -104.5v-323h106v323q0 38 2 104.5t11 143t29.5 145t57.5 112t96 43.5q64 0 104 -39.5t62 -99t30 -122t8 -109.5zM847 393v316h-107v-316h107zM1279 474h-107q0 -103 -51.5 -188t-137.5 -135.5t-191 -50.5t-191 50.5t-137.5 135.5t-51.5 188h-107q0 -132 66 -240.5
t176.5 -173t244.5 -64.5t244.5 64.5t176.5 173t66 240.5z" />
    <glyph glyph-name="uniA02B" unicode="&#xa02b;" 
d="M1305 0v104h-460v695l426 -339l67 81l-461 368l461 370l-67 81q-106 -85 -213 -169.5t-213 -170.5v669h460v104h-1027v-104h461v-669l-426 340l-67 -81l461 -370l-461 -368l67 -81l426 339v-695h-461v-104h1027z" />
    <glyph glyph-name="uniA02C" unicode="&#xa02c;" 
d="M1238 322v359h-107v-359h107zM845 0v904q143 11 262.5 72.5t191.5 161.5t72 223q0 99 -46.5 183t-127 146t-185 96.5t-220.5 34.5t-220.5 -34.5t-185 -96.5t-127 -146t-46.5 -183q0 -123 72 -223t191.5 -161.5t262.5 -72.5v-904h106zM1264 1361v0q0 -94 -61.5 -175
t-168.5 -131t-242 -50t-242 50t-168.5 131t-61.5 175t61.5 175t168.5 131t242 50t242 -50t168.5 -131t61.5 -175z" />
    <glyph glyph-name="uniA02D" unicode="&#xa02d;" 
d="M1016 1951l88 61q-21 30 -70 62t-112 54t-129 22q-64 0 -125.5 -22t-109.5 -54t-73 -62l83 -67q25 29 90 64.5t135 35.5q50 0 96.5 -17t81 -39t45.5 -38zM1318 146v887h-107v-887h107zM847 -37v1830h-107v-1626l-428 302l-64 -83z" />
    <glyph glyph-name="uniA02E" unicode="&#xa02e;" 
d="M1318 146v887h-107v-887h107zM847 -37v1830h-107v-1626l-428 302l-64 -83z" />
    <glyph glyph-name="uniA02F" unicode="&#xa02f;" 
d="M1238 386v104q-117 0 -213.5 54.5t-153.5 147t-57 204.5t57 204t153.5 147t213.5 55v104q-146 0 -266.5 -69t-192.5 -184.5t-72 -256.5q0 -140 72 -256t192.5 -185t266.5 -69zM1238 12v104q-168 0 -314.5 60.5t-258 168t-174.5 249t-63 302.5t63 302.5t174.5 249t258 168
t314.5 60.5v104q-190 0 -356 -68.5t-292 -190.5t-197 -282t-71 -343t71 -343t197 -282t292 -190.5t356 -68.5z" />
    <glyph glyph-name="uniA030" unicode="&#xa030;" 
d="M1016 1951l88 61q-21 30 -70 62t-112 54t-129 22q-64 0 -125.5 -22t-109.5 -54t-73 -62l83 -67q17 19 52.5 42.5t81 40.5t91.5 17q50 0 96.5 -17t81 -39t45.5 -38zM1279 662v104h-286l12 345h274v104h-271l14 369q2 72 30.5 102t73.5 30q15 0 48.5 -9.5t67.5 -20.5
q34 -12 58.5 -20.5l24.5 -8.5l47 92q-51 21 -123.5 46t-122.5 25q-104 0 -156 -67.5t-55 -164.5q-3 -93 -7 -186.5t-7 -186.5h-235v-104h232l-12 -345h-220v-104h216q-1 -54 -3.5 -110.5t-4.5 -110.5q-10 -184 -80 -274t-161 -90q-56 0 -109.5 35.5t-90 116t-43.5 214.5
l-58 1351l-107 -2l58 -1355q11 -223 105 -343.5t245 -120.5q102 0 177 59.5t119 164.5t51 242l9 223h290z" />
    <glyph glyph-name="uniA031" unicode="&#xa031;" 
d="M1279 662v104h-286l12 345h274v104h-271l14 369q2 72 30.5 102t73.5 30q15 0 48.5 -9.5t67.5 -20.5q34 -12 58.5 -20.5l24.5 -8.5l47 92q-51 21 -123.5 46t-122.5 25q-104 0 -156 -67.5t-55 -164.5q-3 -93 -7 -186.5t-7 -186.5h-235v-104h232l-12 -345h-220v-104h216
q-1 -54 -3.5 -110.5t-4.5 -110.5q-10 -184 -80 -274t-161 -90q-56 0 -109.5 35.5t-90 116t-43.5 214.5l-58 1351l-107 -2l58 -1355q11 -223 105 -343.5t245 -120.5q102 0 177 59.5t119 164.5t51 242l9 223h290z" />
    <glyph glyph-name="uniA032" unicode="&#xa032;" 
d="M764 593v617q55 -10 121 -42.5t130.5 -96.5t113.5 -170q-50 -105 -114.5 -169.5t-130.5 -96.5t-120 -42zM1135 1509l-478 317v-1663l-309 206l-62 -85l478 -317v520q93 13 207.5 77t204.5 204q19 -68 29 -151t10 -182h107q0 146 -20 260.5t-58 203.5q38 92 58.5 208
t20.5 262h-107q0 -194 -40 -336q-89 139 -204 203.5t-208 78.5v316l310 -207z" />
    <glyph glyph-name="uniA033" unicode="&#xa033;" 
d="M1016 1951l88 61q-21 30 -70 62t-112 54t-128 22t-126 -22t-109 -54t-74 -62l83 -67q17 19 52.5 42.5t81 40.5t92.5 17q49 0 95.5 -17t81 -39t45.5 -38zM845 961l357 -163q-88 -40 -179 -82.5t-178 -82.5v328zM1396 370l-439 200l409 189v77l-409 187l439 195l-46 94
l-505 -226v555l434 -241l52 89l-592 329v-1663l-434 241l-52 -89l592 -332v532l505 -229z" />
    <glyph glyph-name="uniA034" unicode="&#xa034;" 
d="M845 961l357 -163q-88 -40 -179 -82.5t-178 -82.5v328zM1396 370l-439 200l409 189v77l-409 187l439 195l-46 94l-505 -226v555l434 -241l52 89l-592 329v-1663l-434 241l-52 -89l592 -332v532l505 -229z" />
    <glyph glyph-name="uniA035" unicode="&#xa035;" 
d="M793 844v104h-238v680l376 -262v-1366h106v1628l302 -207l60 86l-468 322v-336l-483 336v-881h-238v-104h238v-566h107v566h238zM795 284h-106q0 -85 -60.5 -146t-146.5 -61t-146.5 61t-60.5 146h-106q0 -85 42.5 -156t113.5 -113t157 -42q87 0 158 42t113 113t42 156z
" />
    <glyph glyph-name="uniA036" unicode="&#xa036;" 
d="M1016 1951l88 61q-21 30 -70 62t-112 54t-129 22q-64 0 -125 -22t-109 -54t-74 -62l83 -67q17 19 52.5 42.5t81 40.5t91.5 17q50 0 96.5 -17t81 -39t45.5 -38zM1424 1533l-384 305v-627h-129q-139 0 -267 -40.5t-227.5 -118.5t-157.5 -190.5t-58 -256.5t58 -256.5
t157.5 -190t227.5 -118t267 -40.5h235v1618l210 -166zM753 119v973q74 15 158 15h129v-1003h-129q-84 0 -158 15zM646 1061v-911q-149 55 -243.5 172.5t-94.5 282.5t94.5 282.5t243.5 173.5zM950 653v206h-107v-206h107zM950 352v205h-107v-205h107zM555 653v206h-106v-206
h106zM555 352v205h-106v-205h106z" />
    <glyph glyph-name="uniA037" unicode="&#xa037;" 
d="M1424 1533l-384 305v-627h-129q-139 0 -267 -40.5t-227.5 -118.5t-157.5 -190.5t-58 -256.5t58 -256.5t157.5 -190t227.5 -118t267 -40.5h235v1618l210 -166zM753 119v973q74 15 158 15h129v-1003h-129q-84 0 -158 15zM646 1061v-911q-149 55 -243.5 172.5t-94.5 282.5
t94.5 282.5t243.5 173.5zM950 653v206h-107v-206h107zM950 352v205h-107v-205h107zM555 653v206h-106v-206h106zM555 352v205h-106v-205h106z" />
    <glyph glyph-name="uniA038" unicode="&#xa038;" 
d="M1418 1533l-382 305v-627h-130q-139 0 -266.5 -40.5t-227.5 -118.5t-157.5 -190.5t-57.5 -256.5t57.5 -256.5t157.5 -190t227.5 -118t266.5 -40.5h235v1618l210 -166zM1036 841h-670q74 126 218 196t322 70h130v-266zM1036 473h-714q-8 31 -13.5 64.5t-5.5 67.5t5.5 68
t13.5 64h714v-264zM1036 370v-266h-130q-178 0 -322 70t-218 196h670z" />
    <glyph glyph-name="uniA039" unicode="&#xa039;" 
d="M1016 1951l88 61q-21 30 -70 62t-112 54t-129 22q-64 0 -125.5 -22t-109.5 -54t-73 -62l83 -67q16 19 51.5 42.5t81 40.5t92.5 17q50 0 96.5 -17t81 -39t45.5 -38zM1320 896v0q0 174 -21 339t-68 297t-125 210t-191 78q-114 0 -192 -78t-125 -210t-67.5 -297t-20.5 -339
v-76l-193 -31v708h-107v-833l303 52q9 -149 36 -283t74.5 -238t119.5 -163.5t172 -59.5q113 0 191 78t125 210t68 297t21 339zM620 733l593 99q-4 -230 -42 -400t-103 -263t-153 -93q-123 0 -200.5 177t-94.5 480zM1213 939l-597 -101v58q0 249 36.5 433.5t103.5 285.5
t159 101q89 0 154.5 -96t103 -270.5t40.5 -410.5z" />
    <glyph glyph-name="uniA03A" unicode="&#xa03a;" 
d="M1320 896v0q0 174 -21 339t-68 297t-125 210t-191 78q-114 0 -192 -78t-125 -210t-67.5 -297t-20.5 -339v-76l-193 -31v708h-107v-833l303 52q9 -149 36 -283t74.5 -238t119.5 -163.5t172 -59.5q113 0 191 78t125 210t68 297t21 339zM620 733l593 99q-4 -230 -42 -400
t-103 -263t-153 -93q-123 0 -200.5 177t-94.5 480zM1213 939l-597 -101v58q0 249 36.5 433.5t103.5 285.5t159 101q89 0 154.5 -96t103 -270.5t40.5 -410.5z" />
    <glyph glyph-name="uniA03B" unicode="&#xa03b;" 
d="M1374 623v706h-107v-706h107zM1089 623v706h-107v-706h107zM1026 18l-339 878l339 879l-101 36q-73 -190 -148 -383t-149 -384l-295 767l-101 -36l339 -879l-339 -878l101 -36l295 767l297 -767z" />
    <glyph glyph-name="uniA03C" unicode="&#xa03c;" 
d="M1016 1951l88 61q-21 30 -70 62t-112 54t-129 22q-64 0 -125.5 -22t-109.5 -54t-73 -62l83 -67q17 19 52.5 42.5t81 40.5t91.5 17q50 0 96.5 -17t81 -39t45.5 -38zM1374 410v973h-107v-973h107zM1143 410v973h-106v-973h106zM921 896v0q0 473 -79 698.5t-258 225.5
q-178 0 -257.5 -228.5t-79.5 -695.5q0 -472 79.5 -697.5t257.5 -225.5q179 0 258 225.5t79 697.5zM813 948h-457q2 229 21.5 378.5t51.5 234.5t72 120t83 35t83.5 -33t72.5 -117t52 -234t21 -384zM356 844h457q-3 -232 -22.5 -381.5t-51.5 -233.5t-72 -118t-83 -34t-83.5 33
t-72.5 117t-51 233.5t-21 383.5z" />
    <glyph glyph-name="uniA03D" unicode="&#xa03d;" 
d="M1374 410v973h-107v-973h107zM1143 410v973h-106v-973h106zM921 896v0q0 473 -79 698.5t-258 225.5q-178 0 -257.5 -228.5t-79.5 -695.5q0 -472 79.5 -697.5t257.5 -225.5q179 0 258 225.5t79 697.5zM813 948h-457q2 229 21.5 378.5t51.5 234.5t72 120t83 35t83.5 -33
t72.5 -117t52 -234t21 -384zM356 844h457q-3 -232 -22.5 -381.5t-51.5 -233.5t-72 -118t-83 -34t-83.5 33t-72.5 117t-51 233.5t-21 383.5z" />
    <glyph glyph-name="uniA03E" unicode="&#xa03e;" 
d="M1355 447h-107q0 -177 -47 -273.5t-155 -96.5q-55 0 -91.5 39t-58.5 99.5t-32.5 128.5t-13.5 127.5t-3 94.5q0 56 -1 112t-1 111q133 13 240 83.5t170 181.5t63 242q0 141 -71 257t-190.5 184.5t-264.5 68.5t-264.5 -68.5t-190.5 -184.5t-71 -257q0 -131 63 -242
t170.5 -181.5t239.5 -83.5v-230q0 -36 -3.5 -95.5t-14.5 -126t-33 -126t-58.5 -97t-91.5 -37.5q-106 0 -153 96.5t-47 273.5h-107q0 -87 13 -171.5t46.5 -153t93.5 -109t154 -40.5q104 0 165 66.5t90 146.5q30 -80 90 -146.5t163 -66.5q94 0 154.5 40.5t94 109t47 153
t13.5 171.5zM1211 1296v0q0 -112 -56 -204.5t-151 -147.5t-212 -55q-116 0 -211.5 55t-152 147.5t-56.5 204.5t56.5 204t152 147t211.5 55q117 0 212 -55t151 -147t56 -204zM845 1119v359h-106v-359h106z" />
    <glyph glyph-name="uniA03F" unicode="&#xa03f;" 
d="M426 0v877h732v-877h107v1793h-107v-812h-732v812h-107v-1793h107z" />
    <glyph glyph-name="uniA040" unicode="&#xa040;" 
d="M1016 1951l88 61q-21 30 -70 62t-112 54t-129 22q-64 0 -125.5 -22t-109.5 -54t-73 -62l83 -67q25 29 90 64.5t135 35.5q50 0 96.5 -17t81 -39t45.5 -38zM845 81v975h354v-231q0 -242 -46 -401t-125.5 -242.5t-182.5 -100.5zM385 1056h354v-975q-103 17 -183 100.5
t-125.5 242.5t-45.5 401v231zM1305 825v968h-106v-634h-354v634h-106v-634h-354v634h-107v-968q0 -266 59.5 -457t174.5 -293t280 -102q166 0 280 102t173.5 293t59.5 457z" />
    <glyph glyph-name="uniA041" unicode="&#xa041;" 
d="M845 81v975h354v-231q0 -242 -46 -401t-125.5 -242.5t-182.5 -100.5zM385 1056h354v-975q-103 17 -183 100.5t-125.5 242.5t-45.5 401v231zM1305 825v968h-106v-634h-354v634h-106v-634h-354v634h-107v-968q0 -266 59.5 -457t174.5 -293t280 -102q166 0 280 102
t173.5 293t59.5 457z" />
    <glyph glyph-name="uniA042" unicode="&#xa042;" 
d="M1022 714v266h245v-737h107v1438h-107v-598h-245v710h-107v-1079q0 -50 -2 -128.5t-13 -165.5t-39 -163t-78.5 -124.5t-132.5 -48.5q-77 0 -126.5 43.5t-77.5 113.5t-41 151.5t-16 158.5t-3 133v1109h-106v-1079q0 -72 4 -167t21.5 -194t57 -183.5t109 -137t178.5 -52.5
t179 52.5t109.5 137t57.5 183.5t22 194t4 167z" />
    <glyph glyph-name="uniA043" unicode="&#xa043;" 
d="M1016 1951l88 61q-21 30 -70 62t-112 54t-129 22q-64 0 -125.5 -22t-109.5 -54t-73 -62l83 -67q25 29 90 64.5t135 35.5q50 0 96.5 -17t81 -39t45.5 -38zM1305 279v446h-106v-446h106zM996 0v1028h309v104h-585q-87 0 -163 16.5t-127 60t-65 122.5h873v104h-873
q15 79 67.5 123.5t128.5 63t159 18.5h587v104h-587q-72 0 -152.5 -14.5t-152 -52.5t-116 -108.5t-44.5 -183.5q0 -115 43.5 -185.5t114 -107.5t151.5 -50.5t156 -13.5h169v-1028h107zM691 279v446h-107v-446h107zM385 279v446h-107v-446h107z" />
    <glyph glyph-name="uniA044" unicode="&#xa044;" 
d="M1305 279v446h-106v-446h106zM996 0v1028h309v104h-585q-87 0 -163 16.5t-127 60t-65 122.5h873v104h-873q15 79 67.5 123.5t128.5 63t159 18.5h587v104h-587q-72 0 -152.5 -14.5t-152 -52.5t-116 -108.5t-44.5 -183.5q0 -115 43.5 -185.5t114 -107.5t151.5 -50.5
t156 -13.5h169v-1028h107zM691 279v446h-107v-446h107zM385 279v446h-107v-446h107z" />
    <glyph glyph-name="uniA045" unicode="&#xa045;" 
d="M398 1136h373v-417q-154 46 -256 153t-117 264zM771 1656v-417h-373q15 155 118.5 262.5t254.5 154.5zM1201 1239h-324v442q30 5 60 6.5t61 1.5h203v-450zM1201 686h-203q-61 0 -121 9v441h324v-450zM1307 471v1322h-309q-139 0 -266.5 -40.5t-227.5 -118t-157.5 -190
t-57.5 -256.5t57.5 -256.5t157.5 -190.5t227.5 -118.5t266.5 -40.5h203v-111q0 -139 -62 -226t-156 -127.5t-191 -40.5q-147 0 -236.5 61.5t-142.5 137.5l-89 -61q43 -59 106.5 -114.5t152.5 -91.5t209 -36q88 0 178.5 28.5t167 88.5t123 154.5t46.5 226.5z" />
    <glyph glyph-name="uniA046" unicode="&#xa046;" 
d="M210 609h183q6 -105 22 -216t47.5 -206.5t84.5 -154.5t133 -59q83 0 136.5 62.5t85 162.5t46.5 215t19 223t4 183v25h8q81 0 155 -45t120.5 -122t46.5 -172q0 -91 -47.5 -168t-125.5 -124l55 -88q101 59 162.5 159.5t61.5 220.5q0 128 -65.5 231.5t-166.5 159.5
q101 57 166.5 161t65.5 229q0 121 -61.5 221.5t-162.5 159.5l-55 -88q78 -46 125.5 -123.5t47.5 -169.5q0 -94 -46.5 -171t-120 -122t-155.5 -45h-8q0 58 -2 143.5t-10.5 184t-27 194.5t-50.5 175.5t-81 127t-120 47.5q-67 0 -113.5 -40t-76.5 -105t-49 -142
q-17 -70 -28 -158.5t-17 -190.5h-186v-104h182q-3 -90 -3 -184v-98v-41t1 -44h-180v-104zM695 609v104h-196q-2 69 -2.5 116.5t-0.5 66.5q0 97 3 184h196v104h-192q6 93 17 177t24 149q29 113 64.5 159.5t71.5 46.5q47 0 78.5 -53t52 -138.5t31.5 -184.5t16 -192t6 -161
t1 -91t-0.5 -91.5t-5 -161t-15.5 -191.5t-31.5 -184t-52.5 -138t-80 -53q-46 0 -77.5 49t-51.5 128t-31 172.5t-17 182.5h192z" />
    <glyph glyph-name="uniA047" unicode="&#xa047;" 
d="M1016 1951l88 61q-21 30 -70 62t-112 54t-129 22q-64 0 -125.5 -22t-109.5 -54t-73 -62l83 -67q25 29 90 64.5t135 35.5q50 0 96.5 -17t81 -39t45.5 -38zM1379 1736h-107q0 -191 -54 -346t-150.5 -252.5t-222.5 -116.5v772h-106v-772q-125 19 -221.5 116t-151 252.5
t-54.5 346.5h-107q0 -159 39.5 -306.5t115 -264t184.5 -184.5t248 -68q140 0 249 68t184 184.5t114.5 264t39.5 306.5zM1305 474v104h-1027v-104h1027zM1305 0v104h-1027v-104h1027z" />
    <glyph glyph-name="uniA048" unicode="&#xa048;" 
d="M1379 1736h-107q0 -191 -54 -346t-150.5 -252.5t-222.5 -116.5v772h-106v-772q-125 19 -221.5 116t-151 252.5t-54.5 346.5h-107q0 -159 39.5 -306.5t115 -264t184.5 -184.5t248 -68q140 0 249 68t184 184.5t114.5 264t39.5 306.5zM1305 474v104h-1027v-104h1027zM1305 0
v104h-1027v-104h1027z" />
    <glyph glyph-name="uniA049" unicode="&#xa049;" 
d="M1305 383v103h-460v219h460v104h-460v219h460v104h-585q-87 0 -163 16.5t-127 60t-65 122.5h873v104h-873q15 79 67.5 123.5t128.5 63t159 18.5h587v104h-587q-72 0 -152.5 -14.5t-152 -52.5t-116 -108.5t-44.5 -183.5q0 -115 43.5 -185.5t114 -107.5t151.5 -50.5
t156 -13.5h19v-219h-461v-104h461v-219h-461v-103h461v-383h106v383h460z" />
    <glyph glyph-name="uniA04A" unicode="&#xa04a;" 
d="M1217 0v591l-761 -253v1126l761 -245v574h-106v-432l-761 246v-1415l761 252v-444h106z" />
    <glyph glyph-name="uniA04B" unicode="&#xa04b;" 
d="M1016 1951l88 61q-21 30 -70 62t-112 54t-129 22q-64 0 -125.5 -22t-109.5 -54t-73 -62l83 -67q25 29 90 64.5t135 35.5q50 0 96.5 -17t81 -39t45.5 -38zM1199 1231h-190q-212 0 -337.5 17.5t-187 48.5t-80.5 73t-19 90t19 89.5t80.5 73.5t187 49.5t337.5 17.5h190v-459z
M1199 564v-460h-190q-219 0 -345.5 18t-186 50.5t-76 74.5t-16.5 90t19 89.5t80.5 72t187 48t337.5 17.5h190zM1199 668h-190q-192 0 -314 18t-189.5 50t-94 73.5t-26.5 88.5q0 48 19 89.5t80.5 73t187 49t337.5 17.5h190v-459zM1305 0v1794h-296q-281 0 -440.5 -35.5
t-225 -109t-65.5 -189.5q0 -103 51.5 -172.5t173.5 -109.5q-122 -38 -173.5 -107.5t-51.5 -172.5q0 -199 238 -278q-129 -38 -183.5 -108t-54.5 -175q0 -86 32.5 -149.5t113 -105t223 -62t362.5 -20.5h296z" />
    <glyph glyph-name="uniA04C" unicode="&#xa04c;" 
d="M1199 1231h-190q-212 0 -337.5 17.5t-187 48.5t-80.5 73t-19 90t19 89.5t80.5 73.5t187 49.5t337.5 17.5h190v-459zM1199 564v-460h-190q-219 0 -345.5 18t-186 50.5t-76 74.5t-16.5 90t19 89.5t80.5 72t187 48t337.5 17.5h190zM1199 668h-190q-192 0 -314 18t-189.5 50
t-94 73.5t-26.5 88.5q0 48 19 89.5t80.5 73t187 49t337.5 17.5h190v-459zM1305 0v1794h-296q-281 0 -440.5 -35.5t-225 -109t-65.5 -189.5q0 -103 51.5 -172.5t173.5 -109.5q-122 -38 -173.5 -107.5t-51.5 -172.5q0 -199 238 -278q-129 -38 -183.5 -108t-54.5 -175
q0 -86 32.5 -149.5t113 -105t223 -62t362.5 -20.5h296z" />
    <glyph glyph-name="uniA04D" unicode="&#xa04d;" 
d="M792 1394v-771q-111 10 -211 59t-163 132t-63 193q0 112 63 195t163 133t211 59zM792 519v-366l-381 211l-53 -89l541 -299v1663l379 -214l54 89l-540 306v-323q-97 -8 -193 -44t-175 -97.5t-127 -149t-48 -199.5q0 -111 48 -197.5t127 -148.5t175 -98t193 -44zM642 873
v272h-107v-272h107z" />
    <glyph glyph-name="uniA04E" unicode="&#xa04e;" 
d="M1016 1951l88 61q-21 30 -70 62t-112 54t-129 22q-64 0 -125.5 -22t-109.5 -54t-73 -62l83 -67q25 29 90 64.5t135 35.5q50 0 96.5 -17t81 -39t45.5 -38zM884 844h139v-525h106v525h138v-525h107v1152h-107v-523h-138v523h-106v-523h-139q-4 444 -83.5 658t-252.5 214
q-178 0 -257 -228.5t-79 -695.5q0 -472 79 -697.5t257 -225.5q173 0 252.5 213.5t83.5 657.5zM780 896v0q0 -249 -19.5 -409t-52.5 -249.5t-74.5 -125t-85.5 -35.5t-85 35.5t-73.5 125t-51.5 249.5t-19 409q0 246 19 405.5t51.5 250.5t73.5 127.5t85 36.5t85.5 -35.5
t74.5 -125.5t52.5 -250t19.5 -409zM603 634v526h-107v-526h107z" />
    <glyph glyph-name="uniA04F" unicode="&#xa04f;" 
d="M884 844h139v-525h106v525h138v-525h107v1152h-107v-523h-138v523h-106v-523h-139q-4 444 -83.5 658t-252.5 214q-178 0 -257 -228.5t-79 -695.5q0 -472 79 -697.5t257 -225.5q173 0 252.5 213.5t83.5 657.5zM780 896v0q0 -249 -19.5 -409t-52.5 -249.5t-74.5 -125
t-85.5 -35.5t-85 35.5t-73.5 125t-51.5 249.5t-19 409q0 246 19 405.5t51.5 250.5t73.5 127.5t85 36.5t85.5 -35.5t74.5 -125.5t52.5 -250t19.5 -409zM603 634v526h-107v-526h107z" />
    <glyph glyph-name="uniA050" unicode="&#xa050;" 
d="M979 999v-895h-82q-158 0 -287.5 55.5t-206 156t-76.5 236.5t76.5 236t206 155.5t287.5 55.5h82zM1403 1542l-424 287v-726h-82q-132 0 -253.5 -36.5t-217 -107.5t-151 -173t-55.5 -234t55.5 -235t151 -173.5t217 -107t253.5 -36.5h189v1632l256 -175z" />
    <glyph glyph-name="uniA051" unicode="&#xa051;" 
d="M1016 1951l88 61q-21 30 -70 62t-112 54t-129 22q-64 0 -125.5 -22t-109.5 -54t-73 -62l83 -67q25 29 90 64.5t135 35.5q50 0 96.5 -17t81 -39t45.5 -38zM732 897l-347 -667v1333zM792 783l410 -783h103v1793h-103l-410 -782l-409 783h-105v-1794h104zM1199 232l-346 665
q87 167 173 333t173 333v-1331zM1110 765v262h-107v-262h107z" />
    <glyph glyph-name="uniA052" unicode="&#xa052;" 
d="M732 897l-347 -667v1333zM792 783l410 -783h103v1793h-103l-410 -782l-409 783h-105v-1794h104zM1199 232l-346 665q87 167 173 333t173 333v-1331zM1110 765v262h-107v-262h107z" />
    <glyph glyph-name="uniA053" unicode="&#xa053;" 
d="M1306 460v527h-107v-527h107zM828 844v104h-238v680l375 -262v-1366h106v1628l302 -207l61 86l-469 322v-336l-482 336v-881h-238v-104h238v-566h107v566h238zM829 284h-107q0 -85 -60 -146t-146 -61t-146.5 61t-60.5 146h-107q0 -85 42.5 -156t114 -113t157.5 -42
q87 0 158 42t113 113t42 156z" />
    <glyph glyph-name="uniA054" unicode="&#xa054;" 
d="M1016 1951l88 61q-21 30 -70 62t-112 54t-129 22q-64 0 -125.5 -22t-109.5 -54t-73 -62l83 -67q17 19 52.5 42.5t81 40.5t91.5 17q50 0 96.5 -17t81 -39t45.5 -38zM1374 555v445h-107v-445h107zM660 1238v446h-107v-446h107zM908 899v-795h-28q-161 0 -290.5 50
t-205 139.5t-75.5 207.5q0 119 75.5 208.5t205 139.5t290.5 50h28zM1405 1476l-497 353v-826h-28q-130 0 -251 -33t-217.5 -96.5t-153 -157t-56.5 -215.5q0 -121 56.5 -214.5t153 -157.5t217.5 -96.5t251 -32.5h135v1625l326 -232z" />
    <glyph glyph-name="uniA055" unicode="&#xa055;" 
d="M1374 555v445h-107v-445h107zM660 1238v446h-107v-446h107zM908 899v-795h-28q-161 0 -290.5 50t-205 139.5t-75.5 207.5q0 119 75.5 208.5t205 139.5t290.5 50h28zM1405 1476l-497 353v-826h-28q-130 0 -251 -33t-217.5 -96.5t-153 -157t-56.5 -215.5
q0 -121 56.5 -214.5t153 -157.5t217.5 -96.5t251 -32.5h135v1625l326 -232z" />
    <glyph glyph-name="uniA056" unicode="&#xa056;" 
d="M1304 466h-106q0 -42 -4 -107.5t-20.5 -130.5t-52.5 -109.5t-100 -44.5q-55 0 -88.5 51.5t-51.5 128t-25 155.5t-9 133q137 17 243.5 107.5t167.5 229.5t61 299q0 128 -39.5 244t-111 205.5t-167.5 141t-209 51.5t-209 -51.5t-167.5 -141t-111 -205.5t-39.5 -244
q0 -162 60.5 -301t167.5 -229.5t246 -105.5q-2 -54 -9.5 -133t-26 -155.5t-52.5 -128t-88 -51.5q-64 0 -100.5 44.5t-52.5 109.5t-20 130.5t-4 107.5h-107q0 -67 9 -152t37 -163.5t85 -130t153 -51.5q91 0 145.5 63.5t82.5 144.5q29 -82 84 -145t146 -63q97 0 153.5 51.5
t84.5 130t36.5 163.5t8.5 152zM1163 1427h-744q54 130 155 209.5t218 79.5q118 0 218 -79.5t153 -209.5zM1198 1035h-812q-15 68 -15 143q0 76 15 145h810q8 -34 12 -70.5t4 -74.5q0 -36 -4 -73t-10 -70zM419 931h746q-54 -130 -154.5 -210t-218.5 -80t-219 80t-154 210z
" />
    <glyph glyph-name="uniA057" unicode="&#xa057;" 
d="M1016 1951l88 61q-21 30 -70 62t-112 54t-129 22q-64 0 -125.5 -22t-109.5 -54t-73 -62l83 -67q25 29 90 64.5t135 35.5q50 0 96.5 -17t81 -39t45.5 -38zM845 0v773l426 -409l75 72q-118 114 -239 230.5t-240 230.5l474 464l-75 74l-421 -412v770h-106v-773l-426 409
l-75 -72q118 -114 239.5 -230.5t239.5 -230.5l-474 -464l75 -74l421 412v-770h106z" />
    <glyph glyph-name="uniA058" unicode="&#xa058;" 
d="M845 0v773l426 -409l75 72q-118 114 -239 230.5t-240 230.5l474 464l-75 74l-421 -412v770h-106v-773l-426 409l-75 -72q118 -114 239.5 -230.5t239.5 -230.5l-474 -464l75 -74l421 412v-770h106z" />
    <glyph glyph-name="uniA059" unicode="&#xa059;" 
d="M1094 1380l-11 1l4 -15zM1153 899v0q0 -135 -17.5 -253.5t-49.5 -216.5q-47 102 -73.5 220.5t-26.5 246.5t27 247.5t74 222.5q30 -97 48 -215t18 -252zM500 415l11 -1q-4 7 -5 14zM438 899v0q0 271 65 468q49 -103 76 -221.5t27 -249.5q0 -128 -26.5 -247t-73.5 -221
q-32 97 -50 216t-18 255zM796 -23v0q92 0 169.5 59.5t135.5 162.5q38 -51 81.5 -94t92.5 -83l67 82q-113 87 -187 203q50 123 77.5 276.5t27.5 315.5q0 161 -26.5 313.5t-77.5 276.5q81 116 186 198l-67 83q-49 -38 -91.5 -80.5t-79.5 -92.5q-59 104 -137 165.5t-171 61.5
t-171 -61t-137 -165q-36 48 -80 91t-91 81l-67 -83q107 -81 186 -196q-105 -258 -105 -592q0 -162 27 -315.5t79 -278.5q-79 -116 -187 -201l67 -82q48 38 92 82.5t81 93.5q59 -103 136.5 -162t169.5 -59zM712 896v0q0 168 -41 320.5t-116 279.5q51 107 114.5 165.5
t126.5 58.5q62 0 125.5 -58.5t115.5 -165.5q-74 -127 -116 -280t-42 -320q0 -166 41.5 -317.5t114.5 -279.5q-52 -103 -114.5 -160.5t-124.5 -57.5t-125.5 57.5t-114.5 160.5q74 127 115 279t41 318z" />
    <glyph glyph-name="uniA05A" unicode="&#xa05a;" 
d="M1355 749h-107q0 -177 -47 -273t-155 -96q-63 0 -101.5 48t-59.5 120.5t-28.5 148t-9.5 130.5q130 13 233 82t163.5 177t60.5 236q0 138 -69 251t-185 180t-258 67q-141 0 -257.5 -67t-186 -180t-69.5 -251q0 -129 61 -237t165 -177t234 -81q-1 -55 -9.5 -130.5
t-29.5 -148t-60 -120.5t-102 -48q-106 0 -153 96t-47 273h-107q0 -87 13 -171t46.5 -152.5t93.5 -109t154 -40.5q104 0 165 66.5t90 145.5q30 -79 90 -145.5t163 -66.5q94 0 154.5 40.5t94 109t47 152.5t13.5 171zM1198 1322v0q0 -109 -54.5 -198.5t-146.5 -142.5t-205 -53
q-112 0 -204.5 53t-147 142.5t-54.5 198.5t54.5 198.5t147 142.5t204.5 53q113 0 205 -53t146.5 -142.5t54.5 -198.5zM845 20v247h-106v-247h106z" />
    <glyph glyph-name="uniA05B" unicode="&#xa05b;" 
d="M1016 1951l88 61q-21 30 -70 62t-112 54t-128 22t-126 -22t-109 -54t-74 -62l83 -67q17 19 52.5 42.5t81 40.5t92.5 17q49 0 95.5 -17t81 -39t45.5 -38zM616 1125l124 -133q-3 -23 -3.5 -47t-0.5 -49q0 -192 74 -361t205 -298.5t302 -203.5l44 93q-146 63 -259 170.5
t-180.5 247.5t-77.5 300h232q14 -136 96 -260.5t197 -210.5l66 83q-100 75 -168.5 178.5t-82.5 209.5h190v104h-190q14 122 82 221.5t166 164.5l-61 85q-118 -78 -200 -199t-95 -272h-232q10 161 77.5 300.5t180.5 247t259 169.5l-44 94q-205 -88 -353.5 -255.5
t-199.5 -382.5l-255 268v-1185l-224 229l-77 -71l408 -418v1181z" />
    <glyph glyph-name="uniA05C" unicode="&#xa05c;" 
d="M616 1125l124 -133q-3 -23 -3.5 -47t-0.5 -49q0 -192 74 -361t205 -298.5t302 -203.5l44 93q-146 63 -259 170.5t-180.5 247.5t-77.5 300h232q14 -136 96 -260.5t197 -210.5l66 83q-100 75 -168.5 178.5t-82.5 209.5h190v104h-190q14 122 82 221.5t166 164.5l-61 85
q-118 -78 -200 -199t-95 -272h-232q10 161 77.5 300.5t180.5 247t259 169.5l-44 94q-205 -88 -353.5 -255.5t-199.5 -382.5l-255 268v-1185l-224 229l-77 -71l408 -418v1181z" />
    <glyph glyph-name="uniA05D" unicode="&#xa05d;" 
d="M636 844h312q7 -200 59 -357t136.5 -284t188.5 -237l78 72q-97 102 -175.5 217.5t-126 259.5t-53.5 329h250v104h-252q7 186 54 330t125 260.5t177 216.5l-76 72q-106 -108 -191 -235.5t-136.5 -285t-57.5 -358.5h-312q-7 200 -58.5 358t-136 285.5t-190.5 235.5l-76 -72
q99 -100 176.5 -216t125 -260.5t53.5 -330.5h-252v-104h250q-5 -185 -53 -329t-126 -259.5t-175 -217.5l78 -72q104 110 188.5 237t137 284t58.5 357z" />
    <glyph glyph-name="uniA05E" unicode="&#xa05e;" 
d="M534 1322h525q-26 -83 -42 -175.5t-20 -198.5h-401q-4 106 -19.5 198.5t-42.5 175.5zM1062 470h-531q29 83 45 175.5t20 198.5h401q10 -210 65 -374zM490 367h613q53 -115 125 -213.5t154 -187.5l79 72q-102 106 -182.5 229t-127.5 276.5t-47 352.5q0 200 45.5 354.5
t126 277.5t184.5 227l-77 72q-86 -88 -158.5 -187t-123.5 -215h-608q-52 116 -125 215t-159 187l-75 -72q104 -104 184 -227t125.5 -277.5t45.5 -354.5q0 -199 -46.5 -352.5t-127 -276.5t-182.5 -229l78 -72q84 89 155.5 187.5t123.5 213.5z" />
    <glyph glyph-name="uniA05F" unicode="&#xa05f;" 
d="M1016 1951l88 61q-21 30 -70 62t-112 54t-129 22q-64 0 -125.5 -22t-109.5 -54t-73 -62l83 -67q25 29 90 64.5t135 35.5q50 0 96.5 -17t81 -39t45.5 -38zM1032 891l240 605v-1202zM772 1249l144 -359l-144 -365v724zM540 892l126 315v-623q-34 85 -62.5 154.5
t-63.5 153.5zM674 279l-96 -240l102 -38l293 745l301 -746h104v1793h-104q-74 -187 -150.5 -379t-150.5 -380l-304 758l-100 -38l100 -248l-186 -470l-188 468l-100 -36q57 -142 115 -288t115 -288l-224 -567l100 -36l182 457l190 -467h1z" />
    <glyph glyph-name="uniA060" unicode="&#xa060;" 
d="M1032 891l240 605v-1202zM772 1249l144 -359l-144 -365v724zM540 892l126 315v-623q-34 85 -62.5 154.5t-63.5 153.5zM674 279l-96 -240l102 -38l293 745l301 -746h104v1793h-104q-74 -187 -150.5 -379t-150.5 -380l-304 758l-100 -38l100 -248l-186 -470l-188 468
l-100 -36q57 -142 115 -288t115 -288l-224 -567l100 -36l182 457l190 -467h1z" />
    <glyph glyph-name="uniA061" unicode="&#xa061;" 
d="M1404 1794h-107q0 -276 -26.5 -434.5t-77 -225t-121.5 -66.5q-80 0 -130 66t-73.5 224.5t-23.5 435.5h-106q0 -274 -27 -433t-77.5 -226t-121.5 -67q-79 0 -129.5 66t-74 224.5t-23.5 435.5h-106q0 -257 24 -443t95.5 -286t213.5 -100q104 0 171.5 68t104.5 186
q35 -122 102 -188t181 -66q132 0 204 99.5t100 285.5t28 444zM1231 537v103h-878v-103h878zM1231 0v104h-878v-104h878z" />
    <glyph glyph-name="uniA062" unicode="&#xa062;" 
d="M1016 1951l88 61q-21 30 -70 62t-112 54t-129 22q-64 0 -125.5 -22t-109.5 -54t-73 -62l83 -67q25 29 90 64.5t135 35.5q50 0 96.5 -17t81 -39t45.5 -38zM931 1167v521h-107v-331l-546 340v-518h107v328zM1305 -15v1808h-106v-1647l-713 313l-42 -93zM931 909v104h-653
v-104h653zM931 646v104h-653v-104h653z" />
    <glyph glyph-name="uniA063" unicode="&#xa063;" 
d="M931 1167v521h-107v-331l-546 340v-518h107v328zM1305 -15v1808h-106v-1647l-713 313l-42 -93zM931 909v104h-653v-104h653zM931 646v104h-653v-104h653z" />
    <glyph glyph-name="uniA064" unicode="&#xa064;" 
d="M1374 1190v446h-107v-446h107zM317 1190v446h-107v-446h107zM1129 896v0q0 473 -79 698.5t-258 225.5t-258 -228.5t-79 -695.5q0 -472 79 -697.5t258 -225.5t258 225.5t79 697.5zM1023 896v0q0 -249 -19.5 -409t-52.5 -249.5t-74 -125t-85 -35.5t-85 35.5t-74 125
t-52 249.5t-19 409q0 246 19 405.5t52 250.5t74 127.5t85 36.5t85 -35.5t74 -125.5t52.5 -250t19.5 -409zM1374 151v446h-107v-446h107zM317 151v446h-107v-446h107z" />
    <glyph glyph-name="uniA065" unicode="&#xa065;" 
d="M1305 296v1205h-107v-1205h107zM817 1348v-889q-141 11 -252.5 74t-176 159.5t-64.5 209.5q0 114 64.5 210.5t176 160t252.5 75.5zM817 354v-351h107v1793h-107v-343q-165 -11 -301.5 -86.5t-217.5 -196t-81 -268.5q0 -147 81 -267.5t217.5 -195t301.5 -85.5z" />
    <glyph glyph-name="uniA066" unicode="&#xa066;" 
d="M1016 1951l88 61q-21 30 -70 62t-112 54t-129 22q-64 0 -125.5 -22t-109.5 -54t-73 -62l83 -67q25 29 90 64.5t135 35.5q50 0 96.5 -17t81 -39t45.5 -38zM1305 0v104h-460v294h460v104h-460v535l426 -339l67 81l-461 368l461 368l-67 81l-426 -339v536h-106v-536
l-426 339l-67 -81l460 -368l-460 -368l67 -81l426 339v-535h-461v-104h461v-294h-461v-104h1027z" />
    <glyph glyph-name="uniA067" unicode="&#xa067;" 
d="M1305 0v104h-460v294h460v104h-460v535l426 -339l67 81l-461 368l461 368l-67 81l-426 -339v536h-106v-536l-426 339l-67 -81l460 -368l-460 -368l67 -81l426 339v-535h-461v-104h461v-294h-461v-104h1027z" />
    <glyph glyph-name="uniA068" unicode="&#xa068;" 
d="M1263 546h107q0 147 -70.5 269.5t-189.5 201.5t-265 92v117q1 35 4.5 94.5t14 127t32.5 128.5t58.5 99.5t91.5 38.5q108 0 155 -96t47 -273h107q0 87 -13.5 171t-47 152.5t-94 109t-154.5 40.5q-102 0 -161.5 -61.5t-91.5 -152.5q-31 89 -91 151.5t-164 62.5
q-94 0 -154 -40.5t-93.5 -109t-46.5 -152.5t-13 -171h107q0 177 47 273t153 96q65 0 105 -50.5t61 -125.5t28 -151.5t7 -129.5v-148q-146 -14 -264.5 -92.5t-188.5 -201t-70 -269.5h107q0 128 63 232.5t169.5 167t236.5 62.5t236.5 -62.5t170.5 -167t64 -232.5zM845 410v359
h-106v-359h106zM1257 451h-107q0 -97 -48.5 -177.5t-129.5 -128.5t-180 -48t-180.5 48t-129.5 128.5t-48 177.5h-107q0 -126 62.5 -230t168 -166t234.5 -62q128 0 233.5 62t168.5 166t63 230z" />
    <glyph glyph-name="uniA069" unicode="&#xa069;" 
d="M1016 1951l88 61q-21 30 -70 62t-112 54t-129 22q-64 0 -125.5 -22t-109.5 -54t-73 -62l83 -67q25 29 90 64.5t135 35.5q50 0 96.5 -17t81 -39t45.5 -38zM1148 1330v462h-107v-284l-598 333v-472h107v294zM1305 578v660h-106v-482l-921 512v-675h107v498zM1148 382v103
h-705v-103h705zM1148 0v104h-705v-104h705z" />
    <glyph glyph-name="uniA06A" unicode="&#xa06a;" 
d="M1148 1330v462h-107v-284l-598 333v-472h107v294zM1305 578v660h-106v-482l-921 512v-675h107v498zM1148 382v103h-705v-103h705zM1148 0v104h-705v-104h705z" />
    <glyph glyph-name="uniA06B" unicode="&#xa06b;" 
d="M719 1140v529h-107v-301l-402 337v-530h107v302zM1002 -33v876l346 478l-89 59l-257 -355v768h-107v-1629l-587 392l-61 -85zM719 844v104h-509v-104h509z" />
    <glyph glyph-name="uniA06C" unicode="&#xa06c;" 
d="M1375 1082v104q-82 0 -146 66t-64 168t64 168t146 66v103q-90 0 -161.5 -47t-113.5 -123.5t-42 -166.5t42 -167t113.5 -124t161.5 -47zM768 1427v0q0 90 -41.5 167t-112.5 124t-162 47v-103q83 0 146 -66t63 -169q0 -101 -63 -167t-146 -66v-104q91 0 162 46.5
t112.5 123.5t41.5 167zM967 711v1082h-106v-882l-243 169v-1080h107v879zM1135 16v104q-82 0 -146 65.5t-64 168.5q0 68 30 120.5t78 83t102 30.5v104q-91 0 -162.5 -47t-113 -124t-41.5 -167t41.5 -167t113 -124t162.5 -47zM527 354v0q0 90 -41.5 167t-113 124t-162.5 47
v-104q55 0 103 -30.5t78 -83t30 -120.5q0 -103 -64 -168.5t-147 -65.5v-104q91 0 162.5 47t113 124t41.5 167z" />
    <glyph glyph-name="uniA06D" unicode="&#xa06d;" 
d="M1016 1951l88 61q-21 30 -70 62t-112 54t-129 22q-64 0 -125.5 -22t-109.5 -54t-73 -62l83 -67q25 29 90 64.5t135 35.5q50 0 96.5 -17t81 -39t45.5 -38zM1305 298v705h-106v-705h106zM840 1042v-1042h106v1518l359 -287v562h-106v-343l-359 289v-572l-355 240v-1057
l-173 142l-69 -81l349 -283v1081q64 -43 124 -83t124 -84z" />
    <glyph glyph-name="uniA06E" unicode="&#xa06e;" 
d="M1305 298v705h-106v-705h106zM840 1042v-1042h106v1518l359 -287v562h-106v-343l-359 289v-572l-355 240v-1057l-173 142l-69 -81l349 -283v1081q64 -43 124 -83t124 -84z" />
    <glyph glyph-name="uniA06F" unicode="&#xa06f;" 
d="M1305 633v526h-106v-526h106zM1341 1588l-483 221v-534l-579 319v-623h106v446l473 -260v-751l-579 263v-669h106v507l579 -263v1403l332 -152z" />
    <glyph glyph-name="uniA070" unicode="&#xa070;" 
d="M1016 1951l88 61q-21 30 -70 62t-112 54t-128 22t-126 -22t-109 -54t-74 -62l83 -67q17 19 52.5 42.5t81 40.5t92.5 17q49 0 95.5 -17t81 -39t45.5 -38zM1281 59h106q0 195 -54.5 338t-147.5 226t-209 98v1072h-106v-899l-591 563v-864h106v619q131 -124 256.5 -244
t255.5 -244q-119 -10 -216.5 -92.5t-155 -227.5t-57.5 -345h106q0 195 53.5 319t135 183.5t165.5 59.5t165.5 -59.5t134.5 -183.5t53 -319zM980 -1v359h-105v-359h105z" />
    <glyph glyph-name="uniA071" unicode="&#xa071;" 
d="M1281 59h106q0 195 -54.5 338t-147.5 226t-209 98v1072h-106v-899l-591 563v-864h106v619q131 -124 256.5 -244t255.5 -244q-119 -10 -216.5 -92.5t-155 -227.5t-57.5 -345h106q0 195 53.5 319t135 183.5t165.5 59.5t165.5 -59.5t134.5 -183.5t53 -319zM980 -1v359h-105
v-359h105z" />
    <glyph glyph-name="uniA072" unicode="&#xa072;" 
d="M526 697v951q137 -62 273 -124.5t274 -124.5v-702h-547zM1073 593v-406l-163 155l-73 -73l343 -326v1662l160 -154l76 73l-343 328v-340l-654 297v-1618l-158 151l-75 -73l340 -327v651h547zM847 908v359h-107v-359h107z" />
    <glyph glyph-name="uniA073" unicode="&#xa073;" 
d="M1016 1951l88 61q-21 30 -70 62t-112 54t-129 22q-64 0 -125.5 -22t-109.5 -54t-73 -62l83 -67q25 29 90 64.5t135 35.5q50 0 96.5 -17t81 -39t45.5 -38zM385 20v273l460 -302v1616l354 -231v-282h106v679h-106v-274l-460 303v-1615l-354 231v282h-107v-680h107z" />
    <glyph glyph-name="uniA074" unicode="&#xa074;" 
d="M385 20v273l460 -302v1616l354 -231v-282h106v679h-106v-274l-460 303v-1615l-354 231v282h-107v-680h107z" />
    <glyph glyph-name="uniA075" unicode="&#xa075;" 
d="M1336 425l-491 330v862l426 -340l67 81l-599 478v-640l-430 291l-60 -87l490 -330v-895l-426 341l-67 -81l599 -480v675l430 -290z" />
    <glyph glyph-name="uniA076" unicode="&#xa076;" 
d="M1199 725v-400h106v902h-106v-399h-227v399h-106v-399h-227v826l714 -313l41 93l-862 381v-1810h107v720h227v-400h106v400h227zM317 1037v489h-107v-489h107zM317 200v489h-107v-489h107z" />
    <glyph glyph-name="uniA077" unicode="&#xa077;" 
d="M1016 1951l88 61q-21 30 -70 62t-112 54t-129 22q-64 0 -125.5 -22t-109.5 -54t-73 -62l83 -67q25 29 90 64.5t135 35.5q50 0 96.5 -17t81 -39t45.5 -38zM1400 307h-106q0 -63 -35.5 -115.5t-92.5 -83.5t-120 -31q-57 0 -114 29t-95 85t-38 137v350q144 14 258 92.5
t180.5 202t66.5 270.5q0 117 -43 219.5t-119.5 180.5t-178 122.5t-217.5 44.5t-217.5 -44.5t-178 -122.5t-120 -180.5t-43.5 -219.5q0 -147 66.5 -270.5t181.5 -202t258 -92.5v-350q0 -113 54 -192.5t135.5 -121t163.5 -41.5q87 0 168.5 43t133.5 118.5t52 172.5zM799 1295
v408q104 -12 189.5 -68t140 -143.5t65.5 -196.5h-395zM693 1295h-395q11 109 65.5 196.5t140 143.5t189.5 68v-408zM693 1191v-408q-104 13 -189.5 68.5t-140 143.5t-65.5 196h395zM799 1191h395q-11 -108 -65.5 -196t-140 -143.5t-189.5 -68.5v408zM1090 280v306h-106v-306
h106z" />
    <glyph glyph-name="uniA078" unicode="&#xa078;" 
d="M1400 307h-106q0 -63 -35.5 -115.5t-92.5 -83.5t-120 -31q-57 0 -114 29t-95 85t-38 137v350q144 14 258 92.5t180.5 202t66.5 270.5q0 117 -43 219.5t-119.5 180.5t-178 122.5t-217.5 44.5t-217.5 -44.5t-178 -122.5t-120 -180.5t-43.5 -219.5q0 -147 66.5 -270.5
t181.5 -202t258 -92.5v-350q0 -113 54 -192.5t135.5 -121t163.5 -41.5q87 0 168.5 43t133.5 118.5t52 172.5zM799 1295v408q104 -12 189.5 -68t140 -143.5t65.5 -196.5h-395zM693 1295h-395q11 109 65.5 196.5t140 143.5t189.5 68v-408zM693 1191v-408q-104 13 -189.5 68.5
t-140 143.5t-65.5 196h395zM799 1191h395q-11 -108 -65.5 -196t-140 -143.5t-189.5 -68.5v408zM1090 280v306h-106v-306h106z" />
    <glyph glyph-name="uniA079" unicode="&#xa079;" 
d="M1184 450v104h-271v290h271v104h-271v691l433 -238l53 89l-593 327v-351l-527 363v-1829h106v1628q108 -73 211.5 -144t209.5 -144v-392h-269v-104h269v-290h-269v-104h269v-450h107v450h271z" />
    <glyph glyph-name="uniA07A" unicode="&#xa07a;" 
d="M1016 1951l88 61q-21 30 -70 62t-112 54t-128 22t-126 -22t-109 -54t-74 -62l83 -67q17 19 52.5 42.5t81 40.5t92.5 17q49 0 95.5 -17t81 -39t45.5 -38zM1238 506v104h-393v449h393v103h-393v527h357l117 -334l101 33l-141 405h-1069v-104h529v-527h-393v-103h393v-449
h-393v-104h393v-506h106v506h393z" />
    <glyph glyph-name="uniA07B" unicode="&#xa07b;" 
d="M1238 506v104h-393v449h393v103h-393v527h357l117 -334l101 33l-141 405h-1069v-104h529v-527h-393v-103h393v-449h-393v-104h393v-506h106v506h393z" />
    <glyph glyph-name="uniA07C" unicode="&#xa07c;" 
d="M1374 479v105h-529v626h460v104h-460v479h-106v-479h-461v-104h461v-626h-529v-105h529v-479h106v479h529z" />
    <glyph glyph-name="uniA07D" unicode="&#xa07d;" 
d="M1166 1080v316h-107v-316h107zM1166 410v315h-107v-315h107zM969 602v33q0 26 -1.5 80.5t-6.5 128.5h306v-459h107v1022h-107v-459h-315q-10 107 -27.5 227t-46 235t-69 208t-95.5 148.5t-126 55.5t-126 -56.5t-95.5 -150.5t-69 -210t-46.5 -236.5t-28 -229.5t-14 -189.5
t-4 -114.5v-95q0 -59 3.5 -133.5t15.5 -151t35.5 -141t63.5 -104t101 -39.5q56 0 97 32t67 87q26 -55 67 -87t98 -32q60 0 99.5 39t63 102.5t35.5 139t15.5 150t3.5 133.5q0 19 -0.5 36t-0.5 31zM864 635v0v-47q0 -40 -2 -104t-7.5 -134.5t-17.5 -133t-32.5 -102
t-51.5 -39.5q-33 0 -54.5 34t-33 86t-17 106.5t-6.5 97.5t-1 58h-107q0 -15 -1 -58t-6 -98t-16.5 -106.5t-32.5 -85.5t-54 -34q-31 0 -51.5 40.5t-33 104.5t-18 136t-7.5 135.5t-2 102.5v41q0 95 10 228t31.5 277.5t56.5 275.5t86 220q27 46 51.5 64t40.5 18
q17 0 40.5 -17.5t51.5 -64.5q52 -88 87 -218t56.5 -274.5t31 -278.5t9.5 -230z" />
    <glyph glyph-name="uniA07E" unicode="&#xa07e;" 
d="M1016 1951l88 61q-21 30 -70 62t-112 54t-129 22q-64 0 -125.5 -22t-109.5 -54t-73 -62l83 -67q25 29 90 64.5t135 35.5q50 0 96.5 -17t81 -39t45.5 -38zM660 1288h264q-34 -70 -66 -135.5t-66 -135.5zM660 503l132 271q35 -70 66.5 -135t65.5 -136h-264zM1374 399v104
h-332l-191 393q47 98 95.5 195.5t95.5 196.5h332v104h-282l185 377l-98 45q-50 -105 -103 -211.5t-103 -210.5h-362l-205 422l-97 -45q45 -93 92 -188t92 -189h-283v-104h333q49 -99 95.5 -196.5t94.5 -195.5q-48 -99 -94.5 -196.5t-95.5 -196.5h-333v-104h283l-184 -375
l97 -45q50 104 102.5 210.5t102.5 209.5h362l205 -420l97 45q-46 93 -92 187t-91 188h282z" />
    <glyph glyph-name="uniA07F" unicode="&#xa07f;" 
d="M660 1288h264q-34 -70 -66 -135.5t-66 -135.5zM660 503l132 271q35 -70 66.5 -135t65.5 -136h-264zM1374 399v104h-332l-191 393q47 98 95.5 195.5t95.5 196.5h332v104h-282l185 377l-98 45q-50 -105 -103 -211.5t-103 -210.5h-362l-205 422l-97 -45q45 -93 92 -188
t92 -189h-283v-104h333q49 -99 95.5 -196.5t94.5 -195.5q-48 -99 -94.5 -196.5t-95.5 -196.5h-333v-104h283l-184 -375l97 -45q50 104 102.5 210.5t102.5 209.5h362l205 -420l97 45q-46 93 -92 187t-91 188h282z" />
    <glyph glyph-name="uniA080" unicode="&#xa080;" 
d="M1305 0v1793h-106v-1793h106zM1075 1494l-102 37l-180 -475l-180 475l-99 -37l221 -588l-242 -634l101 -36l198 520l198 -523l101 37l-240 636zM385 0v1793h-107v-1793h107z" />
    <glyph glyph-name="uniA081" unicode="&#xa081;" 
d="M1150 682v446h-107v-446h107zM614 1119v-934q143 62 292 126.5t292 126.5v-438h107v597l-585 -252v1111l585 -244v581h-107v-424l-584 244v-390q-139 -14 -228 -97.5t-132.5 -205t-43.5 -252.5h107q0 116 34 213t100 160t163 78z" />
    <glyph glyph-name="uniA082" unicode="&#xa082;" 
d="M1016 1951l88 61q-21 30 -70 62t-112 54t-129 22q-64 0 -125.5 -22t-109.5 -54t-73 -62l83 -67q25 29 90 64.5t135 35.5q50 0 96.5 -17t81 -39t45.5 -38zM1305 1793h-106q0 -25 -2 -92.5t-10.5 -152.5t-27 -165t-51.5 -132.5t-84 -52.5q-52 0 -85.5 52.5t-52.5 132
t-28 164.5t-11 153t-2 93h-106q0 -25 -2 -93t-11 -153t-27.5 -165.5t-51.5 -133t-84 -52.5q-52 0 -85 52.5t-52 132.5t-28 165.5t-11 153.5t-2 93h-107q0 -48 3.5 -133t17 -182.5t44 -185.5t84 -144t136.5 -56q67 0 112.5 35.5t73.5 88.5t43 105q17 -52 45 -104.5t74 -87.5
t113 -35q83 0 135.5 56t82.5 143.5t43.5 185t16.5 182t3 132.5zM1174 585v104h-329v283h-106v-283h-331v-104h331v-279h106v279h329zM1339 409l-104 23q-23 -100 -87 -178.5t-156 -124t-200 -45.5t-200 45.5t-156 124t-87 178.5l-104 -22q28 -123 107 -220.5t193 -153.5
t247 -56q134 0 247.5 56t192.5 153.5t107 219.5z" />
    <glyph glyph-name="uniA083" unicode="&#xa083;" 
d="M1305 1793h-106q0 -25 -2 -92.5t-10.5 -152.5t-27 -165t-51.5 -132.5t-84 -52.5q-52 0 -85.5 52.5t-52.5 132t-28 164.5t-11 153t-2 93h-106q0 -25 -2 -93t-11 -153t-27.5 -165.5t-51.5 -133t-84 -52.5q-52 0 -85 52.5t-52 132.5t-28 165.5t-11 153.5t-2 93h-107
q0 -48 3.5 -133t17 -182.5t44 -185.5t84 -144t136.5 -56q67 0 112.5 35.5t73.5 88.5t43 105q17 -52 45 -104.5t74 -87.5t113 -35q83 0 135.5 56t82.5 143.5t43.5 185t16.5 182t3 132.5zM1174 585v104h-329v283h-106v-283h-331v-104h331v-279h106v279h329zM1339 409l-104 23
q-23 -100 -87 -178.5t-156 -124t-200 -45.5t-200 45.5t-156 124t-87 178.5l-104 -22q28 -123 107 -220.5t193 -153.5t247 -56q134 0 247.5 56t192.5 153.5t107 219.5z" />
    <glyph glyph-name="uniA084" unicode="&#xa084;" 
d="M1353 1793h-107q0 -349 -59.5 -505t-139.5 -156q-53 0 -99.5 68t-74.5 214t-28 379h-106q0 -24 -1.5 -81.5t-7.5 -132.5t-18.5 -153t-34 -145t-55.5 -108.5t-82 -41.5q-54 0 -100 68t-74 214.5t-28 379.5h-107q0 -215 30 -388.5t98 -275.5t181 -102q75 0 124.5 41.5
t80 103.5t47.5 121q36 -123 98 -194t157 -71q114 0 181 102.5t96 276t29 386.5zM845 425v445h-106v-445h106zM1322 541h-107q0 -125 -60 -227.5t-156.5 -162.5t-205.5 -60q-108 0 -205.5 60.5t-158.5 162.5t-61 227h-106q0 -114 43 -214.5t117.5 -177t170 -119.5t200.5 -43
t200.5 43t169.5 119.5t116.5 177t42.5 214.5z" />
    <glyph glyph-name="uniA085" unicode="&#xa085;" 
d="M845 852v665q114 -15 202.5 -82.5t153.5 -160.5h103v519h-106v-349q-82 85 -184.5 133t-221.5 48q-142 0 -252.5 -66.5t-186.5 -182t-115.5 -264t-39.5 -312.5q0 -163 39.5 -312t115.5 -265t186.5 -183t252.5 -67q179 0 323 109t229 281l-95 44q-69 -138 -175.5 -223.5
t-228.5 -102.5v667h532v104h-532zM739 1517v-1436q-128 18 -226 114.5t-153 252.5t-55 352t55 351.5t153 252t226 113.5z" />
    <glyph glyph-name="uniA086" unicode="&#xa086;" 
d="M1016 1951l88 61q-21 30 -70 62t-112 54t-129 22q-64 0 -125.5 -22t-109.5 -54t-73 -62l83 -67q16 19 51.5 42.5t81 40.5t92.5 17q50 0 96.5 -17t81 -39t45.5 -38zM520 1375v359h-106v-359h106zM663 1080l-6 6q0 -1 -0.5 -3t-0.5 -4q2 0 4 0.5t3 0.5zM653 896v0
q0 -48 1.5 -94t2.5 -89q-183 8 -261.5 56.5t-78.5 127.5q0 78 78 126.5t261 55.5q-3 -85 -3 -183zM990 -27v0q179 0 258 225.5t79 697.5q0 473 -79 698.5t-258 225.5q-149 0 -228 -157t-99 -479q-129 -4 -231.5 -34t-162 -91t-59.5 -162q0 -102 59 -164t161.5 -90.5
t230.5 -33.5q22 -323 101 -479.5t228 -156.5zM1220 896v0q0 -249 -19 -409t-52 -249.5t-74 -125t-85 -35.5t-85.5 35.5t-74 125t-51.5 249.5t-19 409q0 246 19 405.5t51.5 250.5t74 127.5t85.5 36.5t85 -35.5t74 -125.5t52 -250t19 -409zM520 59v359h-106v-359h106z" />
    <glyph glyph-name="uniA087" unicode="&#xa087;" 
d="M520 1375v359h-106v-359h106zM663 1080l-6 6q0 -1 -0.5 -3t-0.5 -4q2 0 4 0.5t3 0.5zM653 896v0q0 -48 1.5 -94t2.5 -89q-183 8 -261.5 56.5t-78.5 127.5q0 78 78 126.5t261 55.5q-3 -85 -3 -183zM990 -27v0q179 0 258 225.5t79 697.5q0 473 -79 698.5t-258 225.5
q-149 0 -228 -157t-99 -479q-129 -4 -231.5 -34t-162 -91t-59.5 -162q0 -102 59 -164t161.5 -90.5t230.5 -33.5q22 -323 101 -479.5t228 -156.5zM1220 896v0q0 -249 -19 -409t-52 -249.5t-74 -125t-85 -35.5t-85.5 35.5t-74 125t-51.5 249.5t-19 409q0 246 19 405.5
t51.5 250.5t74 127.5t85.5 36.5t85 -35.5t74 -125.5t52 -250t19 -409zM520 59v359h-106v-359h106z" />
    <glyph glyph-name="uniA088" unicode="&#xa088;" 
d="M845 0v337q147 14 266 92t189.5 199.5t70.5 267.5t-70.5 267.5t-189.5 199t-266 91.5v339h-106v-339q-147 -14 -266.5 -91.5t-189.5 -199t-70 -267.5t70 -267.5t189.5 -199.5t266.5 -92v-337h106zM845 442v908q117 -13 212 -76.5t151 -161.5t56 -216q0 -117 -56 -215.5
t-151 -161.5t-212 -77zM739 1350v-908q-117 14 -212 77t-151 161.5t-56 215.5q0 118 56 216t151 161.5t212 76.5zM1105 750v291h-106v-291h106z" />
    <glyph glyph-name="uniA089" unicode="&#xa089;" 
d="M1016 1951l88 61q-21 30 -70 62t-112 54t-129 22q-64 0 -125.5 -22t-109.5 -54t-73 -62l83 -67q25 29 90 64.5t135 35.5q50 0 96.5 -17t81 -39t45.5 -38zM845 1374v359h-106v-359h106zM683 844h219v-63q0 -77 4 -181.5t17 -213.5t39.5 -203t71 -152t112.5 -58t112.5 58
t71 152t39.5 203.5t17 213.5t4 181q0 25 -0.5 46.5t-0.5 37.5v135q0 76 -4 181t-16.5 216t-39 207t-71 156t-112.5 60q-52 0 -87.5 -30.5t-58.5 -77t-36 -95.5t-19 -87q-21 -109 -31 -258.5t-12 -323.5h-219q0 16 0.5 31t0.5 37q0 78 -4.5 182t-18 212.5t-40.5 201.5
t-71 150.5t-111 57.5q-52 0 -87.5 -30.5t-58.5 -77t-36 -95.5t-19 -87q-21 -116 -32 -281t-11 -353v-32q0 -17 -0.5 -39.5t-0.5 -48.5q0 -78 4 -182t17 -212.5t40 -201t71.5 -150t112.5 -57.5q67 0 111 57t71 149t40.5 200t18 212t4.5 182q0 21 -0.5 38.5t-0.5 32.5z
M1283 896v0q0 -18 -1 -84.5t-4.5 -159.5t-12 -192.5t-23.5 -186.5t-38.5 -141.5t-57.5 -54.5t-57.5 54.5t-39 141.5t-23.5 187t-11.5 193t-4.5 159.5t-1 83.5q0 177 10 340.5t29 276.5q3 14 11 46.5t20 68.5t29 62t38 26q33 0 56 -54.5t38 -141.5t24 -187t13 -193t5 -159.5
t1 -84.5zM576 896v0q0 -18 -1 -84.5t-4.5 -159.5t-12 -192.5t-23.5 -186.5t-38.5 -141.5t-57.5 -54.5t-57.5 54.5t-39 141.5t-23.5 187t-11.5 193t-4.5 159.5t-1 83.5q0 177 10.5 340.5t29.5 276.5q3 14 10.5 46.5t20 68.5t29 62t37.5 26q33 0 56 -54.5t38 -141.5t24 -187
t13 -193t5 -159.5t1 -84.5zM845 59v359h-106v-359h106z" />
    <glyph glyph-name="uniA08A" unicode="&#xa08a;" 
d="M845 1374v359h-106v-359h106zM683 844h219v-63q0 -77 4 -181.5t17 -213.5t39.5 -203t71 -152t112.5 -58t112.5 58t71 152t39.5 203.5t17 213.5t4 181q0 25 -0.5 46.5t-0.5 37.5v135q0 76 -4 181t-16.5 216t-39 207t-71 156t-112.5 60q-52 0 -87.5 -30.5t-58.5 -77
t-36 -95.5t-19 -87q-21 -109 -31 -258.5t-12 -323.5h-219q0 16 0.5 31t0.5 37q0 78 -4.5 182t-18 212.5t-40.5 201.5t-71 150.5t-111 57.5q-52 0 -87.5 -30.5t-58.5 -77t-36 -95.5t-19 -87q-21 -116 -32 -281t-11 -353v-32q0 -17 -0.5 -39.5t-0.5 -48.5q0 -78 4 -182
t17 -212.5t40 -201t71.5 -150t112.5 -57.5q67 0 111 57t71 149t40.5 200t18 212t4.5 182q0 21 -0.5 38.5t-0.5 32.5zM1283 896v0q0 -18 -1 -84.5t-4.5 -159.5t-12 -192.5t-23.5 -186.5t-38.5 -141.5t-57.5 -54.5t-57.5 54.5t-39 141.5t-23.5 187t-11.5 193t-4.5 159.5
t-1 83.5q0 177 10 340.5t29 276.5q3 14 11 46.5t20 68.5t29 62t38 26q33 0 56 -54.5t38 -141.5t24 -187t13 -193t5 -159.5t1 -84.5zM576 896v0q0 -18 -1 -84.5t-4.5 -159.5t-12 -192.5t-23.5 -186.5t-38.5 -141.5t-57.5 -54.5t-57.5 54.5t-39 141.5t-23.5 187t-11.5 193
t-4.5 159.5t-1 83.5q0 177 10.5 340.5t29.5 276.5q3 14 10.5 46.5t20 68.5t29 62t37.5 26q33 0 56 -54.5t38 -141.5t24 -187t13 -193t5 -159.5t1 -84.5zM845 59v359h-106v-359h106z" />
    <glyph glyph-name="uniA08B" unicode="&#xa08b;" 
d="M1306 1095v359h-107v-359h107zM1306 338v359h-107v-359h107zM899 278l-2 6q-1 -1 -1 -3zM685 76v0q-92 0 -159 101t-103.5 285.5t-36.5 433.5t36.5 433.5t103.5 285.5t159 101q65 0 118.5 -53t92.5 -152q-121 -110 -194 -270t-73 -345t72.5 -345t194.5 -270
q-39 -99 -92.5 -152t-118.5 -53zM1375 95v104q-100 0 -189 30t-166 85q35 114 52 249.5t18 280.5h284v104h-284q-1 145 -18 281t-52 249q77 55 166 85t189 30v104q-110 0 -208.5 -30.5t-183.5 -87.5q-48 112 -121 176.5t-177 64.5q-114 0 -192 -78t-125 -210t-67.5 -297
t-20.5 -339t20.5 -339t67.5 -297t125 -210t192 -78q104 0 177 64.5t121 176.5q86 -57 184.5 -87.5t207.5 -30.5zM984 948h-247q9 137 60 250.5t134 201.5q26 -93 38.5 -205t14.5 -247zM737 844h247q-2 -130 -15.5 -246t-37.5 -207q-82 87 -133.5 202t-60.5 251z" />
    <glyph glyph-name="uniA08C" unicode="&#xa08c;" 
d="M1016 1951l88 61q-21 30 -70 62t-112 54t-129 22q-64 0 -125.5 -22t-109.5 -54t-73 -62l83 -67q25 29 90 64.5t135 35.5q50 0 96.5 -17t81 -39t45.5 -38zM1075 1413v257h-107v-257h107zM1075 953v258h-107v-258h107zM385 1132v661h-107v-968q0 -266 59.5 -457t174.5 -293
t280 -102q166 0 280 102t173.5 293t59.5 457v968h-106v-968q0 -242 -46 -401t-125.5 -242.5t-182.5 -100.5v1712h-106v-661h-354zM739 1028v-947q-103 17 -183 100.5t-125.5 242.5t-45.5 401v203h354zM1075 494v258h-107v-258h107z" />
    <glyph glyph-name="uniA08D" unicode="&#xa08d;" 
d="M1075 1413v257h-107v-257h107zM1075 953v258h-107v-258h107zM385 1132v661h-107v-968q0 -266 59.5 -457t174.5 -293t280 -102q166 0 280 102t173.5 293t59.5 457v968h-106v-968q0 -242 -46 -401t-125.5 -242.5t-182.5 -100.5v1712h-106v-661h-354zM739 1028v-947
q-103 17 -183 100.5t-125.5 242.5t-45.5 401v203h354zM1075 494v258h-107v-258h107z" />
    <glyph glyph-name="uniA08E" unicode="&#xa08e;" 
d="M859 730v105q-78 0 -133 51t-55 124t55 124.5t133 51.5v104q-78 0 -133 51t-55 124q0 74 55 125.5t133 51.5v104q-81 0 -148 -38t-107 -102t-40 -141q0 -70 33 -129.5t88 -98.5q-55 -37 -88 -96.5t-33 -130.5q0 -77 40 -140.5t107 -101.5t148 -38zM1406 1486l-436 353
v-1418l-585 266v-687h107v524l585 -264v1357l262 -212zM462 1233v0q0 129 -60 240t-159 184l-65 -82q80 -61 128.5 -150.5t48.5 -191.5q0 -103 -48.5 -192t-128.5 -150l65 -82q99 72 159 183t60 241z" />
    <glyph glyph-name="uniA08F" unicode="&#xa08f;" 
d="M1016 1951l88 61q-21 30 -70 62t-112 54t-129 22q-64 0 -125.5 -22t-109.5 -54t-73 -62l83 -67q25 29 90 64.5t135 35.5q50 0 96.5 -17t81 -39t45.5 -38zM892 844h302v-436q-78 113 -151 218.5t-151 217.5zM1194 948h-305l305 441v-441zM845 0v726l355 -511h100v1366
h-100l-355 -512v724h-106v-727l-357 515h-102v-1366h102l357 515v-730h106zM387 949v440l305 -440h-305zM689 845l-302 -437v437h302z" />
    <glyph glyph-name="uniA090" unicode="&#xa090;" 
d="M892 844h302v-436q-78 113 -151 218.5t-151 217.5zM1194 948h-305l305 441v-441zM845 0v726l355 -511h100v1366h-100l-355 -512v724h-106v-727l-357 515h-102v-1366h102l357 515v-730h106zM387 949v440l305 -440h-305zM689 845l-302 -437v437h302z" />
    <glyph glyph-name="uniA091" unicode="&#xa091;" 
d="M1305 633v526h-106v-526h106zM1338 1358l-599 478v-1661l-426 341l-67 -81l599 -480v1662l426 -340zM385 633v526h-107v-526h107z" />
    <glyph glyph-name="uniA092" unicode="&#xa092;" 
d="M1016 1951l88 61q-21 30 -70 62t-112 54t-129 22q-64 0 -125.5 -22t-109.5 -54t-73 -62l83 -67q25 29 90 64.5t135 35.5q50 0 96.5 -17t81 -39t45.5 -38zM1201 59h106q0 131 -62 240.5t-166.5 179.5t-233.5 82v283h460v104h-460v276q133 12 238.5 83.5t167.5 183.5
t62 245h-105q0 -105 -48 -193t-130 -145t-185 -70v465h-106v-465q-103 13 -185 70t-130 145t-48 193h-106q0 -134 62 -246t168.5 -183t238.5 -83v-276h-461v-104h461v-283q-129 -12 -234 -82t-167 -179.5t-62 -240.5h107q0 104 46.5 190t127.5 142t182 67v-458h106v458
q101 -11 181.5 -67t127.5 -142.5t47 -189.5z" />
    <glyph glyph-name="uniA093" unicode="&#xa093;" 
d="M1201 59h106q0 131 -62 240.5t-166.5 179.5t-233.5 82v283h460v104h-460v276q133 12 238.5 83.5t167.5 183.5t62 245h-105q0 -105 -48 -193t-130 -145t-185 -70v465h-106v-465q-103 13 -185 70t-130 145t-48 193h-106q0 -134 62 -246t168.5 -183t238.5 -83v-276h-461
v-104h461v-283q-129 -12 -234 -82t-167 -179.5t-62 -240.5h107q0 104 46.5 190t127.5 142t182 67v-458h106v458q101 -11 181.5 -67t127.5 -142.5t47 -189.5z" />
    <glyph glyph-name="uniA094" unicode="&#xa094;" 
d="M1371 896v0q0 171 -42.5 327t-120 277.5t-183.5 192t-233 70.5t-233 -70.5t-183.5 -192t-120 -277.5t-42.5 -327t42.5 -327t120 -277.5t183.5 -192t233 -70.5t233 70.5t183.5 192t120 277.5t42.5 327zM1205 526l-193 223q23 72 23 147q0 74 -22.5 145t-65 123.5
t-102.5 70.5v419q111 -21 206.5 -123.5t154 -266t58.5 -368.5q0 -102 -16 -195.5t-43 -174.5zM568 762l-193 -223q-26 78 -40.5 168.5t-14.5 188.5q0 205 58.5 368.5t154 266t206.5 123.5v-419q-60 -18 -102.5 -70.5t-65 -123.5t-22.5 -145q0 -33 5.5 -67.5t13.5 -66.5z
M420 430l196 226q32 -48 76 -76.5t100 -28.5q53 0 94.5 26t72.5 68q51 -58 100.5 -114t99.5 -115q-67 -132 -164 -208t-203 -76q-109 0 -206.5 79.5t-165.5 218.5zM928 896v0q0 -117 -46 -179.5t-90 -62.5q-43 0 -89.5 62.5t-46.5 179.5q0 116 46.5 178.5t89.5 62.5
q44 0 90 -62.5t46 -178.5z" />
    <glyph glyph-name="uniA095" unicode="&#xa095;" 
d="M1016 1951l88 61q-21 30 -70 62t-112 54t-129 22q-64 0 -125.5 -22t-109.5 -54t-73 -62l83 -67q25 29 90 64.5t135 35.5q50 0 96.5 -17t81 -39t45.5 -38zM1082 1290v315h-107v-315h107zM609 1290v315h-107v-315h107zM845 301v615q128 13 227 84.5t167.5 185.5t104 255.5
t35.5 292.5h-107q0 -190 -54 -345t-150.5 -252.5t-222.5 -116.5v773h-106v-773q-125 19 -221.5 116t-151 252t-54.5 346h-107q0 -151 35.5 -292.5t104 -255.5t168 -185.5t226.5 -84.5v-615q0 -99 -55.5 -161.5t-136.5 -62.5q-41 0 -86 29.5t-75.5 81.5t-30.5 119h-106
q0 -93 43.5 -168.5t112 -120.5t142.5 -45q91 0 158 46t103.5 121t36.5 161z" />
    <glyph glyph-name="uniA096" unicode="&#xa096;" 
d="M1082 1290v315h-107v-315h107zM609 1290v315h-107v-315h107zM845 301v615q128 13 227 84.5t167.5 185.5t104 255.5t35.5 292.5h-107q0 -190 -54 -345t-150.5 -252.5t-222.5 -116.5v773h-106v-773q-125 19 -221.5 116t-151 252t-54.5 346h-107q0 -151 35.5 -292.5
t104 -255.5t168 -185.5t226.5 -84.5v-615q0 -99 -55.5 -161.5t-136.5 -62.5q-41 0 -86 29.5t-75.5 81.5t-30.5 119h-106q0 -93 43.5 -168.5t112 -120.5t142.5 -45q91 0 158 46t103.5 121t36.5 161z" />
    <glyph glyph-name="uniA097" unicode="&#xa097;" 
d="M1374 296v656h-107v-656h107zM1305 1086v707h-106v-512l-460 308v-1589h106v1393zM317 296v656h-107v-656h107z" />
    <glyph glyph-name="uniA098" unicode="&#xa098;" 
d="M1029 1084l71 78q-46 39 -97 68.5t-107 47.5l-36 -98q89 -30 169 -96zM1214 839l96 46q-31 62 -68.5 115.5t-79.5 100.5l-80 -67q37 -41 70.5 -90t61.5 -105zM1308 564l104 21q-25 121 -65 223l-101 -38q19 -46 35 -98t27 -108zM1270 1491l-592 326v-1662l-432 245
l-56 -89l595 -336v1002q87 -23 163.5 -111.5t124 -228t47.5 -315.5h105q0 141 -31.5 271t-89.5 235t-139 172t-180 82v557l432 -237z" />
    <glyph glyph-name="uniA099" unicode="&#xa099;" 
d="M1016 1951l88 61q-21 30 -70 62t-112 54t-129 22q-64 0 -125.5 -22t-109.5 -54t-73 -62l83 -67q25 29 90 64.5t135 35.5q50 0 96.5 -17t81 -39t45.5 -38zM1363 400v0q0 96 -41 177t-112 138.5t-162 80.5v997h-106v-879l-732 486v-1014h107v819l598 -397
q-107 -8 -196.5 -64.5t-142.5 -146t-53 -197.5q0 -111 56.5 -203.5t152 -148t211.5 -55.5t211 55.5t152 148t57 203.5zM1256 400v0q0 -84 -42 -152.5t-113 -109.5t-158 -41t-158 41t-113 109.5t-42 152.5q0 85 42 154t113 110t158 41t158 -41t113 -110t42 -154z" />
    <glyph glyph-name="uniA09A" unicode="&#xa09a;" 
d="M1363 400v0q0 96 -41 177t-112 138.5t-162 80.5v997h-106v-879l-732 486v-1014h107v819l598 -397q-107 -8 -196.5 -64.5t-142.5 -146t-53 -197.5q0 -111 56.5 -203.5t152 -148t211.5 -55.5t211 55.5t152 148t57 203.5zM1256 400v0q0 -84 -42 -152.5t-113 -109.5t-158 -41
t-158 41t-113 109.5t-42 152.5q0 85 42 154t113 110t158 41t158 -41t113 -110t42 -154z" />
    <glyph glyph-name="uniA09B" unicode="&#xa09b;" 
d="M654 844h257v-844h106v1628l327 -226l62 86l-495 341v-881h-257q-13 187 -106 342t-239 249l-57 -86q123 -79 203.5 -211.5t91.5 -293.5h-337v-104h337q-11 -161 -91.5 -293t-203.5 -212l57 -86q146 94 239 249t106 342z" />
    </font>
</defs>
</svg>
